%TF.GenerationSoftware,KiCad,Pcbnew,9.0.3*%
%TF.CreationDate,2026-02-11T16:22:36-03:00*%
%TF.ProjectId,control-pad,636f6e74-726f-46c2-9d70-61642e6b6963,1.0*%
%TF.SameCoordinates,Original*%
%TF.FileFunction,Copper,L3,Inr*%
%TF.FilePolarity,Positive*%
%FSLAX46Y46*%
G04 Gerber Fmt 4.6, Leading zero omitted, Abs format (unit mm)*
G04 Created by KiCad (PCBNEW 9.0.3) date 2026-02-11 16:22:36*
%MOMM*%
%LPD*%
G01*
G04 APERTURE LIST*
%TA.AperFunction,ComponentPad*%
%ADD10C,3.316000*%
%TD*%
%TA.AperFunction,ComponentPad*%
%ADD11O,8.400000X4.200000*%
%TD*%
%TA.AperFunction,ComponentPad*%
%ADD12R,1.508000X1.508000*%
%TD*%
%TA.AperFunction,ComponentPad*%
%ADD13C,1.508000*%
%TD*%
%TA.AperFunction,ComponentPad*%
%ADD14R,1.830000X1.830000*%
%TD*%
%TA.AperFunction,ComponentPad*%
%ADD15C,1.830000*%
%TD*%
%TA.AperFunction,ComponentPad*%
%ADD16C,0.650000*%
%TD*%
%TA.AperFunction,ComponentPad*%
%ADD17O,0.900000X1.700000*%
%TD*%
%TA.AperFunction,ComponentPad*%
%ADD18O,0.900000X2.400000*%
%TD*%
%TA.AperFunction,ViaPad*%
%ADD19C,0.600000*%
%TD*%
%TA.AperFunction,Conductor*%
%ADD20C,0.200000*%
%TD*%
G04 APERTURE END LIST*
D10*
%TO.N,SHIELD*%
%TO.C,J4*%
X188395000Y-129245000D03*
X188395000Y-116105000D03*
%TD*%
%TO.N,SHIELD*%
%TO.C,J3*%
X188420000Y-110345000D03*
X188420000Y-97205000D03*
%TD*%
D11*
%TO.N,SW_S5*%
%TO.C,S5*%
X188536000Y-41887500D03*
%TO.N,GND*%
X188536000Y-52387500D03*
%TD*%
D12*
%TO.N,SW_S7*%
%TO.C,S7*%
X121661000Y-59260000D03*
D13*
%TO.N,GND*%
X121661000Y-61800000D03*
%TO.N,unconnected-(S7-Pad3)*%
X121661000Y-64340000D03*
%TD*%
D12*
%TO.N,SW_S8*%
%TO.C,S8*%
X114236000Y-75622500D03*
D13*
%TO.N,GND*%
X114236000Y-78162500D03*
%TO.N,unconnected-(S8-Pad3)*%
X114236000Y-80702500D03*
%TD*%
D14*
%TO.N,GND*%
%TO.C,S1*%
X114406000Y-39370000D03*
D15*
%TO.N,SW_S1*%
X119486000Y-44450000D03*
%TD*%
D12*
%TO.N,SW_S11*%
%TO.C,S11*%
X148461000Y-75622500D03*
D13*
%TO.N,GND*%
X148461000Y-78162500D03*
%TO.N,unconnected-(S11-Pad3)*%
X148461000Y-80702500D03*
%TD*%
D10*
%TO.N,SHIELD*%
%TO.C,J1*%
X183555000Y-137459000D03*
X196695000Y-137459000D03*
%TD*%
D12*
%TO.N,SW_S9*%
%TO.C,S9*%
X124875000Y-75622500D03*
D13*
%TO.N,GND*%
X124875000Y-78162500D03*
%TO.N,unconnected-(S9-Pad3)*%
X124875000Y-80702500D03*
%TD*%
D11*
%TO.N,SW_S3*%
%TO.C,S3*%
X152836000Y-41887500D03*
%TO.N,GND*%
X152836000Y-52387500D03*
%TD*%
%TO.N,SW_S4*%
%TO.C,S4*%
X170636000Y-41887500D03*
%TO.N,GND*%
X170636000Y-52387500D03*
%TD*%
D12*
%TO.N,SW_S15*%
%TO.C,S15*%
X193411000Y-75622500D03*
D13*
%TO.N,GND*%
X193411000Y-78162500D03*
%TO.N,unconnected-(S15-Pad3)*%
X193411000Y-80702500D03*
%TD*%
D16*
%TO.N,GND*%
%TO.C,J2*%
X172400000Y-139165000D03*
%TO.N,VBUS_IN*%
X173250000Y-139165000D03*
%TO.N,Net-(J2-CC1)*%
X174100000Y-139165000D03*
%TO.N,USB_UP_DP*%
X174950000Y-139165000D03*
%TO.N,USB_UP_DM*%
X175800000Y-139165000D03*
%TO.N,unconnected-(J2-SBU1-PadA8)*%
X176650000Y-139165000D03*
%TO.N,VBUS_IN*%
X177500000Y-139165000D03*
%TO.N,GND*%
X178350000Y-139165000D03*
X178350000Y-140515000D03*
%TO.N,VBUS_IN*%
X177500000Y-140515000D03*
%TO.N,Net-(J2-CC2)*%
X176650000Y-140515000D03*
%TO.N,USB_UP_DP*%
X175800000Y-140515000D03*
%TO.N,USB_UP_DM*%
X174950000Y-140515000D03*
%TO.N,unconnected-(J2-SBU2-PadB8)*%
X174100000Y-140515000D03*
%TO.N,VBUS_IN*%
X173250000Y-140515000D03*
%TO.N,GND*%
X172400000Y-140515000D03*
D17*
%TO.N,SHIELD*%
X171050000Y-143525000D03*
X179700000Y-143525000D03*
D18*
X171050000Y-140145000D03*
X179700000Y-140145000D03*
%TD*%
D12*
%TO.N,SW_S10*%
%TO.C,S10*%
X136861000Y-75622500D03*
D13*
%TO.N,GND*%
X136861000Y-78162500D03*
%TO.N,unconnected-(S10-Pad3)*%
X136861000Y-80702500D03*
%TD*%
D12*
%TO.N,SW_S12*%
%TO.C,S12*%
X160011000Y-75622500D03*
D13*
%TO.N,GND*%
X160011000Y-78162500D03*
%TO.N,unconnected-(S12-Pad3)*%
X160011000Y-80702500D03*
%TD*%
D11*
%TO.N,SW_S2*%
%TO.C,S2*%
X135211000Y-41887500D03*
%TO.N,GND*%
X135211000Y-52387500D03*
%TD*%
D12*
%TO.N,SW_S13*%
%TO.C,S13*%
X171011000Y-75622500D03*
D13*
%TO.N,GND*%
X171011000Y-78162500D03*
%TO.N,unconnected-(S13-Pad3)*%
X171011000Y-80702500D03*
%TD*%
D12*
%TO.N,SW_S6*%
%TO.C,S6*%
X114386000Y-59260000D03*
D13*
%TO.N,GND*%
X114386000Y-61800000D03*
%TO.N,unconnected-(S6-Pad3)*%
X114386000Y-64340000D03*
%TD*%
D12*
%TO.N,SW_S14*%
%TO.C,S14*%
X182361000Y-75622500D03*
D13*
%TO.N,GND*%
X182361000Y-78162500D03*
%TO.N,unconnected-(S14-Pad3)*%
X182361000Y-80702500D03*
%TD*%
D19*
%TO.N,+5V_RAW*%
X121472700Y-119574300D03*
X116095000Y-95951000D03*
X127361100Y-133918800D03*
X139769200Y-116606400D03*
X128935400Y-97214300D03*
%TO.N,GND*%
X162890100Y-132123500D03*
X118953700Y-78162500D03*
X121419900Y-95725000D03*
X186386100Y-137711700D03*
X156132900Y-122657600D03*
X119217300Y-93063500D03*
X142396600Y-124838800D03*
%TO.N,+5V_PORT*%
X182494600Y-103501300D03*
X124353300Y-137811800D03*
X117238300Y-120369000D03*
X186730500Y-123157900D03*
%TO.N,Net-(U4-XTALOUT)*%
X168047400Y-112746300D03*
X173183300Y-121704200D03*
X173545200Y-99799100D03*
%TO.N,+3V3*%
X174313200Y-89998100D03*
X136916800Y-125529000D03*
X170488300Y-114373300D03*
X158925000Y-120847900D03*
X123428800Y-127675000D03*
X178343200Y-117863800D03*
X175911000Y-113927800D03*
X176324200Y-122944800D03*
%TO.N,Net-(U4-PLLFILT)*%
X171175000Y-112312000D03*
X174706600Y-121988400D03*
%TO.N,HUB_RESET_N*%
X169181300Y-118451100D03*
X172270500Y-107518400D03*
%TO.N,VCC*%
X117891700Y-93685100D03*
X132916400Y-95395300D03*
%TO.N,Net-(U2-UVCC)*%
X135557800Y-110603200D03*
X149241500Y-121459800D03*
%TO.N,AVCC*%
X131591400Y-85417000D03*
X121014700Y-96704600D03*
X115070100Y-95415000D03*
%TO.N,Net-(U4-XTALIN{slash}CLKIN)*%
X174379700Y-123067100D03*
X173378200Y-111364800D03*
%TO.N,Net-(U2-XTAL2)*%
X136553100Y-93544900D03*
X141257700Y-92150000D03*
%TO.N,USB_UP_DM*%
X165274600Y-133042400D03*
%TO.N,Net-(J2-CC1)*%
X177105000Y-132712600D03*
%TO.N,USB_P2_DM*%
X178604600Y-118852100D03*
X186760100Y-105012100D03*
%TO.N,USB_P2_DP*%
X177202200Y-117885000D03*
X183566200Y-112561200D03*
%TO.N,USB_P3_DP*%
X182683300Y-121635900D03*
X182414100Y-125887200D03*
%TO.N,PWR_EN*%
X124827600Y-119781100D03*
X139388100Y-120060500D03*
%TO.N,Net-(U4-RBIAS)*%
X151929600Y-101757400D03*
X173318600Y-122508900D03*
%TO.N,Net-(U4-VBUS_DET)*%
X169729900Y-120300600D03*
X147914700Y-104335400D03*
%TO.N,Net-(U2-~{RESET})*%
X135223300Y-98933000D03*
X139922100Y-101911300D03*
%TO.N,USB_MCU_DM*%
X177694600Y-113941600D03*
X179504800Y-96884800D03*
%TO.N,Net-(U2-D-)*%
X126752400Y-96854500D03*
X177149600Y-95954700D03*
%TO.N,Net-(U2-D+)*%
X126825000Y-99823600D03*
X144733200Y-95417000D03*
%TO.N,USB_MCU_DP*%
X156559700Y-98632100D03*
X177289300Y-114977700D03*
%TO.N,PWR_FAULT*%
X116829300Y-123111800D03*
X119994400Y-104888000D03*
%TO.N,SW_S1*%
X132779000Y-90575000D03*
%TO.N,SW_S2*%
X135729900Y-90676300D03*
%TO.N,SW_S3*%
X136322500Y-90092400D03*
%TO.N,SW_S4*%
X136915100Y-89508500D03*
X138994900Y-76351800D03*
%TO.N,SW_S9*%
X124499300Y-92516300D03*
%TO.N,SW_S10*%
X125150700Y-90824700D03*
%TO.N,SW_S11*%
X121192200Y-92425000D03*
%TO.N,SW_S12*%
X124519600Y-89460400D03*
%TO.N,SW_S14*%
X125400900Y-87943500D03*
X153381200Y-80462800D03*
%TO.N,SW_S15*%
X123574100Y-86233700D03*
%TO.N,Net-(U4-USBDM_UP)*%
X171448900Y-123718400D03*
X168875200Y-131633800D03*
%TD*%
D20*
%TO.N,+5V_RAW*%
X128935400Y-97214300D02*
X139769200Y-108048100D01*
X139769200Y-108048100D02*
X139769200Y-116606400D01*
%TO.N,GND*%
X178867000Y-139164900D02*
X178867000Y-139165000D01*
X180011400Y-138643300D02*
X179388600Y-138643300D01*
X172400000Y-140515000D02*
X172400000Y-140639200D01*
X118953700Y-92799900D02*
X118953700Y-78162500D01*
X118953700Y-78162500D02*
X118953700Y-64507300D01*
X180451700Y-139428100D02*
X180451700Y-139083600D01*
X180451700Y-141206400D02*
X180451700Y-139428100D01*
X119217300Y-93063500D02*
X121419900Y-95266100D01*
X114406000Y-40586700D02*
X113330300Y-41662400D01*
X118953700Y-64507300D02*
X121661000Y-61800000D01*
X180011400Y-141646700D02*
X180451700Y-141206400D01*
X184669700Y-139428100D02*
X180451700Y-139428100D01*
X178867000Y-139165000D02*
X178350000Y-139165000D01*
X113330300Y-60744300D02*
X114386000Y-61800000D01*
X177889000Y-141148900D02*
X178350000Y-140687900D01*
X119217300Y-93063500D02*
X118953700Y-92799900D01*
X179308800Y-141646700D02*
X180011400Y-141646700D01*
X156132900Y-125366300D02*
X156132900Y-122657600D01*
X178350000Y-140687900D02*
X179308800Y-141646700D01*
X172400000Y-140639200D02*
X172909700Y-141148900D01*
X180451700Y-139083600D02*
X180011400Y-138643300D01*
X178350000Y-140515000D02*
X178350000Y-140687900D01*
X113330300Y-41662400D02*
X113330300Y-60744300D01*
X114406000Y-39370000D02*
X114406000Y-40586700D01*
X165358500Y-132123500D02*
X162890100Y-132123500D01*
X121419900Y-95266100D02*
X121419900Y-95725000D01*
X172909700Y-141148900D02*
X177889000Y-141148900D01*
X162890100Y-132123500D02*
X156132900Y-125366300D01*
X172400000Y-139165000D02*
X165358500Y-132123500D01*
X179388600Y-138643300D02*
X178867000Y-139164900D01*
X186386100Y-137711700D02*
X184669700Y-139428100D01*
X172400000Y-139165000D02*
X172400000Y-140515000D01*
%TO.N,+5V_PORT*%
X186730500Y-123157900D02*
X182494600Y-118922000D01*
X182494600Y-118922000D02*
X182494600Y-103501300D01*
%TO.N,Net-(U4-XTALOUT)*%
X173183300Y-121574500D02*
X173183300Y-121704200D01*
X168047400Y-113200500D02*
X168047400Y-112746300D01*
X173183300Y-118336400D02*
X168047400Y-113200500D01*
X173183300Y-121704200D02*
X173183300Y-118336400D01*
X173183300Y-121704200D02*
X173183300Y-121574500D01*
%TO.N,+3V3*%
X176324200Y-119882800D02*
X176324200Y-122944800D01*
X134770800Y-127675000D02*
X136916800Y-125529000D01*
X123428800Y-127675000D02*
X134770800Y-127675000D01*
X178343200Y-117863800D02*
X176324200Y-119882800D01*
%TO.N,AVCC*%
X121312900Y-96704600D02*
X131591400Y-86426100D01*
X121014700Y-96704600D02*
X121312900Y-96704600D01*
X131591400Y-86426100D02*
X131591400Y-85417000D01*
%TO.N,Net-(U4-XTALIN{slash}CLKIN)*%
X174104900Y-112091500D02*
X174104900Y-122792300D01*
X173378200Y-111364800D02*
X174104900Y-112091500D01*
X174104900Y-122792300D02*
X174379700Y-123067100D01*
%TO.N,VBUS_IN*%
X173250000Y-139165000D02*
X173250000Y-140515000D01*
X177500000Y-139165000D02*
X177500000Y-140515000D01*
%TO.N,SHIELD*%
X188420000Y-97205000D02*
X188420000Y-110345000D01*
X171050000Y-140145000D02*
X171050000Y-143525000D01*
X188395000Y-116105000D02*
X188420000Y-116080000D01*
X183555000Y-137459000D02*
X188395000Y-132619000D01*
X188420000Y-116080000D02*
X188420000Y-110345000D01*
X188395000Y-132619000D02*
X188395000Y-129245000D01*
X188395000Y-129245000D02*
X188395000Y-116105000D01*
%TO.N,USB_UP_DP*%
X174950000Y-139165000D02*
X174950000Y-139308100D01*
X175800000Y-140158100D02*
X175800000Y-140515000D01*
X174950000Y-139308100D02*
X175800000Y-140158100D01*
%TO.N,Net-(J2-CC1)*%
X174100000Y-135717600D02*
X177105000Y-132712600D01*
X174100000Y-139165000D02*
X174100000Y-135717600D01*
%TO.N,USB_P3_DP*%
X182683300Y-125618000D02*
X182683300Y-121635900D01*
X182414100Y-125887200D02*
X182683300Y-125618000D01*
%TO.N,Net-(U4-RBIAS)*%
X168932200Y-119052800D02*
X169681100Y-119052800D01*
X151929600Y-101757400D02*
X151929600Y-102050200D01*
X169681100Y-119052800D02*
X173137200Y-122508900D01*
X173137200Y-122508900D02*
X173318600Y-122508900D01*
X151929600Y-102050200D02*
X168932200Y-119052800D01*
%TO.N,Net-(U4-VBUS_DET)*%
X163879800Y-120300500D02*
X169729900Y-120300500D01*
X147914700Y-104335400D02*
X163879800Y-120300500D01*
X169729900Y-120300500D02*
X169729900Y-120300600D01*
%TO.N,Net-(U2-D-)*%
X127234500Y-96372400D02*
X126752400Y-96854500D01*
X177149600Y-95954700D02*
X176731900Y-96372400D01*
X176731900Y-96372400D02*
X127234500Y-96372400D01*
%TO.N,USB_MCU_DP*%
X177289300Y-114977700D02*
X177289300Y-114425000D01*
X161496400Y-98632100D02*
X156559700Y-98632100D01*
X177289300Y-114425000D02*
X161496400Y-98632100D01*
%TO.N,SW_S1*%
X125930700Y-77007700D02*
X132779000Y-83856000D01*
X119486000Y-44450000D02*
X125930700Y-50894700D01*
X125930700Y-50894700D02*
X125930700Y-77007700D01*
X132779000Y-83856000D02*
X132779000Y-90575000D01*
%TO.N,SW_S2*%
X130673500Y-80939700D02*
X135720800Y-85987000D01*
X135211000Y-41887500D02*
X135211000Y-44289200D01*
X130673500Y-48826700D02*
X130673500Y-80939700D01*
X135211000Y-44289200D02*
X130673500Y-48826700D01*
X135720800Y-90667200D02*
X135729900Y-90676300D01*
X135720800Y-85987000D02*
X135720800Y-90667200D01*
%TO.N,SW_S3*%
X136281300Y-83199600D02*
X136281300Y-90051200D01*
X138124400Y-59000800D02*
X138124400Y-81356500D01*
X138124400Y-81356500D02*
X136281300Y-83199600D01*
X152836000Y-41887500D02*
X152836000Y-44289200D01*
X152836000Y-44289200D02*
X138124400Y-59000800D01*
X136281300Y-90051200D02*
X136322500Y-90092400D01*
%TO.N,SW_S4*%
X138994900Y-87428700D02*
X138994900Y-76351800D01*
X136915100Y-89508500D02*
X138994900Y-87428700D01*
%TO.N,SW_S9*%
X123779800Y-77641400D02*
X123779800Y-85588500D01*
X124743000Y-76678200D02*
X123779800Y-77641400D01*
X123917900Y-86742400D02*
X123917900Y-91934900D01*
X124875000Y-76678200D02*
X124743000Y-76678200D01*
X124175800Y-86484500D02*
X123917900Y-86742400D01*
X124175800Y-85984500D02*
X124175800Y-86484500D01*
X124875000Y-75622500D02*
X124875000Y-76678200D01*
X123917900Y-91934900D02*
X124499300Y-92516300D01*
X123779800Y-85588500D02*
X124175800Y-85984500D01*
%TO.N,SW_S14*%
X182361000Y-75622500D02*
X181305300Y-75622500D01*
X180249600Y-76678200D02*
X157165800Y-76678200D01*
X157165800Y-76678200D02*
X153381200Y-80462800D01*
X181305300Y-75622500D02*
X180249600Y-76678200D01*
%TO.N,Net-(U4-USBDM_UP)*%
X168875200Y-131633800D02*
X168875200Y-126292100D01*
X168875200Y-126292100D02*
X171448900Y-123718400D01*
%TD*%
%TA.AperFunction,Conductor*%
%TO.N,GND*%
G36*
X198428539Y-35520185D02*
G01*
X198474294Y-35572989D01*
X198485500Y-35624500D01*
X198485500Y-136292077D01*
X198465815Y-136359116D01*
X198413011Y-136404871D01*
X198343853Y-136414815D01*
X198280297Y-136385790D01*
X198263124Y-136367564D01*
X198205200Y-136292077D01*
X198132965Y-136197938D01*
X198132963Y-136197936D01*
X198132960Y-136197932D01*
X197956067Y-136021039D01*
X197956060Y-136021033D01*
X197757580Y-135868734D01*
X197540922Y-135743647D01*
X197540912Y-135743642D01*
X197309782Y-135647905D01*
X197188956Y-135615530D01*
X197068129Y-135583155D01*
X197068123Y-135583154D01*
X197068118Y-135583153D01*
X196820099Y-135550501D01*
X196820096Y-135550500D01*
X196820090Y-135550500D01*
X196569910Y-135550500D01*
X196569904Y-135550500D01*
X196569900Y-135550501D01*
X196321881Y-135583153D01*
X196321874Y-135583154D01*
X196321871Y-135583155D01*
X196270800Y-135596839D01*
X196080217Y-135647905D01*
X195849087Y-135743642D01*
X195849077Y-135743647D01*
X195632419Y-135868734D01*
X195433939Y-136021033D01*
X195433932Y-136021039D01*
X195257039Y-136197932D01*
X195257033Y-136197939D01*
X195104734Y-136396419D01*
X194979647Y-136613077D01*
X194979642Y-136613087D01*
X194883905Y-136844217D01*
X194819156Y-137085868D01*
X194819153Y-137085881D01*
X194786501Y-137333900D01*
X194786500Y-137333916D01*
X194786500Y-137584083D01*
X194786501Y-137584099D01*
X194819153Y-137832118D01*
X194819154Y-137832123D01*
X194819155Y-137832129D01*
X194851530Y-137952956D01*
X194883905Y-138073782D01*
X194979642Y-138304912D01*
X194979647Y-138304922D01*
X195104734Y-138521580D01*
X195257033Y-138720060D01*
X195257039Y-138720067D01*
X195433932Y-138896960D01*
X195433939Y-138896966D01*
X195632419Y-139049265D01*
X195849077Y-139174352D01*
X195849087Y-139174357D01*
X195922540Y-139204782D01*
X196080216Y-139270094D01*
X196321871Y-139334845D01*
X196569910Y-139367500D01*
X196569917Y-139367500D01*
X196820083Y-139367500D01*
X196820090Y-139367500D01*
X197068129Y-139334845D01*
X197309784Y-139270094D01*
X197540919Y-139174354D01*
X197757581Y-139049265D01*
X197956062Y-138896965D01*
X198132965Y-138720062D01*
X198244980Y-138574081D01*
X198263124Y-138550436D01*
X198319552Y-138509233D01*
X198389298Y-138505078D01*
X198450218Y-138539290D01*
X198482971Y-138601008D01*
X198485500Y-138625922D01*
X198485500Y-147350500D01*
X198465815Y-147417539D01*
X198413011Y-147463294D01*
X198361500Y-147474500D01*
X109535500Y-147474500D01*
X109468461Y-147454815D01*
X109422706Y-147402011D01*
X109411500Y-147350500D01*
X109411500Y-140963995D01*
X170349499Y-140963995D01*
X170376418Y-141099322D01*
X170376421Y-141099332D01*
X170429221Y-141226804D01*
X170429228Y-141226817D01*
X170505885Y-141341541D01*
X170505888Y-141341545D01*
X170603454Y-141439111D01*
X170603459Y-141439115D01*
X170644389Y-141466463D01*
X170689195Y-141520075D01*
X170699500Y-141569566D01*
X170699500Y-142450432D01*
X170679815Y-142517471D01*
X170644392Y-142553533D01*
X170603461Y-142580883D01*
X170603454Y-142580888D01*
X170505888Y-142678454D01*
X170505885Y-142678458D01*
X170429228Y-142793182D01*
X170429221Y-142793195D01*
X170376421Y-142920667D01*
X170376418Y-142920677D01*
X170349500Y-143056004D01*
X170349500Y-143056007D01*
X170349500Y-143993993D01*
X170349500Y-143993995D01*
X170349499Y-143993995D01*
X170376418Y-144129322D01*
X170376421Y-144129332D01*
X170429221Y-144256804D01*
X170429228Y-144256817D01*
X170505885Y-144371541D01*
X170505888Y-144371545D01*
X170603454Y-144469111D01*
X170603458Y-144469114D01*
X170718182Y-144545771D01*
X170718195Y-144545778D01*
X170845667Y-144598578D01*
X170845672Y-144598580D01*
X170845676Y-144598580D01*
X170845677Y-144598581D01*
X170981004Y-144625500D01*
X170981007Y-144625500D01*
X171118995Y-144625500D01*
X171210041Y-144607389D01*
X171254328Y-144598580D01*
X171381811Y-144545775D01*
X171496542Y-144469114D01*
X171594114Y-144371542D01*
X171670775Y-144256811D01*
X171723580Y-144129328D01*
X171750500Y-143993995D01*
X178999499Y-143993995D01*
X179026418Y-144129322D01*
X179026421Y-144129332D01*
X179079221Y-144256804D01*
X179079228Y-144256817D01*
X179155885Y-144371541D01*
X179155888Y-144371545D01*
X179253454Y-144469111D01*
X179253458Y-144469114D01*
X179368182Y-144545771D01*
X179368195Y-144545778D01*
X179495667Y-144598578D01*
X179495672Y-144598580D01*
X179495676Y-144598580D01*
X179495677Y-144598581D01*
X179631004Y-144625500D01*
X179631007Y-144625500D01*
X179768995Y-144625500D01*
X179860041Y-144607389D01*
X179904328Y-144598580D01*
X180031811Y-144545775D01*
X180146542Y-144469114D01*
X180244114Y-144371542D01*
X180320775Y-144256811D01*
X180373580Y-144129328D01*
X180400500Y-143993993D01*
X180400500Y-143056007D01*
X180400500Y-143056004D01*
X180373581Y-142920677D01*
X180373580Y-142920676D01*
X180373580Y-142920672D01*
X180373578Y-142920667D01*
X180320778Y-142793195D01*
X180320771Y-142793182D01*
X180244114Y-142678458D01*
X180244111Y-142678454D01*
X180146545Y-142580888D01*
X180146541Y-142580885D01*
X180031817Y-142504228D01*
X180031804Y-142504221D01*
X179904332Y-142451421D01*
X179904322Y-142451418D01*
X179768995Y-142424500D01*
X179768993Y-142424500D01*
X179631007Y-142424500D01*
X179631005Y-142424500D01*
X179495677Y-142451418D01*
X179495667Y-142451421D01*
X179368195Y-142504221D01*
X179368182Y-142504228D01*
X179253458Y-142580885D01*
X179253454Y-142580888D01*
X179155888Y-142678454D01*
X179155885Y-142678458D01*
X179079228Y-142793182D01*
X179079221Y-142793195D01*
X179026421Y-142920667D01*
X179026418Y-142920677D01*
X178999500Y-143056004D01*
X178999500Y-143056007D01*
X178999500Y-143993993D01*
X178999500Y-143993995D01*
X178999499Y-143993995D01*
X171750500Y-143993995D01*
X171750500Y-143993993D01*
X171750500Y-143056007D01*
X171750500Y-143056004D01*
X171723581Y-142920677D01*
X171723580Y-142920676D01*
X171723580Y-142920672D01*
X171723578Y-142920667D01*
X171670778Y-142793195D01*
X171670771Y-142793182D01*
X171594114Y-142678458D01*
X171594111Y-142678454D01*
X171496545Y-142580888D01*
X171496538Y-142580883D01*
X171455608Y-142553533D01*
X171410803Y-142499920D01*
X171400500Y-142450432D01*
X171400500Y-141569566D01*
X171420185Y-141502527D01*
X171455611Y-141466463D01*
X171496542Y-141439114D01*
X171594114Y-141341542D01*
X171670775Y-141226811D01*
X171723580Y-141099328D01*
X171748559Y-140973751D01*
X171750500Y-140963995D01*
X171751097Y-140957933D01*
X171752255Y-140958047D01*
X171770185Y-140896987D01*
X171822989Y-140851232D01*
X171857363Y-140845504D01*
X172187868Y-140515000D01*
X171856529Y-140183661D01*
X171818006Y-140176355D01*
X171767296Y-140128289D01*
X171750500Y-140065972D01*
X171750500Y-139700566D01*
X172076563Y-139700566D01*
X172076564Y-139700567D01*
X172103951Y-139718867D01*
X172119814Y-139725438D01*
X172174218Y-139769279D01*
X172196284Y-139835573D01*
X172179005Y-139903272D01*
X172127869Y-139950883D01*
X172119816Y-139954561D01*
X172103956Y-139961130D01*
X172103948Y-139961134D01*
X172076564Y-139979431D01*
X172076564Y-139979432D01*
X172412132Y-140315000D01*
X172360218Y-140315000D01*
X172286709Y-140345448D01*
X172230448Y-140401709D01*
X172200000Y-140475218D01*
X172200000Y-140554782D01*
X172230448Y-140628291D01*
X172286709Y-140684552D01*
X172360218Y-140715000D01*
X172439782Y-140715000D01*
X172513291Y-140684552D01*
X172569552Y-140628291D01*
X172600000Y-140554782D01*
X172600000Y-140502868D01*
X172646101Y-140548969D01*
X172654118Y-140562855D01*
X172664301Y-140572112D01*
X172678195Y-140604557D01*
X172705112Y-140705013D01*
X172703449Y-140774862D01*
X172664286Y-140832725D01*
X172600058Y-140860229D01*
X172531156Y-140848643D01*
X172497656Y-140824787D01*
X172400001Y-140727132D01*
X172400000Y-140727132D01*
X172076563Y-141050566D01*
X172076564Y-141050567D01*
X172103950Y-141068867D01*
X172103956Y-141068870D01*
X172217689Y-141115979D01*
X172217699Y-141115982D01*
X172338440Y-141140000D01*
X172461559Y-141140000D01*
X172582300Y-141115982D01*
X172582310Y-141115979D01*
X172696041Y-141068871D01*
X172696046Y-141068868D01*
X172734207Y-141043368D01*
X172747057Y-141011543D01*
X172804090Y-140971183D01*
X172873890Y-140968064D01*
X172906294Y-140981092D01*
X173027865Y-141051281D01*
X173174234Y-141090500D01*
X173174236Y-141090500D01*
X173325764Y-141090500D01*
X173325766Y-141090500D01*
X173472135Y-141051281D01*
X173603365Y-140975515D01*
X173603366Y-140975513D01*
X173610403Y-140971451D01*
X173611731Y-140973751D01*
X173664652Y-140953278D01*
X173733101Y-140967299D01*
X173739587Y-140971467D01*
X173739597Y-140971451D01*
X173746633Y-140975513D01*
X173746635Y-140975515D01*
X173809037Y-141011543D01*
X173876626Y-141050566D01*
X173877865Y-141051281D01*
X174024234Y-141090500D01*
X174024236Y-141090500D01*
X174175764Y-141090500D01*
X174175766Y-141090500D01*
X174322135Y-141051281D01*
X174453365Y-140975515D01*
X174453366Y-140975513D01*
X174460403Y-140971451D01*
X174461731Y-140973751D01*
X174514652Y-140953278D01*
X174583101Y-140967299D01*
X174589587Y-140971467D01*
X174589597Y-140971451D01*
X174596633Y-140975513D01*
X174596635Y-140975515D01*
X174659037Y-141011543D01*
X174726626Y-141050566D01*
X174727865Y-141051281D01*
X174874234Y-141090500D01*
X174874236Y-141090500D01*
X175025764Y-141090500D01*
X175025766Y-141090500D01*
X175172135Y-141051281D01*
X175303365Y-140975515D01*
X175303366Y-140975513D01*
X175310403Y-140971451D01*
X175311731Y-140973751D01*
X175364652Y-140953278D01*
X175433101Y-140967299D01*
X175439587Y-140971467D01*
X175439597Y-140971451D01*
X175446633Y-140975513D01*
X175446635Y-140975515D01*
X175509037Y-141011543D01*
X175576626Y-141050566D01*
X175577865Y-141051281D01*
X175724234Y-141090500D01*
X175724236Y-141090500D01*
X175875764Y-141090500D01*
X175875766Y-141090500D01*
X176022135Y-141051281D01*
X176153365Y-140975515D01*
X176153366Y-140975513D01*
X176160403Y-140971451D01*
X176161731Y-140973751D01*
X176214652Y-140953278D01*
X176283101Y-140967299D01*
X176289587Y-140971467D01*
X176289597Y-140971451D01*
X176296633Y-140975513D01*
X176296635Y-140975515D01*
X176359037Y-141011543D01*
X176426626Y-141050566D01*
X176427865Y-141051281D01*
X176574234Y-141090500D01*
X176574236Y-141090500D01*
X176725764Y-141090500D01*
X176725766Y-141090500D01*
X176872135Y-141051281D01*
X177003365Y-140975515D01*
X177003366Y-140975513D01*
X177010403Y-140971451D01*
X177011731Y-140973751D01*
X177064652Y-140953278D01*
X177133101Y-140967299D01*
X177139587Y-140971467D01*
X177139597Y-140971451D01*
X177146633Y-140975513D01*
X177146635Y-140975515D01*
X177209037Y-141011543D01*
X177276626Y-141050566D01*
X177277865Y-141051281D01*
X177424234Y-141090500D01*
X177424236Y-141090500D01*
X177575764Y-141090500D01*
X177575766Y-141090500D01*
X177722135Y-141051281D01*
X177843699Y-140981095D01*
X177911597Y-140964623D01*
X177977624Y-140987475D01*
X178020815Y-141042396D01*
X178022078Y-141047569D01*
X178053950Y-141068867D01*
X178053956Y-141068870D01*
X178167689Y-141115979D01*
X178167699Y-141115982D01*
X178288440Y-141140000D01*
X178411559Y-141140000D01*
X178532300Y-141115982D01*
X178532310Y-141115979D01*
X178646041Y-141068871D01*
X178646046Y-141068868D01*
X178673435Y-141050566D01*
X178350001Y-140727132D01*
X178350000Y-140727132D01*
X178252343Y-140824788D01*
X178249661Y-140826252D01*
X178248072Y-140828860D01*
X178219193Y-140842888D01*
X178191019Y-140858272D01*
X178187972Y-140858054D01*
X178185225Y-140859389D01*
X178153343Y-140855577D01*
X178121328Y-140853287D01*
X178118883Y-140851456D01*
X178115849Y-140851094D01*
X178091095Y-140830655D01*
X178065394Y-140811416D01*
X178064326Y-140808552D01*
X178061972Y-140806609D01*
X178052198Y-140776035D01*
X178040978Y-140745951D01*
X178041346Y-140742089D01*
X178040697Y-140740057D01*
X178044886Y-140705019D01*
X178071805Y-140604554D01*
X178103898Y-140548968D01*
X178150000Y-140502866D01*
X178150000Y-140554782D01*
X178180448Y-140628291D01*
X178236709Y-140684552D01*
X178310218Y-140715000D01*
X178389782Y-140715000D01*
X178463291Y-140684552D01*
X178519552Y-140628291D01*
X178550000Y-140554782D01*
X178550000Y-140475218D01*
X178519552Y-140401709D01*
X178463291Y-140345448D01*
X178389782Y-140315000D01*
X178337867Y-140315000D01*
X178673435Y-139979432D01*
X178673434Y-139979431D01*
X178646052Y-139961134D01*
X178646048Y-139961132D01*
X178630186Y-139954562D01*
X178575782Y-139910721D01*
X178553716Y-139844427D01*
X178570995Y-139776728D01*
X178622131Y-139729117D01*
X178630187Y-139725438D01*
X178646043Y-139718870D01*
X178646046Y-139718868D01*
X178673434Y-139700566D01*
X178337868Y-139365000D01*
X178389782Y-139365000D01*
X178463291Y-139334552D01*
X178519552Y-139278291D01*
X178550000Y-139204782D01*
X178550000Y-139164999D01*
X178562132Y-139164999D01*
X178562132Y-139165000D01*
X178893466Y-139496334D01*
X178931992Y-139503641D01*
X178982702Y-139551706D01*
X178999500Y-139614025D01*
X178999500Y-140065972D01*
X178979815Y-140133011D01*
X178927011Y-140178766D01*
X178892635Y-140184494D01*
X178562132Y-140514999D01*
X178562132Y-140515000D01*
X178893466Y-140846334D01*
X178931992Y-140853641D01*
X178982702Y-140901706D01*
X178997884Y-140958033D01*
X178998903Y-140957933D01*
X178999499Y-140963995D01*
X179026418Y-141099322D01*
X179026421Y-141099332D01*
X179079221Y-141226804D01*
X179079228Y-141226817D01*
X179155885Y-141341541D01*
X179155888Y-141341545D01*
X179253454Y-141439111D01*
X179253458Y-141439114D01*
X179368182Y-141515771D01*
X179368195Y-141515778D01*
X179495667Y-141568578D01*
X179495672Y-141568580D01*
X179495676Y-141568580D01*
X179495677Y-141568581D01*
X179631004Y-141595500D01*
X179631007Y-141595500D01*
X179768995Y-141595500D01*
X179860041Y-141577389D01*
X179904328Y-141568580D01*
X180031811Y-141515775D01*
X180146542Y-141439114D01*
X180244114Y-141341542D01*
X180320775Y-141226811D01*
X180373580Y-141099328D01*
X180398559Y-140973751D01*
X180400500Y-140963995D01*
X180400500Y-139326004D01*
X180373581Y-139190677D01*
X180373580Y-139190676D01*
X180373580Y-139190672D01*
X180366820Y-139174352D01*
X180320778Y-139063195D01*
X180320771Y-139063182D01*
X180244114Y-138948458D01*
X180244111Y-138948454D01*
X180146545Y-138850888D01*
X180146541Y-138850885D01*
X180031817Y-138774228D01*
X180031804Y-138774221D01*
X179904332Y-138721421D01*
X179904322Y-138721418D01*
X179768995Y-138694500D01*
X179768993Y-138694500D01*
X179631007Y-138694500D01*
X179631005Y-138694500D01*
X179495677Y-138721418D01*
X179495667Y-138721421D01*
X179368195Y-138774221D01*
X179368182Y-138774228D01*
X179253458Y-138850885D01*
X179253454Y-138850888D01*
X179155888Y-138948454D01*
X179155882Y-138948462D01*
X179149522Y-138957980D01*
X179095908Y-139002783D01*
X179026583Y-139011487D01*
X178963556Y-138981330D01*
X178931861Y-138936536D01*
X178903867Y-138868951D01*
X178903867Y-138868950D01*
X178885567Y-138841564D01*
X178885566Y-138841563D01*
X178562132Y-139164999D01*
X178550000Y-139164999D01*
X178550000Y-139125218D01*
X178519552Y-139051709D01*
X178463291Y-138995448D01*
X178389782Y-138965000D01*
X178310218Y-138965000D01*
X178236709Y-138995448D01*
X178180448Y-139051709D01*
X178150000Y-139125218D01*
X178150000Y-139177132D01*
X178103898Y-139131030D01*
X178095881Y-139117145D01*
X178085697Y-139107887D01*
X178071804Y-139075442D01*
X178068522Y-139063195D01*
X178044887Y-138974983D01*
X178046550Y-138905135D01*
X178085713Y-138847273D01*
X178149941Y-138819769D01*
X178218844Y-138831356D01*
X178252343Y-138855211D01*
X178350000Y-138952868D01*
X178350001Y-138952868D01*
X178673435Y-138629432D01*
X178673434Y-138629431D01*
X178646052Y-138611134D01*
X178646043Y-138611129D01*
X178532310Y-138564020D01*
X178532300Y-138564017D01*
X178411559Y-138540000D01*
X178288441Y-138540000D01*
X178167699Y-138564017D01*
X178167689Y-138564020D01*
X178053959Y-138611128D01*
X178053948Y-138611134D01*
X178015793Y-138636629D01*
X178002939Y-138668460D01*
X177945903Y-138708818D01*
X177876103Y-138711934D01*
X177843701Y-138698905D01*
X177771434Y-138657182D01*
X177722136Y-138628719D01*
X177618715Y-138601008D01*
X177575766Y-138589500D01*
X177424234Y-138589500D01*
X177277863Y-138628719D01*
X177197552Y-138675088D01*
X177146635Y-138704485D01*
X177146633Y-138704486D01*
X177139597Y-138708549D01*
X177138270Y-138706251D01*
X177085318Y-138726724D01*
X177016873Y-138712686D01*
X177010411Y-138708533D01*
X177010403Y-138708549D01*
X177003366Y-138704486D01*
X177003365Y-138704485D01*
X176940437Y-138668153D01*
X176872136Y-138628719D01*
X176768715Y-138601008D01*
X176725766Y-138589500D01*
X176574234Y-138589500D01*
X176427863Y-138628719D01*
X176347552Y-138675088D01*
X176296635Y-138704485D01*
X176296633Y-138704486D01*
X176289597Y-138708549D01*
X176288270Y-138706251D01*
X176235318Y-138726724D01*
X176166873Y-138712686D01*
X176160411Y-138708533D01*
X176160403Y-138708549D01*
X176153366Y-138704486D01*
X176153365Y-138704485D01*
X176090437Y-138668153D01*
X176022136Y-138628719D01*
X175918715Y-138601008D01*
X175875766Y-138589500D01*
X175724234Y-138589500D01*
X175577863Y-138628719D01*
X175497552Y-138675088D01*
X175446635Y-138704485D01*
X175446633Y-138704486D01*
X175439597Y-138708549D01*
X175438270Y-138706251D01*
X175385318Y-138726724D01*
X175316873Y-138712686D01*
X175310411Y-138708533D01*
X175310403Y-138708549D01*
X175303366Y-138704486D01*
X175303365Y-138704485D01*
X175240437Y-138668153D01*
X175172136Y-138628719D01*
X175068715Y-138601008D01*
X175025766Y-138589500D01*
X174874234Y-138589500D01*
X174727865Y-138628719D01*
X174727864Y-138628719D01*
X174727862Y-138628720D01*
X174727861Y-138628720D01*
X174636500Y-138681468D01*
X174568600Y-138697941D01*
X174502573Y-138675088D01*
X174459382Y-138620167D01*
X174450500Y-138574081D01*
X174450500Y-137333916D01*
X181646500Y-137333916D01*
X181646500Y-137584083D01*
X181646501Y-137584099D01*
X181679153Y-137832118D01*
X181679154Y-137832123D01*
X181679155Y-137832129D01*
X181711530Y-137952956D01*
X181743905Y-138073782D01*
X181839642Y-138304912D01*
X181839647Y-138304922D01*
X181964734Y-138521580D01*
X182117033Y-138720060D01*
X182117039Y-138720067D01*
X182293932Y-138896960D01*
X182293939Y-138896966D01*
X182492419Y-139049265D01*
X182709077Y-139174352D01*
X182709087Y-139174357D01*
X182782540Y-139204782D01*
X182940216Y-139270094D01*
X183181871Y-139334845D01*
X183429910Y-139367500D01*
X183429917Y-139367500D01*
X183680083Y-139367500D01*
X183680090Y-139367500D01*
X183928129Y-139334845D01*
X184169784Y-139270094D01*
X184400919Y-139174354D01*
X184617581Y-139049265D01*
X184816062Y-138896965D01*
X184992965Y-138720062D01*
X185145265Y-138521581D01*
X185270354Y-138304919D01*
X185366094Y-138073784D01*
X185430845Y-137832129D01*
X185463500Y-137584090D01*
X185463500Y-137333910D01*
X185430845Y-137085871D01*
X185366094Y-136844216D01*
X185323403Y-136741152D01*
X185270357Y-136613087D01*
X185270352Y-136613078D01*
X185181123Y-136458527D01*
X185164651Y-136390631D01*
X185187503Y-136324604D01*
X185200824Y-136308856D01*
X188675470Y-132834212D01*
X188721614Y-132754288D01*
X188745500Y-132665143D01*
X188745500Y-132572856D01*
X188745500Y-131222057D01*
X188765185Y-131155018D01*
X188817989Y-131109263D01*
X188837407Y-131102282D01*
X189009784Y-131056094D01*
X189240919Y-130960354D01*
X189457581Y-130835265D01*
X189656062Y-130682965D01*
X189832965Y-130506062D01*
X189985265Y-130307581D01*
X190110354Y-130090919D01*
X190206094Y-129859784D01*
X190270845Y-129618129D01*
X190303500Y-129370090D01*
X190303500Y-129119910D01*
X190270845Y-128871871D01*
X190206094Y-128630216D01*
X190163403Y-128527152D01*
X190110357Y-128399087D01*
X190110352Y-128399077D01*
X189985265Y-128182419D01*
X189832966Y-127983939D01*
X189832960Y-127983932D01*
X189656067Y-127807039D01*
X189656060Y-127807033D01*
X189457580Y-127654734D01*
X189240922Y-127529647D01*
X189240912Y-127529642D01*
X189009782Y-127433905D01*
X188837407Y-127387718D01*
X188777746Y-127351353D01*
X188747217Y-127288506D01*
X188745500Y-127267943D01*
X188745500Y-118082057D01*
X188765185Y-118015018D01*
X188817989Y-117969263D01*
X188837407Y-117962282D01*
X189009784Y-117916094D01*
X189240919Y-117820354D01*
X189457581Y-117695265D01*
X189656062Y-117542965D01*
X189832965Y-117366062D01*
X189985265Y-117167581D01*
X190110354Y-116950919D01*
X190206094Y-116719784D01*
X190270845Y-116478129D01*
X190303500Y-116230090D01*
X190303500Y-115979910D01*
X190270845Y-115731871D01*
X190206094Y-115490216D01*
X190133811Y-115315711D01*
X190110357Y-115259087D01*
X190110352Y-115259077D01*
X189985265Y-115042419D01*
X189832966Y-114843939D01*
X189832960Y-114843932D01*
X189656067Y-114667039D01*
X189656060Y-114667033D01*
X189457580Y-114514734D01*
X189240922Y-114389647D01*
X189240912Y-114389642D01*
X189009784Y-114293906D01*
X188862406Y-114254416D01*
X188802746Y-114218051D01*
X188772217Y-114155204D01*
X188770500Y-114134641D01*
X188770500Y-112322057D01*
X188790185Y-112255018D01*
X188842989Y-112209263D01*
X188862407Y-112202282D01*
X188869569Y-112200363D01*
X189034784Y-112156094D01*
X189265919Y-112060354D01*
X189482581Y-111935265D01*
X189681062Y-111782965D01*
X189857965Y-111606062D01*
X190010265Y-111407581D01*
X190135354Y-111190919D01*
X190231094Y-110959784D01*
X190295845Y-110718129D01*
X190328500Y-110470090D01*
X190328500Y-110219910D01*
X190295845Y-109971871D01*
X190231094Y-109730216D01*
X190188403Y-109627152D01*
X190135357Y-109499087D01*
X190135352Y-109499077D01*
X190010265Y-109282419D01*
X189857966Y-109083939D01*
X189857960Y-109083932D01*
X189681067Y-108907039D01*
X189681060Y-108907033D01*
X189482580Y-108754734D01*
X189265922Y-108629647D01*
X189265912Y-108629642D01*
X189034782Y-108533905D01*
X188862407Y-108487718D01*
X188802746Y-108451353D01*
X188772217Y-108388506D01*
X188770500Y-108367943D01*
X188770500Y-99182057D01*
X188790185Y-99115018D01*
X188842989Y-99069263D01*
X188862407Y-99062282D01*
X189034784Y-99016094D01*
X189265919Y-98920354D01*
X189482581Y-98795265D01*
X189681062Y-98642965D01*
X189857965Y-98466062D01*
X190010265Y-98267581D01*
X190135354Y-98050919D01*
X190231094Y-97819784D01*
X190295845Y-97578129D01*
X190328500Y-97330090D01*
X190328500Y-97079910D01*
X190295845Y-96831871D01*
X190231094Y-96590216D01*
X190170650Y-96444293D01*
X190135357Y-96359087D01*
X190135352Y-96359077D01*
X190010265Y-96142419D01*
X189857966Y-95943939D01*
X189857960Y-95943932D01*
X189681067Y-95767039D01*
X189681060Y-95767033D01*
X189482580Y-95614734D01*
X189265922Y-95489647D01*
X189265912Y-95489642D01*
X189034782Y-95393905D01*
X188913956Y-95361530D01*
X188793129Y-95329155D01*
X188793123Y-95329154D01*
X188793118Y-95329153D01*
X188545099Y-95296501D01*
X188545096Y-95296500D01*
X188545090Y-95296500D01*
X188294910Y-95296500D01*
X188294904Y-95296500D01*
X188294900Y-95296501D01*
X188046881Y-95329153D01*
X188046874Y-95329154D01*
X188046871Y-95329155D01*
X187996973Y-95342525D01*
X187805217Y-95393905D01*
X187574087Y-95489642D01*
X187574077Y-95489647D01*
X187357419Y-95614734D01*
X187158939Y-95767033D01*
X187158932Y-95767039D01*
X186982039Y-95943932D01*
X186982033Y-95943939D01*
X186829734Y-96142419D01*
X186704647Y-96359077D01*
X186704642Y-96359087D01*
X186608905Y-96590217D01*
X186544156Y-96831868D01*
X186544153Y-96831881D01*
X186511501Y-97079900D01*
X186511500Y-97079916D01*
X186511500Y-97330083D01*
X186511501Y-97330099D01*
X186544153Y-97578118D01*
X186544154Y-97578123D01*
X186544155Y-97578129D01*
X186564701Y-97654809D01*
X186608905Y-97819782D01*
X186704642Y-98050912D01*
X186704647Y-98050922D01*
X186829734Y-98267580D01*
X186982033Y-98466060D01*
X186982039Y-98466067D01*
X187158932Y-98642960D01*
X187158939Y-98642966D01*
X187357419Y-98795265D01*
X187574077Y-98920352D01*
X187574087Y-98920357D01*
X187702152Y-98973403D01*
X187805216Y-99016094D01*
X187977593Y-99062282D01*
X188037254Y-99098647D01*
X188067783Y-99161494D01*
X188069500Y-99182057D01*
X188069500Y-108367943D01*
X188049815Y-108434982D01*
X187997011Y-108480737D01*
X187977593Y-108487718D01*
X187805217Y-108533905D01*
X187574087Y-108629642D01*
X187574077Y-108629647D01*
X187357419Y-108754734D01*
X187158939Y-108907033D01*
X187158932Y-108907039D01*
X186982039Y-109083932D01*
X186982033Y-109083939D01*
X186829734Y-109282419D01*
X186704647Y-109499077D01*
X186704642Y-109499087D01*
X186608905Y-109730217D01*
X186544156Y-109971868D01*
X186544153Y-109971881D01*
X186511501Y-110219900D01*
X186511500Y-110219916D01*
X186511500Y-110470083D01*
X186511501Y-110470099D01*
X186544153Y-110718118D01*
X186544154Y-110718123D01*
X186544155Y-110718129D01*
X186544156Y-110718131D01*
X186608905Y-110959782D01*
X186704642Y-111190912D01*
X186704647Y-111190922D01*
X186829734Y-111407580D01*
X186982033Y-111606060D01*
X186982039Y-111606067D01*
X187158932Y-111782960D01*
X187158939Y-111782966D01*
X187357419Y-111935265D01*
X187574077Y-112060352D01*
X187574087Y-112060357D01*
X187668623Y-112099515D01*
X187805216Y-112156094D01*
X187970431Y-112200363D01*
X187977593Y-112202282D01*
X188037254Y-112238647D01*
X188067783Y-112301494D01*
X188069500Y-112322057D01*
X188069500Y-114121244D01*
X188049815Y-114188283D01*
X187997011Y-114234038D01*
X187977594Y-114241019D01*
X187780215Y-114293906D01*
X187549087Y-114389642D01*
X187549077Y-114389647D01*
X187332419Y-114514734D01*
X187133939Y-114667033D01*
X187133932Y-114667039D01*
X186957039Y-114843932D01*
X186957033Y-114843939D01*
X186804734Y-115042419D01*
X186679647Y-115259077D01*
X186679642Y-115259087D01*
X186583905Y-115490217D01*
X186519156Y-115731868D01*
X186519153Y-115731881D01*
X186486501Y-115979900D01*
X186486500Y-115979916D01*
X186486500Y-116230083D01*
X186486501Y-116230099D01*
X186519153Y-116478118D01*
X186519154Y-116478123D01*
X186519155Y-116478129D01*
X186534106Y-116533927D01*
X186583905Y-116719782D01*
X186679642Y-116950912D01*
X186679647Y-116950922D01*
X186804734Y-117167580D01*
X186957033Y-117366060D01*
X186957039Y-117366067D01*
X187133932Y-117542960D01*
X187133939Y-117542966D01*
X187332419Y-117695265D01*
X187549077Y-117820352D01*
X187549087Y-117820357D01*
X187677152Y-117873403D01*
X187780216Y-117916094D01*
X187952593Y-117962282D01*
X188012254Y-117998647D01*
X188042783Y-118061494D01*
X188044500Y-118082057D01*
X188044500Y-127267943D01*
X188024815Y-127334982D01*
X187972011Y-127380737D01*
X187952593Y-127387718D01*
X187780217Y-127433905D01*
X187549087Y-127529642D01*
X187549077Y-127529647D01*
X187332419Y-127654734D01*
X187133939Y-127807033D01*
X187133932Y-127807039D01*
X186957039Y-127983932D01*
X186957033Y-127983939D01*
X186804734Y-128182419D01*
X186679647Y-128399077D01*
X186679642Y-128399087D01*
X186583905Y-128630217D01*
X186519156Y-128871868D01*
X186519153Y-128871881D01*
X186486501Y-129119900D01*
X186486500Y-129119916D01*
X186486500Y-129370083D01*
X186486501Y-129370099D01*
X186519153Y-129618118D01*
X186519154Y-129618123D01*
X186519155Y-129618129D01*
X186519156Y-129618131D01*
X186583905Y-129859782D01*
X186679642Y-130090912D01*
X186679647Y-130090922D01*
X186804734Y-130307580D01*
X186957033Y-130506060D01*
X186957039Y-130506067D01*
X187133932Y-130682960D01*
X187133939Y-130682966D01*
X187332419Y-130835265D01*
X187549077Y-130960352D01*
X187549087Y-130960357D01*
X187677152Y-131013403D01*
X187780216Y-131056094D01*
X187952593Y-131102282D01*
X188012254Y-131138647D01*
X188042783Y-131201494D01*
X188044500Y-131222057D01*
X188044500Y-132422455D01*
X188024815Y-132489494D01*
X188008181Y-132510136D01*
X184705149Y-135813168D01*
X184643826Y-135846653D01*
X184574134Y-135841669D01*
X184555468Y-135832874D01*
X184400922Y-135743647D01*
X184400912Y-135743642D01*
X184169782Y-135647905D01*
X184048956Y-135615530D01*
X183928129Y-135583155D01*
X183928123Y-135583154D01*
X183928118Y-135583153D01*
X183680099Y-135550501D01*
X183680096Y-135550500D01*
X183680090Y-135550500D01*
X183429910Y-135550500D01*
X183429904Y-135550500D01*
X183429900Y-135550501D01*
X183181881Y-135583153D01*
X183181874Y-135583154D01*
X183181871Y-135583155D01*
X183130800Y-135596839D01*
X182940217Y-135647905D01*
X182709087Y-135743642D01*
X182709077Y-135743647D01*
X182492419Y-135868734D01*
X182293939Y-136021033D01*
X182293932Y-136021039D01*
X182117039Y-136197932D01*
X182117033Y-136197939D01*
X181964734Y-136396419D01*
X181839647Y-136613077D01*
X181839642Y-136613087D01*
X181743905Y-136844217D01*
X181679156Y-137085868D01*
X181679153Y-137085881D01*
X181646501Y-137333900D01*
X181646500Y-137333916D01*
X174450500Y-137333916D01*
X174450500Y-135914144D01*
X174470185Y-135847105D01*
X174486819Y-135826463D01*
X177013863Y-133299419D01*
X177075186Y-133265934D01*
X177101544Y-133263100D01*
X177177472Y-133263100D01*
X177177475Y-133263100D01*
X177317485Y-133225584D01*
X177443015Y-133153109D01*
X177545509Y-133050615D01*
X177617984Y-132925085D01*
X177655500Y-132785075D01*
X177655500Y-132640125D01*
X177617984Y-132500115D01*
X177602801Y-132473818D01*
X177545511Y-132374588D01*
X177545506Y-132374582D01*
X177443017Y-132272093D01*
X177443011Y-132272088D01*
X177317488Y-132199617D01*
X177317489Y-132199617D01*
X177306006Y-132196540D01*
X177177475Y-132162100D01*
X177032525Y-132162100D01*
X176903993Y-132196540D01*
X176892511Y-132199617D01*
X176766988Y-132272088D01*
X176766982Y-132272093D01*
X176664493Y-132374582D01*
X176664488Y-132374588D01*
X176592017Y-132500111D01*
X176592016Y-132500115D01*
X176554500Y-132640125D01*
X176554500Y-132640127D01*
X176554500Y-132716056D01*
X176534815Y-132783095D01*
X176518181Y-132803737D01*
X173819531Y-135502386D01*
X173819527Y-135502391D01*
X173791753Y-135550499D01*
X173791753Y-135550500D01*
X173773386Y-135582311D01*
X173749500Y-135671456D01*
X173749500Y-138574081D01*
X173729815Y-138641120D01*
X173677011Y-138686875D01*
X173607853Y-138696819D01*
X173563500Y-138681468D01*
X173472138Y-138628720D01*
X173472135Y-138628719D01*
X173325766Y-138589500D01*
X173174234Y-138589500D01*
X173027865Y-138628719D01*
X173027864Y-138628719D01*
X173027862Y-138628720D01*
X173027861Y-138628720D01*
X172906300Y-138698904D01*
X172838400Y-138715377D01*
X172772373Y-138692524D01*
X172729182Y-138637603D01*
X172727918Y-138632427D01*
X172696052Y-138611134D01*
X172696043Y-138611129D01*
X172582310Y-138564020D01*
X172582300Y-138564017D01*
X172461559Y-138540000D01*
X172338441Y-138540000D01*
X172217699Y-138564017D01*
X172217689Y-138564020D01*
X172103959Y-138611128D01*
X172103948Y-138611134D01*
X172076564Y-138629431D01*
X172076564Y-138629432D01*
X172399999Y-138952867D01*
X172497655Y-138855211D01*
X172500337Y-138853746D01*
X172501927Y-138851138D01*
X172530799Y-138837112D01*
X172558978Y-138821726D01*
X172562025Y-138821943D01*
X172564774Y-138820609D01*
X172596645Y-138824419D01*
X172628670Y-138826710D01*
X172631116Y-138828541D01*
X172634149Y-138828904D01*
X172658894Y-138849335D01*
X172684604Y-138868581D01*
X172685672Y-138871444D01*
X172688027Y-138873389D01*
X172697799Y-138903959D01*
X172709021Y-138934045D01*
X172708652Y-138937908D01*
X172709302Y-138939941D01*
X172705112Y-138974985D01*
X172678195Y-139075442D01*
X172646102Y-139131030D01*
X172600000Y-139177132D01*
X172600000Y-139125218D01*
X172569552Y-139051709D01*
X172513291Y-138995448D01*
X172439782Y-138965000D01*
X172360218Y-138965000D01*
X172286709Y-138995448D01*
X172230448Y-139051709D01*
X172200000Y-139125218D01*
X172200000Y-139204782D01*
X172230448Y-139278291D01*
X172286709Y-139334552D01*
X172360218Y-139365000D01*
X172412131Y-139365000D01*
X172076563Y-139700566D01*
X171750500Y-139700566D01*
X171750500Y-139614026D01*
X171770185Y-139546987D01*
X171822989Y-139501232D01*
X171857363Y-139495504D01*
X172187868Y-139165000D01*
X171864432Y-138841564D01*
X171864431Y-138841564D01*
X171846134Y-138868948D01*
X171846130Y-138868956D01*
X171818137Y-138936538D01*
X171774296Y-138990941D01*
X171708002Y-139013006D01*
X171640302Y-138995727D01*
X171600474Y-138957975D01*
X171594117Y-138948462D01*
X171594111Y-138948454D01*
X171496545Y-138850888D01*
X171496541Y-138850885D01*
X171388577Y-138778745D01*
X171388576Y-138778744D01*
X171381820Y-138774230D01*
X171381804Y-138774221D01*
X171254332Y-138721421D01*
X171254322Y-138721418D01*
X171118995Y-138694500D01*
X171118993Y-138694500D01*
X170981007Y-138694500D01*
X170981005Y-138694500D01*
X170845677Y-138721418D01*
X170845667Y-138721421D01*
X170718195Y-138774221D01*
X170718182Y-138774228D01*
X170603458Y-138850885D01*
X170603454Y-138850888D01*
X170505888Y-138948454D01*
X170505885Y-138948458D01*
X170429228Y-139063182D01*
X170429221Y-139063195D01*
X170376421Y-139190667D01*
X170376418Y-139190677D01*
X170349500Y-139326004D01*
X170349500Y-139326007D01*
X170349500Y-140963993D01*
X170349500Y-140963995D01*
X170349499Y-140963995D01*
X109411500Y-140963995D01*
X109411500Y-137739325D01*
X123802800Y-137739325D01*
X123802800Y-137884275D01*
X123840316Y-138024285D01*
X123840317Y-138024288D01*
X123912788Y-138149811D01*
X123912790Y-138149813D01*
X123912791Y-138149815D01*
X124015285Y-138252309D01*
X124015286Y-138252310D01*
X124015288Y-138252311D01*
X124140811Y-138324782D01*
X124140812Y-138324782D01*
X124140815Y-138324784D01*
X124280825Y-138362300D01*
X124280828Y-138362300D01*
X124425772Y-138362300D01*
X124425775Y-138362300D01*
X124565785Y-138324784D01*
X124691315Y-138252309D01*
X124793809Y-138149815D01*
X124866284Y-138024285D01*
X124903800Y-137884275D01*
X124903800Y-137739325D01*
X124866284Y-137599315D01*
X124793809Y-137473785D01*
X124691315Y-137371291D01*
X124691313Y-137371290D01*
X124691311Y-137371288D01*
X124565788Y-137298817D01*
X124565789Y-137298817D01*
X124554306Y-137295740D01*
X124425775Y-137261300D01*
X124280825Y-137261300D01*
X124152293Y-137295740D01*
X124140811Y-137298817D01*
X124015288Y-137371288D01*
X124015282Y-137371293D01*
X123912793Y-137473782D01*
X123912788Y-137473788D01*
X123840317Y-137599311D01*
X123840316Y-137599315D01*
X123802800Y-137739325D01*
X109411500Y-137739325D01*
X109411500Y-133846325D01*
X126810600Y-133846325D01*
X126810600Y-133991275D01*
X126848116Y-134131285D01*
X126848117Y-134131288D01*
X126920588Y-134256811D01*
X126920590Y-134256813D01*
X126920591Y-134256815D01*
X127023085Y-134359309D01*
X127023086Y-134359310D01*
X127023088Y-134359311D01*
X127148611Y-134431782D01*
X127148612Y-134431782D01*
X127148615Y-134431784D01*
X127288625Y-134469300D01*
X127288628Y-134469300D01*
X127433572Y-134469300D01*
X127433575Y-134469300D01*
X127573585Y-134431784D01*
X127699115Y-134359309D01*
X127801609Y-134256815D01*
X127874084Y-134131285D01*
X127911600Y-133991275D01*
X127911600Y-133846325D01*
X127874084Y-133706315D01*
X127801609Y-133580785D01*
X127699115Y-133478291D01*
X127699113Y-133478290D01*
X127699111Y-133478288D01*
X127573588Y-133405817D01*
X127573589Y-133405817D01*
X127562106Y-133402740D01*
X127433575Y-133368300D01*
X127288625Y-133368300D01*
X127160093Y-133402740D01*
X127148611Y-133405817D01*
X127023088Y-133478288D01*
X127023082Y-133478293D01*
X126920593Y-133580782D01*
X126920588Y-133580788D01*
X126848117Y-133706311D01*
X126848116Y-133706315D01*
X126810600Y-133846325D01*
X109411500Y-133846325D01*
X109411500Y-132969925D01*
X164724100Y-132969925D01*
X164724100Y-133114875D01*
X164753765Y-133225584D01*
X164761617Y-133254888D01*
X164834088Y-133380411D01*
X164834090Y-133380413D01*
X164834091Y-133380415D01*
X164936585Y-133482909D01*
X164936586Y-133482910D01*
X164936588Y-133482911D01*
X165062111Y-133555382D01*
X165062112Y-133555382D01*
X165062115Y-133555384D01*
X165202125Y-133592900D01*
X165202128Y-133592900D01*
X165347072Y-133592900D01*
X165347075Y-133592900D01*
X165487085Y-133555384D01*
X165612615Y-133482909D01*
X165715109Y-133380415D01*
X165787584Y-133254885D01*
X165825100Y-133114875D01*
X165825100Y-132969925D01*
X165787584Y-132829915D01*
X165760552Y-132783095D01*
X165715111Y-132704388D01*
X165715106Y-132704382D01*
X165612617Y-132601893D01*
X165612611Y-132601888D01*
X165487088Y-132529417D01*
X165487089Y-132529417D01*
X165475606Y-132526340D01*
X165347075Y-132491900D01*
X165202125Y-132491900D01*
X165073593Y-132526340D01*
X165062111Y-132529417D01*
X164936588Y-132601888D01*
X164936582Y-132601893D01*
X164834093Y-132704382D01*
X164834088Y-132704388D01*
X164761617Y-132829911D01*
X164761616Y-132829915D01*
X164724100Y-132969925D01*
X109411500Y-132969925D01*
X109411500Y-131561325D01*
X168324700Y-131561325D01*
X168324700Y-131706275D01*
X168362216Y-131846285D01*
X168362217Y-131846288D01*
X168434688Y-131971811D01*
X168434690Y-131971813D01*
X168434691Y-131971815D01*
X168537185Y-132074309D01*
X168537186Y-132074310D01*
X168537188Y-132074311D01*
X168662711Y-132146782D01*
X168662712Y-132146782D01*
X168662715Y-132146784D01*
X168802725Y-132184300D01*
X168802728Y-132184300D01*
X168947672Y-132184300D01*
X168947675Y-132184300D01*
X169087685Y-132146784D01*
X169213215Y-132074309D01*
X169315709Y-131971815D01*
X169388184Y-131846285D01*
X169425700Y-131706275D01*
X169425700Y-131561325D01*
X169388184Y-131421315D01*
X169315709Y-131295785D01*
X169262019Y-131242095D01*
X169228534Y-131180772D01*
X169225700Y-131154414D01*
X169225700Y-126488644D01*
X169245385Y-126421605D01*
X169262019Y-126400963D01*
X169848257Y-125814725D01*
X181863600Y-125814725D01*
X181863600Y-125959675D01*
X181896467Y-126082334D01*
X181901117Y-126099688D01*
X181973588Y-126225211D01*
X181973590Y-126225213D01*
X181973591Y-126225215D01*
X182076085Y-126327709D01*
X182076086Y-126327710D01*
X182076088Y-126327711D01*
X182201611Y-126400182D01*
X182201612Y-126400182D01*
X182201615Y-126400184D01*
X182341625Y-126437700D01*
X182341628Y-126437700D01*
X182486572Y-126437700D01*
X182486575Y-126437700D01*
X182626585Y-126400184D01*
X182752115Y-126327709D01*
X182854609Y-126225215D01*
X182927084Y-126099685D01*
X182964600Y-125959675D01*
X182964600Y-125864997D01*
X182981213Y-125802997D01*
X183009914Y-125753288D01*
X183012346Y-125744212D01*
X183033800Y-125664144D01*
X183033800Y-122115286D01*
X183053485Y-122048247D01*
X183070119Y-122027605D01*
X183087424Y-122010300D01*
X183123809Y-121973915D01*
X183196284Y-121848385D01*
X183233800Y-121708375D01*
X183233800Y-121563425D01*
X183196284Y-121423415D01*
X183185613Y-121404933D01*
X183123811Y-121297888D01*
X183123806Y-121297882D01*
X183021317Y-121195393D01*
X183021311Y-121195388D01*
X182895788Y-121122917D01*
X182895789Y-121122917D01*
X182884306Y-121119840D01*
X182755775Y-121085400D01*
X182610825Y-121085400D01*
X182482293Y-121119840D01*
X182470811Y-121122917D01*
X182345288Y-121195388D01*
X182345282Y-121195393D01*
X182242793Y-121297882D01*
X182242788Y-121297888D01*
X182170317Y-121423411D01*
X182170316Y-121423415D01*
X182132800Y-121563425D01*
X182132800Y-121708375D01*
X182170316Y-121848385D01*
X182170317Y-121848388D01*
X182242788Y-121973911D01*
X182242793Y-121973917D01*
X182296481Y-122027605D01*
X182329966Y-122088928D01*
X182332800Y-122115286D01*
X182332800Y-125243916D01*
X182313115Y-125310955D01*
X182260311Y-125356710D01*
X182240895Y-125363690D01*
X182201618Y-125374214D01*
X182201611Y-125374217D01*
X182076088Y-125446688D01*
X182076082Y-125446693D01*
X181973593Y-125549182D01*
X181973588Y-125549188D01*
X181901117Y-125674711D01*
X181901116Y-125674715D01*
X181863600Y-125814725D01*
X169848257Y-125814725D01*
X171357763Y-124305219D01*
X171419086Y-124271734D01*
X171445444Y-124268900D01*
X171521372Y-124268900D01*
X171521375Y-124268900D01*
X171661385Y-124231384D01*
X171786915Y-124158909D01*
X171889409Y-124056415D01*
X171961884Y-123930885D01*
X171999400Y-123790875D01*
X171999400Y-123645925D01*
X171961884Y-123505915D01*
X171956110Y-123495915D01*
X171889411Y-123380388D01*
X171889406Y-123380382D01*
X171786917Y-123277893D01*
X171786911Y-123277888D01*
X171661388Y-123205417D01*
X171661389Y-123205417D01*
X171649906Y-123202340D01*
X171521375Y-123167900D01*
X171376425Y-123167900D01*
X171247893Y-123202340D01*
X171236411Y-123205417D01*
X171110888Y-123277888D01*
X171110882Y-123277893D01*
X171008393Y-123380382D01*
X171008388Y-123380388D01*
X170935917Y-123505911D01*
X170931483Y-123522455D01*
X170898400Y-123645925D01*
X170898400Y-123645927D01*
X170898400Y-123721856D01*
X170878715Y-123788895D01*
X170862081Y-123809537D01*
X168594731Y-126076886D01*
X168594727Y-126076891D01*
X168579995Y-126102410D01*
X168579994Y-126102412D01*
X168564290Y-126129612D01*
X168548586Y-126156811D01*
X168524700Y-126245956D01*
X168524700Y-131154414D01*
X168505015Y-131221453D01*
X168488381Y-131242095D01*
X168434693Y-131295782D01*
X168434688Y-131295788D01*
X168362217Y-131421311D01*
X168362216Y-131421315D01*
X168324700Y-131561325D01*
X109411500Y-131561325D01*
X109411500Y-127602525D01*
X122878300Y-127602525D01*
X122878300Y-127747475D01*
X122915816Y-127887485D01*
X122915817Y-127887488D01*
X122988288Y-128013011D01*
X122988290Y-128013013D01*
X122988291Y-128013015D01*
X123090785Y-128115509D01*
X123090786Y-128115510D01*
X123090788Y-128115511D01*
X123216311Y-128187982D01*
X123216312Y-128187982D01*
X123216315Y-128187984D01*
X123356325Y-128225500D01*
X123356328Y-128225500D01*
X123501272Y-128225500D01*
X123501275Y-128225500D01*
X123641285Y-128187984D01*
X123766815Y-128115509D01*
X123820505Y-128061819D01*
X123881828Y-128028334D01*
X123908186Y-128025500D01*
X134816942Y-128025500D01*
X134816944Y-128025500D01*
X134906088Y-128001614D01*
X134916712Y-127995480D01*
X134986012Y-127955470D01*
X136825662Y-126115818D01*
X136886985Y-126082334D01*
X136913343Y-126079500D01*
X136989272Y-126079500D01*
X136989275Y-126079500D01*
X137129285Y-126041984D01*
X137254815Y-125969509D01*
X137357309Y-125867015D01*
X137429784Y-125741485D01*
X137467300Y-125601475D01*
X137467300Y-125456525D01*
X137429784Y-125316515D01*
X137357309Y-125190985D01*
X137254815Y-125088491D01*
X137254813Y-125088490D01*
X137254811Y-125088488D01*
X137129288Y-125016017D01*
X137129289Y-125016017D01*
X137117806Y-125012940D01*
X136989275Y-124978500D01*
X136844325Y-124978500D01*
X136715793Y-125012940D01*
X136704311Y-125016017D01*
X136578788Y-125088488D01*
X136578782Y-125088493D01*
X136476293Y-125190982D01*
X136476288Y-125190988D01*
X136403817Y-125316511D01*
X136403816Y-125316515D01*
X136366300Y-125456525D01*
X136366300Y-125456527D01*
X136366300Y-125532456D01*
X136346615Y-125599495D01*
X136329981Y-125620137D01*
X134661937Y-127288181D01*
X134600614Y-127321666D01*
X134574256Y-127324500D01*
X123908186Y-127324500D01*
X123841147Y-127304815D01*
X123820505Y-127288181D01*
X123766817Y-127234493D01*
X123766811Y-127234488D01*
X123641288Y-127162017D01*
X123641289Y-127162017D01*
X123629806Y-127158940D01*
X123501275Y-127124500D01*
X123356325Y-127124500D01*
X123227793Y-127158940D01*
X123216311Y-127162017D01*
X123090788Y-127234488D01*
X123090782Y-127234493D01*
X122988293Y-127336982D01*
X122988288Y-127336988D01*
X122915817Y-127462511D01*
X122915816Y-127462515D01*
X122878300Y-127602525D01*
X109411500Y-127602525D01*
X109411500Y-123039325D01*
X116278800Y-123039325D01*
X116278800Y-123184275D01*
X116305203Y-123282811D01*
X116316317Y-123324288D01*
X116388788Y-123449811D01*
X116388790Y-123449813D01*
X116388791Y-123449815D01*
X116491285Y-123552309D01*
X116491286Y-123552310D01*
X116491288Y-123552311D01*
X116616811Y-123624782D01*
X116616812Y-123624782D01*
X116616815Y-123624784D01*
X116756825Y-123662300D01*
X116756828Y-123662300D01*
X116901772Y-123662300D01*
X116901775Y-123662300D01*
X117041785Y-123624784D01*
X117167315Y-123552309D01*
X117269809Y-123449815D01*
X117342284Y-123324285D01*
X117379800Y-123184275D01*
X117379800Y-123039325D01*
X117342284Y-122899315D01*
X117326702Y-122872327D01*
X117269811Y-122773788D01*
X117269806Y-122773782D01*
X117167317Y-122671293D01*
X117167311Y-122671288D01*
X117041788Y-122598817D01*
X117041789Y-122598817D01*
X117030306Y-122595740D01*
X116901775Y-122561300D01*
X116756825Y-122561300D01*
X116628293Y-122595740D01*
X116616811Y-122598817D01*
X116491288Y-122671288D01*
X116491282Y-122671293D01*
X116388793Y-122773782D01*
X116388788Y-122773788D01*
X116316317Y-122899311D01*
X116316316Y-122899315D01*
X116278800Y-123039325D01*
X109411500Y-123039325D01*
X109411500Y-121387325D01*
X148691000Y-121387325D01*
X148691000Y-121532275D01*
X148717648Y-121631725D01*
X148728517Y-121672288D01*
X148800988Y-121797811D01*
X148800990Y-121797813D01*
X148800991Y-121797815D01*
X148903485Y-121900309D01*
X148903486Y-121900310D01*
X148903488Y-121900311D01*
X149029011Y-121972782D01*
X149029012Y-121972782D01*
X149029015Y-121972784D01*
X149169025Y-122010300D01*
X149169028Y-122010300D01*
X149313972Y-122010300D01*
X149313975Y-122010300D01*
X149453985Y-121972784D01*
X149579515Y-121900309D01*
X149682009Y-121797815D01*
X149754484Y-121672285D01*
X149792000Y-121532275D01*
X149792000Y-121387325D01*
X149754484Y-121247315D01*
X149719032Y-121185911D01*
X149682011Y-121121788D01*
X149682006Y-121121782D01*
X149579517Y-121019293D01*
X149579511Y-121019288D01*
X149453988Y-120946817D01*
X149453989Y-120946817D01*
X149442506Y-120943740D01*
X149313975Y-120909300D01*
X149169025Y-120909300D01*
X149040493Y-120943740D01*
X149029011Y-120946817D01*
X148903488Y-121019288D01*
X148903482Y-121019293D01*
X148800993Y-121121782D01*
X148800988Y-121121788D01*
X148728517Y-121247311D01*
X148728516Y-121247315D01*
X148691000Y-121387325D01*
X109411500Y-121387325D01*
X109411500Y-120296525D01*
X116687800Y-120296525D01*
X116687800Y-120441475D01*
X116706989Y-120513088D01*
X116725317Y-120581488D01*
X116797788Y-120707011D01*
X116797790Y-120707013D01*
X116797791Y-120707015D01*
X116900285Y-120809509D01*
X116900286Y-120809510D01*
X116900288Y-120809511D01*
X117025811Y-120881982D01*
X117025812Y-120881982D01*
X117025815Y-120881984D01*
X117165825Y-120919500D01*
X117165828Y-120919500D01*
X117310772Y-120919500D01*
X117310775Y-120919500D01*
X117450785Y-120881984D01*
X117576315Y-120809509D01*
X117610399Y-120775425D01*
X158374500Y-120775425D01*
X158374500Y-120920375D01*
X158412016Y-121060385D01*
X158412017Y-121060388D01*
X158484488Y-121185911D01*
X158484490Y-121185913D01*
X158484491Y-121185915D01*
X158586985Y-121288409D01*
X158586986Y-121288410D01*
X158586988Y-121288411D01*
X158712511Y-121360882D01*
X158712512Y-121360882D01*
X158712515Y-121360884D01*
X158852525Y-121398400D01*
X158852528Y-121398400D01*
X158997472Y-121398400D01*
X158997475Y-121398400D01*
X159137485Y-121360884D01*
X159263015Y-121288409D01*
X159365509Y-121185915D01*
X159437984Y-121060385D01*
X159475500Y-120920375D01*
X159475500Y-120775425D01*
X159437984Y-120635415D01*
X159433191Y-120627114D01*
X159365511Y-120509888D01*
X159365506Y-120509882D01*
X159263017Y-120407393D01*
X159263011Y-120407388D01*
X159137488Y-120334917D01*
X159137489Y-120334917D01*
X159125110Y-120331600D01*
X158997475Y-120297400D01*
X158852525Y-120297400D01*
X158724890Y-120331600D01*
X158712511Y-120334917D01*
X158586988Y-120407388D01*
X158586982Y-120407393D01*
X158484493Y-120509882D01*
X158484488Y-120509888D01*
X158412017Y-120635411D01*
X158411158Y-120638617D01*
X158374500Y-120775425D01*
X117610399Y-120775425D01*
X117678809Y-120707015D01*
X117751284Y-120581485D01*
X117788800Y-120441475D01*
X117788800Y-120296525D01*
X117751284Y-120156515D01*
X117737691Y-120132972D01*
X117678811Y-120030988D01*
X117678806Y-120030982D01*
X117576317Y-119928493D01*
X117576311Y-119928488D01*
X117450788Y-119856017D01*
X117450789Y-119856017D01*
X117420910Y-119848011D01*
X117310775Y-119818500D01*
X117165825Y-119818500D01*
X117055690Y-119848011D01*
X117025811Y-119856017D01*
X116900288Y-119928488D01*
X116900282Y-119928493D01*
X116797793Y-120030982D01*
X116797788Y-120030988D01*
X116725317Y-120156511D01*
X116725316Y-120156515D01*
X116687800Y-120296525D01*
X109411500Y-120296525D01*
X109411500Y-119501825D01*
X120922200Y-119501825D01*
X120922200Y-119646775D01*
X120952024Y-119758078D01*
X120959717Y-119786788D01*
X121032188Y-119912311D01*
X121032190Y-119912313D01*
X121032191Y-119912315D01*
X121134685Y-120014809D01*
X121134686Y-120014810D01*
X121134688Y-120014811D01*
X121260211Y-120087282D01*
X121260212Y-120087282D01*
X121260215Y-120087284D01*
X121400225Y-120124800D01*
X121400228Y-120124800D01*
X121545172Y-120124800D01*
X121545175Y-120124800D01*
X121685185Y-120087284D01*
X121810715Y-120014809D01*
X121913209Y-119912315D01*
X121985684Y-119786785D01*
X122006627Y-119708625D01*
X124277100Y-119708625D01*
X124277100Y-119853575D01*
X124314616Y-119993585D01*
X124314617Y-119993588D01*
X124387088Y-120119111D01*
X124387090Y-120119113D01*
X124387091Y-120119115D01*
X124489585Y-120221609D01*
X124489586Y-120221610D01*
X124489588Y-120221611D01*
X124615111Y-120294082D01*
X124615112Y-120294082D01*
X124615115Y-120294084D01*
X124755125Y-120331600D01*
X124755128Y-120331600D01*
X124900072Y-120331600D01*
X124900075Y-120331600D01*
X125040085Y-120294084D01*
X125165615Y-120221609D01*
X125268109Y-120119115D01*
X125340584Y-119993585D01*
X125342074Y-119988025D01*
X138837600Y-119988025D01*
X138837600Y-120132975D01*
X138863096Y-120228125D01*
X138875117Y-120272988D01*
X138947588Y-120398511D01*
X138947590Y-120398513D01*
X138947591Y-120398515D01*
X139050085Y-120501009D01*
X139050086Y-120501010D01*
X139050088Y-120501011D01*
X139175611Y-120573482D01*
X139175612Y-120573482D01*
X139175615Y-120573484D01*
X139315625Y-120611000D01*
X139315628Y-120611000D01*
X139460572Y-120611000D01*
X139460575Y-120611000D01*
X139600585Y-120573484D01*
X139726115Y-120501009D01*
X139828609Y-120398515D01*
X139901084Y-120272985D01*
X139938600Y-120132975D01*
X139938600Y-119988025D01*
X139901084Y-119848015D01*
X139884043Y-119818500D01*
X139828611Y-119722488D01*
X139828606Y-119722482D01*
X139726117Y-119619993D01*
X139726111Y-119619988D01*
X139600588Y-119547517D01*
X139600589Y-119547517D01*
X139589106Y-119544440D01*
X139460575Y-119510000D01*
X139315625Y-119510000D01*
X139187093Y-119544440D01*
X139175611Y-119547517D01*
X139050088Y-119619988D01*
X139050082Y-119619993D01*
X138947593Y-119722482D01*
X138947588Y-119722488D01*
X138875117Y-119848011D01*
X138875116Y-119848015D01*
X138837600Y-119988025D01*
X125342074Y-119988025D01*
X125352263Y-119950000D01*
X125352852Y-119947803D01*
X125362360Y-119912315D01*
X125378100Y-119853575D01*
X125378100Y-119708625D01*
X125340584Y-119568615D01*
X125328402Y-119547516D01*
X125268111Y-119443088D01*
X125268106Y-119443082D01*
X125165617Y-119340593D01*
X125165611Y-119340588D01*
X125040088Y-119268117D01*
X125040089Y-119268117D01*
X125028606Y-119265040D01*
X124900075Y-119230600D01*
X124755125Y-119230600D01*
X124626593Y-119265040D01*
X124615111Y-119268117D01*
X124489588Y-119340588D01*
X124489582Y-119340593D01*
X124387093Y-119443082D01*
X124387088Y-119443088D01*
X124314617Y-119568611D01*
X124314616Y-119568615D01*
X124277100Y-119708625D01*
X122006627Y-119708625D01*
X122023200Y-119646775D01*
X122023200Y-119501825D01*
X121985684Y-119361815D01*
X121973431Y-119340593D01*
X121913211Y-119236288D01*
X121913206Y-119236282D01*
X121810717Y-119133793D01*
X121810711Y-119133788D01*
X121685188Y-119061317D01*
X121685189Y-119061317D01*
X121670145Y-119057286D01*
X121545175Y-119023800D01*
X121400225Y-119023800D01*
X121275255Y-119057286D01*
X121260211Y-119061317D01*
X121134688Y-119133788D01*
X121134682Y-119133793D01*
X121032193Y-119236282D01*
X121032188Y-119236288D01*
X120959717Y-119361811D01*
X120959716Y-119361815D01*
X120922200Y-119501825D01*
X109411500Y-119501825D01*
X109411500Y-110530725D01*
X135007300Y-110530725D01*
X135007300Y-110675675D01*
X135034944Y-110778841D01*
X135044817Y-110815688D01*
X135117288Y-110941211D01*
X135117290Y-110941213D01*
X135117291Y-110941215D01*
X135219785Y-111043709D01*
X135219786Y-111043710D01*
X135219788Y-111043711D01*
X135345311Y-111116182D01*
X135345312Y-111116182D01*
X135345315Y-111116184D01*
X135485325Y-111153700D01*
X135485328Y-111153700D01*
X135630272Y-111153700D01*
X135630275Y-111153700D01*
X135770285Y-111116184D01*
X135895815Y-111043709D01*
X135998309Y-110941215D01*
X136070784Y-110815685D01*
X136108300Y-110675675D01*
X136108300Y-110530725D01*
X136070784Y-110390715D01*
X135998309Y-110265185D01*
X135895815Y-110162691D01*
X135895813Y-110162690D01*
X135895811Y-110162688D01*
X135770288Y-110090217D01*
X135770289Y-110090217D01*
X135758806Y-110087140D01*
X135630275Y-110052700D01*
X135485325Y-110052700D01*
X135356793Y-110087140D01*
X135345311Y-110090217D01*
X135219788Y-110162688D01*
X135219782Y-110162693D01*
X135117293Y-110265182D01*
X135117288Y-110265188D01*
X135044817Y-110390711D01*
X135044816Y-110390715D01*
X135007300Y-110530725D01*
X109411500Y-110530725D01*
X109411500Y-104815525D01*
X119443900Y-104815525D01*
X119443900Y-104960475D01*
X119477152Y-105084572D01*
X119481417Y-105100488D01*
X119553888Y-105226011D01*
X119553890Y-105226013D01*
X119553891Y-105226015D01*
X119656385Y-105328509D01*
X119656386Y-105328510D01*
X119656388Y-105328511D01*
X119781911Y-105400982D01*
X119781912Y-105400982D01*
X119781915Y-105400984D01*
X119921925Y-105438500D01*
X119921928Y-105438500D01*
X120066872Y-105438500D01*
X120066875Y-105438500D01*
X120206885Y-105400984D01*
X120332415Y-105328509D01*
X120434909Y-105226015D01*
X120507384Y-105100485D01*
X120544900Y-104960475D01*
X120544900Y-104815525D01*
X120507384Y-104675515D01*
X120506558Y-104674085D01*
X120434911Y-104549988D01*
X120434906Y-104549982D01*
X120332417Y-104447493D01*
X120332411Y-104447488D01*
X120206888Y-104375017D01*
X120206889Y-104375017D01*
X120195406Y-104371940D01*
X120066875Y-104337500D01*
X119921925Y-104337500D01*
X119793393Y-104371940D01*
X119781911Y-104375017D01*
X119656388Y-104447488D01*
X119656382Y-104447493D01*
X119553893Y-104549982D01*
X119553888Y-104549988D01*
X119481417Y-104675511D01*
X119481416Y-104675515D01*
X119443900Y-104815525D01*
X109411500Y-104815525D01*
X109411500Y-99751125D01*
X126274500Y-99751125D01*
X126274500Y-99896075D01*
X126305451Y-100011585D01*
X126312017Y-100036088D01*
X126384488Y-100161611D01*
X126384490Y-100161613D01*
X126384491Y-100161615D01*
X126486985Y-100264109D01*
X126486986Y-100264110D01*
X126486988Y-100264111D01*
X126612511Y-100336582D01*
X126612512Y-100336582D01*
X126612515Y-100336584D01*
X126752525Y-100374100D01*
X126752528Y-100374100D01*
X126897472Y-100374100D01*
X126897475Y-100374100D01*
X127037485Y-100336584D01*
X127163015Y-100264109D01*
X127265509Y-100161615D01*
X127337984Y-100036085D01*
X127375500Y-99896075D01*
X127375500Y-99751125D01*
X127337984Y-99611115D01*
X127265509Y-99485585D01*
X127163015Y-99383091D01*
X127163013Y-99383090D01*
X127163011Y-99383088D01*
X127037488Y-99310617D01*
X127037489Y-99310617D01*
X127026006Y-99307540D01*
X126897475Y-99273100D01*
X126752525Y-99273100D01*
X126623993Y-99307540D01*
X126612511Y-99310617D01*
X126486988Y-99383088D01*
X126486982Y-99383093D01*
X126384493Y-99485582D01*
X126384488Y-99485588D01*
X126312017Y-99611111D01*
X126312016Y-99611115D01*
X126274500Y-99751125D01*
X109411500Y-99751125D01*
X109411500Y-95342525D01*
X114519600Y-95342525D01*
X114519600Y-95487475D01*
X114554222Y-95616685D01*
X114557117Y-95627488D01*
X114629588Y-95753011D01*
X114629590Y-95753013D01*
X114629591Y-95753015D01*
X114732085Y-95855509D01*
X114732086Y-95855510D01*
X114732088Y-95855511D01*
X114857611Y-95927982D01*
X114857612Y-95927982D01*
X114857615Y-95927984D01*
X114997625Y-95965500D01*
X114997628Y-95965500D01*
X115142572Y-95965500D01*
X115142575Y-95965500D01*
X115282585Y-95927984D01*
X115358501Y-95884153D01*
X115426399Y-95867681D01*
X115492426Y-95890533D01*
X115535617Y-95945454D01*
X115544500Y-95991541D01*
X115544500Y-96023475D01*
X115581940Y-96163202D01*
X115582017Y-96163488D01*
X115654488Y-96289011D01*
X115654490Y-96289013D01*
X115654491Y-96289015D01*
X115756985Y-96391509D01*
X115756986Y-96391510D01*
X115756988Y-96391511D01*
X115882511Y-96463982D01*
X115882512Y-96463982D01*
X115882515Y-96463984D01*
X116022525Y-96501500D01*
X116022528Y-96501500D01*
X116167472Y-96501500D01*
X116167475Y-96501500D01*
X116307485Y-96463984D01*
X116433015Y-96391509D01*
X116535509Y-96289015D01*
X116607984Y-96163485D01*
X116645500Y-96023475D01*
X116645500Y-95878525D01*
X116607984Y-95738515D01*
X116604979Y-95733311D01*
X116535511Y-95612988D01*
X116535506Y-95612982D01*
X116433017Y-95510493D01*
X116433011Y-95510488D01*
X116307488Y-95438017D01*
X116307489Y-95438017D01*
X116296006Y-95434940D01*
X116167475Y-95400500D01*
X116022525Y-95400500D01*
X115893993Y-95434940D01*
X115882511Y-95438017D01*
X115806600Y-95481845D01*
X115738700Y-95498318D01*
X115672673Y-95475465D01*
X115629482Y-95420544D01*
X115620600Y-95374458D01*
X115620600Y-95342527D01*
X115620600Y-95342525D01*
X115583084Y-95202515D01*
X115511765Y-95078988D01*
X115510611Y-95076988D01*
X115510606Y-95076982D01*
X115408117Y-94974493D01*
X115408111Y-94974488D01*
X115282588Y-94902017D01*
X115282589Y-94902017D01*
X115271106Y-94898940D01*
X115142575Y-94864500D01*
X114997625Y-94864500D01*
X114869093Y-94898940D01*
X114857611Y-94902017D01*
X114732088Y-94974488D01*
X114732082Y-94974493D01*
X114629593Y-95076982D01*
X114629588Y-95076988D01*
X114557117Y-95202511D01*
X114557116Y-95202515D01*
X114519600Y-95342525D01*
X109411500Y-95342525D01*
X109411500Y-93612625D01*
X117341200Y-93612625D01*
X117341200Y-93757575D01*
X117374784Y-93882911D01*
X117378717Y-93897588D01*
X117451188Y-94023111D01*
X117451190Y-94023113D01*
X117451191Y-94023115D01*
X117553685Y-94125609D01*
X117553686Y-94125610D01*
X117553688Y-94125611D01*
X117679211Y-94198082D01*
X117679212Y-94198082D01*
X117679215Y-94198084D01*
X117819225Y-94235600D01*
X117819228Y-94235600D01*
X117964172Y-94235600D01*
X117964175Y-94235600D01*
X118104185Y-94198084D01*
X118229715Y-94125609D01*
X118332209Y-94023115D01*
X118404684Y-93897585D01*
X118442200Y-93757575D01*
X118442200Y-93612625D01*
X118404684Y-93472615D01*
X118404575Y-93472427D01*
X118332211Y-93347088D01*
X118332206Y-93347082D01*
X118229717Y-93244593D01*
X118229711Y-93244588D01*
X118104188Y-93172117D01*
X118104189Y-93172117D01*
X118092706Y-93169040D01*
X117964175Y-93134600D01*
X117819225Y-93134600D01*
X117690693Y-93169040D01*
X117679211Y-93172117D01*
X117553688Y-93244588D01*
X117553682Y-93244593D01*
X117451193Y-93347082D01*
X117451188Y-93347088D01*
X117378717Y-93472611D01*
X117378716Y-93472615D01*
X117341200Y-93612625D01*
X109411500Y-93612625D01*
X109411500Y-92352525D01*
X120641700Y-92352525D01*
X120641700Y-92497475D01*
X120679216Y-92637485D01*
X120679217Y-92637488D01*
X120751688Y-92763011D01*
X120751690Y-92763013D01*
X120751691Y-92763015D01*
X120854185Y-92865509D01*
X120854186Y-92865510D01*
X120854188Y-92865511D01*
X120979711Y-92937982D01*
X120979712Y-92937982D01*
X120979715Y-92937984D01*
X121119725Y-92975500D01*
X121119728Y-92975500D01*
X121264672Y-92975500D01*
X121264675Y-92975500D01*
X121404685Y-92937984D01*
X121530215Y-92865509D01*
X121632709Y-92763015D01*
X121705184Y-92637485D01*
X121742700Y-92497475D01*
X121742700Y-92352525D01*
X121705184Y-92212515D01*
X121685421Y-92178285D01*
X121632711Y-92086988D01*
X121632706Y-92086982D01*
X121530217Y-91984493D01*
X121530211Y-91984488D01*
X121404688Y-91912017D01*
X121404689Y-91912017D01*
X121393206Y-91908940D01*
X121264675Y-91874500D01*
X121119725Y-91874500D01*
X120991193Y-91908940D01*
X120979711Y-91912017D01*
X120854188Y-91984488D01*
X120854182Y-91984493D01*
X120751693Y-92086982D01*
X120751688Y-92086988D01*
X120679217Y-92212511D01*
X120679216Y-92212515D01*
X120641700Y-92352525D01*
X109411500Y-92352525D01*
X109411500Y-80801437D01*
X113231499Y-80801437D01*
X113270101Y-80995496D01*
X113270104Y-80995506D01*
X113345820Y-81178302D01*
X113345827Y-81178315D01*
X113455753Y-81342830D01*
X113455756Y-81342834D01*
X113595665Y-81482743D01*
X113595669Y-81482746D01*
X113760184Y-81592672D01*
X113760197Y-81592679D01*
X113942993Y-81668395D01*
X113942998Y-81668397D01*
X113943002Y-81668397D01*
X113943003Y-81668398D01*
X114137062Y-81707000D01*
X114137065Y-81707000D01*
X114334937Y-81707000D01*
X114465495Y-81681029D01*
X114529002Y-81668397D01*
X114711809Y-81592676D01*
X114876331Y-81482746D01*
X115016246Y-81342831D01*
X115126176Y-81178309D01*
X115201897Y-80995502D01*
X115220236Y-80903306D01*
X115240500Y-80801437D01*
X115240500Y-80603562D01*
X115201898Y-80409503D01*
X115201897Y-80409502D01*
X115201897Y-80409498D01*
X115201269Y-80407982D01*
X115126179Y-80226697D01*
X115126172Y-80226684D01*
X115016246Y-80062169D01*
X115016243Y-80062165D01*
X114876334Y-79922256D01*
X114876330Y-79922253D01*
X114711815Y-79812327D01*
X114711802Y-79812320D01*
X114529006Y-79736604D01*
X114528996Y-79736601D01*
X114334937Y-79698000D01*
X114334935Y-79698000D01*
X114137065Y-79698000D01*
X114137063Y-79698000D01*
X113943003Y-79736601D01*
X113942993Y-79736604D01*
X113760197Y-79812320D01*
X113760184Y-79812327D01*
X113595669Y-79922253D01*
X113595665Y-79922256D01*
X113455756Y-80062165D01*
X113455753Y-80062169D01*
X113345827Y-80226684D01*
X113345820Y-80226697D01*
X113270104Y-80409493D01*
X113270101Y-80409503D01*
X113231500Y-80603562D01*
X113231500Y-80603565D01*
X113231500Y-80801435D01*
X113231500Y-80801437D01*
X113231499Y-80801437D01*
X109411500Y-80801437D01*
X109411500Y-78058685D01*
X113182000Y-78058685D01*
X113182000Y-78266314D01*
X113222502Y-78469933D01*
X113222504Y-78469941D01*
X113301955Y-78661753D01*
X113391139Y-78795227D01*
X113391140Y-78795227D01*
X113792329Y-78394038D01*
X113835901Y-78469507D01*
X113928993Y-78562599D01*
X114004460Y-78606170D01*
X113603271Y-79007359D01*
X113736746Y-79096544D01*
X113928558Y-79175995D01*
X113928566Y-79175997D01*
X114132185Y-79216499D01*
X114132189Y-79216500D01*
X114339811Y-79216500D01*
X114339814Y-79216499D01*
X114543433Y-79175997D01*
X114543441Y-79175995D01*
X114735253Y-79096544D01*
X114868727Y-79007359D01*
X114467539Y-78606170D01*
X114543007Y-78562599D01*
X114636099Y-78469507D01*
X114679670Y-78394038D01*
X115080859Y-78795227D01*
X115170044Y-78661753D01*
X115249495Y-78469941D01*
X115249497Y-78469933D01*
X115289999Y-78266314D01*
X115290000Y-78266311D01*
X115290000Y-78058689D01*
X115289999Y-78058685D01*
X115249497Y-77855066D01*
X115249495Y-77855058D01*
X115170044Y-77663246D01*
X115080859Y-77529771D01*
X114679670Y-77930960D01*
X114636099Y-77855493D01*
X114543007Y-77762401D01*
X114467538Y-77718829D01*
X114868727Y-77317640D01*
X114868727Y-77317639D01*
X114735253Y-77228455D01*
X114543441Y-77149004D01*
X114543433Y-77149002D01*
X114339814Y-77108500D01*
X114132185Y-77108500D01*
X113928566Y-77149002D01*
X113928558Y-77149004D01*
X113736747Y-77228455D01*
X113736737Y-77228460D01*
X113603272Y-77317639D01*
X113603272Y-77317640D01*
X114004461Y-77718829D01*
X113928993Y-77762401D01*
X113835901Y-77855493D01*
X113792329Y-77930961D01*
X113391140Y-77529772D01*
X113391139Y-77529772D01*
X113301960Y-77663237D01*
X113301955Y-77663247D01*
X113222504Y-77855058D01*
X113222502Y-77855066D01*
X113182000Y-78058685D01*
X109411500Y-78058685D01*
X109411500Y-74843821D01*
X113231500Y-74843821D01*
X113231500Y-76401178D01*
X113246032Y-76474235D01*
X113246033Y-76474239D01*
X113246034Y-76474240D01*
X113301399Y-76557101D01*
X113384260Y-76612466D01*
X113384264Y-76612467D01*
X113457321Y-76626999D01*
X113457324Y-76627000D01*
X113457326Y-76627000D01*
X115014676Y-76627000D01*
X115014677Y-76626999D01*
X115087740Y-76612466D01*
X115170601Y-76557101D01*
X115225966Y-76474240D01*
X115240500Y-76401174D01*
X115240500Y-74843826D01*
X115240500Y-74843823D01*
X115240499Y-74843821D01*
X115225967Y-74770764D01*
X115225966Y-74770760D01*
X115170601Y-74687899D01*
X115087740Y-74632534D01*
X115087739Y-74632533D01*
X115087735Y-74632532D01*
X115014677Y-74618000D01*
X115014674Y-74618000D01*
X113457326Y-74618000D01*
X113457323Y-74618000D01*
X113384264Y-74632532D01*
X113384260Y-74632533D01*
X113301399Y-74687899D01*
X113246033Y-74770760D01*
X113246032Y-74770764D01*
X113231500Y-74843821D01*
X109411500Y-74843821D01*
X109411500Y-64438937D01*
X113381499Y-64438937D01*
X113420101Y-64632996D01*
X113420104Y-64633006D01*
X113495820Y-64815802D01*
X113495827Y-64815815D01*
X113605753Y-64980330D01*
X113605756Y-64980334D01*
X113745665Y-65120243D01*
X113745669Y-65120246D01*
X113910184Y-65230172D01*
X113910197Y-65230179D01*
X114092993Y-65305895D01*
X114092998Y-65305897D01*
X114093002Y-65305897D01*
X114093003Y-65305898D01*
X114287062Y-65344500D01*
X114287065Y-65344500D01*
X114484937Y-65344500D01*
X114615495Y-65318529D01*
X114679002Y-65305897D01*
X114861809Y-65230176D01*
X115026331Y-65120246D01*
X115166246Y-64980331D01*
X115276176Y-64815809D01*
X115351897Y-64633002D01*
X115390500Y-64438937D01*
X120656499Y-64438937D01*
X120695101Y-64632996D01*
X120695104Y-64633006D01*
X120770820Y-64815802D01*
X120770827Y-64815815D01*
X120880753Y-64980330D01*
X120880756Y-64980334D01*
X121020665Y-65120243D01*
X121020669Y-65120246D01*
X121185184Y-65230172D01*
X121185197Y-65230179D01*
X121367993Y-65305895D01*
X121367998Y-65305897D01*
X121368002Y-65305897D01*
X121368003Y-65305898D01*
X121562062Y-65344500D01*
X121562065Y-65344500D01*
X121759937Y-65344500D01*
X121890495Y-65318529D01*
X121954002Y-65305897D01*
X122136809Y-65230176D01*
X122301331Y-65120246D01*
X122441246Y-64980331D01*
X122551176Y-64815809D01*
X122626897Y-64633002D01*
X122665500Y-64438935D01*
X122665500Y-64241065D01*
X122665500Y-64241062D01*
X122626898Y-64047003D01*
X122626897Y-64047002D01*
X122626897Y-64046998D01*
X122626895Y-64046993D01*
X122551179Y-63864197D01*
X122551172Y-63864184D01*
X122441246Y-63699669D01*
X122441243Y-63699665D01*
X122301334Y-63559756D01*
X122301330Y-63559753D01*
X122136815Y-63449827D01*
X122136802Y-63449820D01*
X121954006Y-63374104D01*
X121953996Y-63374101D01*
X121759937Y-63335500D01*
X121759935Y-63335500D01*
X121562065Y-63335500D01*
X121562063Y-63335500D01*
X121368003Y-63374101D01*
X121367993Y-63374104D01*
X121185197Y-63449820D01*
X121185184Y-63449827D01*
X121020669Y-63559753D01*
X121020665Y-63559756D01*
X120880756Y-63699665D01*
X120880753Y-63699669D01*
X120770827Y-63864184D01*
X120770820Y-63864197D01*
X120695104Y-64046993D01*
X120695101Y-64047003D01*
X120656500Y-64241062D01*
X120656500Y-64241065D01*
X120656500Y-64438935D01*
X120656500Y-64438937D01*
X120656499Y-64438937D01*
X115390500Y-64438937D01*
X115390500Y-64438935D01*
X115390500Y-64241065D01*
X115390500Y-64241062D01*
X115351898Y-64047003D01*
X115351897Y-64047002D01*
X115351897Y-64046998D01*
X115351895Y-64046993D01*
X115276179Y-63864197D01*
X115276172Y-63864184D01*
X115166246Y-63699669D01*
X115166243Y-63699665D01*
X115026334Y-63559756D01*
X115026330Y-63559753D01*
X114861815Y-63449827D01*
X114861802Y-63449820D01*
X114679006Y-63374104D01*
X114678996Y-63374101D01*
X114484937Y-63335500D01*
X114484935Y-63335500D01*
X114287065Y-63335500D01*
X114287063Y-63335500D01*
X114093003Y-63374101D01*
X114092993Y-63374104D01*
X113910197Y-63449820D01*
X113910184Y-63449827D01*
X113745669Y-63559753D01*
X113745665Y-63559756D01*
X113605756Y-63699665D01*
X113605753Y-63699669D01*
X113495827Y-63864184D01*
X113495820Y-63864197D01*
X113420104Y-64046993D01*
X113420101Y-64047003D01*
X113381500Y-64241062D01*
X113381500Y-64241065D01*
X113381500Y-64438935D01*
X113381500Y-64438937D01*
X113381499Y-64438937D01*
X109411500Y-64438937D01*
X109411500Y-61696185D01*
X113332000Y-61696185D01*
X113332000Y-61903814D01*
X113372502Y-62107433D01*
X113372504Y-62107441D01*
X113451955Y-62299253D01*
X113541139Y-62432727D01*
X113541140Y-62432727D01*
X113942329Y-62031538D01*
X113985901Y-62107007D01*
X114078993Y-62200099D01*
X114154460Y-62243670D01*
X113753271Y-62644859D01*
X113886746Y-62734044D01*
X114078558Y-62813495D01*
X114078566Y-62813497D01*
X114282185Y-62853999D01*
X114282189Y-62854000D01*
X114489811Y-62854000D01*
X114489814Y-62853999D01*
X114693433Y-62813497D01*
X114693441Y-62813495D01*
X114885253Y-62734044D01*
X115018727Y-62644859D01*
X114617539Y-62243670D01*
X114693007Y-62200099D01*
X114786099Y-62107007D01*
X114829670Y-62031538D01*
X115230859Y-62432727D01*
X115320044Y-62299253D01*
X115399495Y-62107441D01*
X115399497Y-62107433D01*
X115439999Y-61903814D01*
X115440000Y-61903811D01*
X115440000Y-61696189D01*
X115439999Y-61696185D01*
X120607000Y-61696185D01*
X120607000Y-61903814D01*
X120647502Y-62107433D01*
X120647504Y-62107441D01*
X120726955Y-62299253D01*
X120816139Y-62432727D01*
X120816140Y-62432727D01*
X121217329Y-62031538D01*
X121260901Y-62107007D01*
X121353993Y-62200099D01*
X121429460Y-62243670D01*
X121028271Y-62644859D01*
X121161746Y-62734044D01*
X121353558Y-62813495D01*
X121353566Y-62813497D01*
X121557185Y-62853999D01*
X121557189Y-62854000D01*
X121764811Y-62854000D01*
X121764814Y-62853999D01*
X121968433Y-62813497D01*
X121968441Y-62813495D01*
X122160253Y-62734044D01*
X122293727Y-62644859D01*
X121892539Y-62243670D01*
X121968007Y-62200099D01*
X122061099Y-62107007D01*
X122104670Y-62031538D01*
X122505859Y-62432727D01*
X122595044Y-62299253D01*
X122674495Y-62107441D01*
X122674497Y-62107433D01*
X122714999Y-61903814D01*
X122715000Y-61903811D01*
X122715000Y-61696189D01*
X122714999Y-61696185D01*
X122674497Y-61492566D01*
X122674495Y-61492558D01*
X122595044Y-61300746D01*
X122505859Y-61167271D01*
X122104670Y-61568460D01*
X122061099Y-61492993D01*
X121968007Y-61399901D01*
X121892538Y-61356329D01*
X122293727Y-60955140D01*
X122293727Y-60955139D01*
X122160253Y-60865955D01*
X121968441Y-60786504D01*
X121968433Y-60786502D01*
X121764814Y-60746000D01*
X121557185Y-60746000D01*
X121353566Y-60786502D01*
X121353558Y-60786504D01*
X121161747Y-60865955D01*
X121161737Y-60865960D01*
X121028272Y-60955139D01*
X121028272Y-60955140D01*
X121429461Y-61356329D01*
X121353993Y-61399901D01*
X121260901Y-61492993D01*
X121217329Y-61568461D01*
X120816140Y-61167272D01*
X120816139Y-61167272D01*
X120726960Y-61300737D01*
X120726955Y-61300747D01*
X120647504Y-61492558D01*
X120647502Y-61492566D01*
X120607000Y-61696185D01*
X115439999Y-61696185D01*
X115399497Y-61492566D01*
X115399495Y-61492558D01*
X115320044Y-61300746D01*
X115230859Y-61167271D01*
X114829670Y-61568460D01*
X114786099Y-61492993D01*
X114693007Y-61399901D01*
X114617538Y-61356329D01*
X115018727Y-60955140D01*
X115018727Y-60955139D01*
X114885253Y-60865955D01*
X114693441Y-60786504D01*
X114693433Y-60786502D01*
X114489814Y-60746000D01*
X114282185Y-60746000D01*
X114078566Y-60786502D01*
X114078558Y-60786504D01*
X113886747Y-60865955D01*
X113886737Y-60865960D01*
X113753272Y-60955139D01*
X113753272Y-60955140D01*
X114154461Y-61356329D01*
X114078993Y-61399901D01*
X113985901Y-61492993D01*
X113942329Y-61568461D01*
X113541140Y-61167272D01*
X113541139Y-61167272D01*
X113451960Y-61300737D01*
X113451955Y-61300747D01*
X113372504Y-61492558D01*
X113372502Y-61492566D01*
X113332000Y-61696185D01*
X109411500Y-61696185D01*
X109411500Y-58481321D01*
X113381500Y-58481321D01*
X113381500Y-60038678D01*
X113396032Y-60111735D01*
X113396033Y-60111739D01*
X113396034Y-60111740D01*
X113451399Y-60194601D01*
X113534260Y-60249966D01*
X113534264Y-60249967D01*
X113607321Y-60264499D01*
X113607324Y-60264500D01*
X113607326Y-60264500D01*
X115164676Y-60264500D01*
X115164677Y-60264499D01*
X115237740Y-60249966D01*
X115320601Y-60194601D01*
X115375966Y-60111740D01*
X115390500Y-60038674D01*
X115390500Y-58481326D01*
X115390500Y-58481323D01*
X115390499Y-58481321D01*
X120656500Y-58481321D01*
X120656500Y-60038678D01*
X120671032Y-60111735D01*
X120671033Y-60111739D01*
X120671034Y-60111740D01*
X120726399Y-60194601D01*
X120809260Y-60249966D01*
X120809264Y-60249967D01*
X120882321Y-60264499D01*
X120882324Y-60264500D01*
X120882326Y-60264500D01*
X122439676Y-60264500D01*
X122439677Y-60264499D01*
X122512740Y-60249966D01*
X122595601Y-60194601D01*
X122650966Y-60111740D01*
X122665500Y-60038674D01*
X122665500Y-58481326D01*
X122665500Y-58481323D01*
X122665499Y-58481321D01*
X122650967Y-58408264D01*
X122650966Y-58408260D01*
X122595601Y-58325399D01*
X122512740Y-58270034D01*
X122512739Y-58270033D01*
X122512735Y-58270032D01*
X122439677Y-58255500D01*
X122439674Y-58255500D01*
X120882326Y-58255500D01*
X120882323Y-58255500D01*
X120809264Y-58270032D01*
X120809260Y-58270033D01*
X120726399Y-58325399D01*
X120671033Y-58408260D01*
X120671032Y-58408264D01*
X120656500Y-58481321D01*
X115390499Y-58481321D01*
X115375967Y-58408264D01*
X115375966Y-58408260D01*
X115320601Y-58325399D01*
X115237740Y-58270034D01*
X115237739Y-58270033D01*
X115237735Y-58270032D01*
X115164677Y-58255500D01*
X115164674Y-58255500D01*
X113607326Y-58255500D01*
X113607323Y-58255500D01*
X113534264Y-58270032D01*
X113534260Y-58270033D01*
X113451399Y-58325399D01*
X113396033Y-58408260D01*
X113396032Y-58408264D01*
X113381500Y-58481321D01*
X109411500Y-58481321D01*
X109411500Y-47063920D01*
X113655499Y-47063920D01*
X113684340Y-47208907D01*
X113684343Y-47208917D01*
X113740912Y-47345488D01*
X113740919Y-47345501D01*
X113823048Y-47468415D01*
X113823051Y-47468419D01*
X113927580Y-47572948D01*
X113927584Y-47572951D01*
X114050498Y-47655080D01*
X114050511Y-47655087D01*
X114187082Y-47711656D01*
X114187087Y-47711658D01*
X114187091Y-47711658D01*
X114187092Y-47711659D01*
X114332079Y-47740500D01*
X114332082Y-47740500D01*
X114479920Y-47740500D01*
X114577462Y-47721096D01*
X114624913Y-47711658D01*
X114761495Y-47655084D01*
X114884416Y-47572951D01*
X114988951Y-47468416D01*
X115071084Y-47345495D01*
X115127658Y-47208913D01*
X115156500Y-47063918D01*
X115156500Y-46916082D01*
X115156500Y-46916079D01*
X115127659Y-46771092D01*
X115127658Y-46771091D01*
X115127658Y-46771087D01*
X115127656Y-46771082D01*
X115071087Y-46634511D01*
X115071080Y-46634498D01*
X114988951Y-46511584D01*
X114988948Y-46511580D01*
X114884419Y-46407051D01*
X114884415Y-46407048D01*
X114761501Y-46324919D01*
X114761488Y-46324912D01*
X114624917Y-46268343D01*
X114624907Y-46268340D01*
X114479920Y-46239500D01*
X114479918Y-46239500D01*
X114332082Y-46239500D01*
X114332080Y-46239500D01*
X114187092Y-46268340D01*
X114187082Y-46268343D01*
X114050511Y-46324912D01*
X114050498Y-46324919D01*
X113927584Y-46407048D01*
X113927580Y-46407051D01*
X113823051Y-46511580D01*
X113823048Y-46511584D01*
X113740919Y-46634498D01*
X113740912Y-46634511D01*
X113684343Y-46771082D01*
X113684340Y-46771092D01*
X113655500Y-46916079D01*
X113655500Y-46916082D01*
X113655500Y-47063918D01*
X113655500Y-47063920D01*
X113655499Y-47063920D01*
X109411500Y-47063920D01*
X109411500Y-44358267D01*
X118320500Y-44358267D01*
X118320500Y-44541732D01*
X118349197Y-44722918D01*
X118405890Y-44897399D01*
X118489177Y-45060858D01*
X118597000Y-45209265D01*
X118597004Y-45209270D01*
X118726729Y-45338995D01*
X118726734Y-45338999D01*
X118856183Y-45433048D01*
X118875145Y-45446825D01*
X119038603Y-45530111D01*
X119213078Y-45586802D01*
X119281026Y-45597563D01*
X119394268Y-45615500D01*
X119394273Y-45615500D01*
X119577732Y-45615500D01*
X119678390Y-45599556D01*
X119758922Y-45586802D01*
X119933397Y-45530111D01*
X119943905Y-45524756D01*
X120012572Y-45511861D01*
X120077312Y-45538137D01*
X120087879Y-45547561D01*
X125543881Y-51003563D01*
X125577366Y-51064886D01*
X125580200Y-51091244D01*
X125580200Y-74494000D01*
X125560515Y-74561039D01*
X125507711Y-74606794D01*
X125456200Y-74618000D01*
X124096323Y-74618000D01*
X124023264Y-74632532D01*
X124023260Y-74632533D01*
X123940399Y-74687899D01*
X123885033Y-74770760D01*
X123885032Y-74770764D01*
X123870500Y-74843821D01*
X123870500Y-76401178D01*
X123885032Y-76474235D01*
X123885033Y-76474239D01*
X123885034Y-76474240D01*
X123940399Y-76557101D01*
X124023260Y-76612466D01*
X124037440Y-76615286D01*
X124099351Y-76647669D01*
X124133927Y-76708384D01*
X124130189Y-76778154D01*
X124100932Y-76824585D01*
X123499331Y-77426186D01*
X123499327Y-77426191D01*
X123453187Y-77506109D01*
X123453186Y-77506112D01*
X123429300Y-77595256D01*
X123429300Y-85610046D01*
X123409615Y-85677085D01*
X123367301Y-85717433D01*
X123236085Y-85793191D01*
X123236082Y-85793193D01*
X123133593Y-85895682D01*
X123133588Y-85895688D01*
X123061117Y-86021211D01*
X123061116Y-86021215D01*
X123023600Y-86161225D01*
X123023600Y-86306175D01*
X123061116Y-86446185D01*
X123061117Y-86446188D01*
X123133588Y-86571711D01*
X123133590Y-86571713D01*
X123133591Y-86571715D01*
X123236085Y-86674209D01*
X123361615Y-86746684D01*
X123475495Y-86777198D01*
X123535154Y-86813562D01*
X123565683Y-86876409D01*
X123567400Y-86896972D01*
X123567400Y-91981046D01*
X123573367Y-92003313D01*
X123573367Y-92003315D01*
X123573368Y-92003315D01*
X123573368Y-92003316D01*
X123582327Y-92036752D01*
X123591286Y-92070189D01*
X123591287Y-92070190D01*
X123637427Y-92150108D01*
X123637431Y-92150113D01*
X123912481Y-92425163D01*
X123945966Y-92486486D01*
X123948800Y-92512844D01*
X123948800Y-92588775D01*
X123978737Y-92700500D01*
X123986317Y-92728788D01*
X124058788Y-92854311D01*
X124058790Y-92854313D01*
X124058791Y-92854315D01*
X124161285Y-92956809D01*
X124277286Y-93023782D01*
X124325502Y-93074349D01*
X124338725Y-93142956D01*
X124312757Y-93207821D01*
X124302967Y-93218850D01*
X121358615Y-96163202D01*
X121297292Y-96196687D01*
X121235425Y-96192262D01*
X121235035Y-96193720D01*
X121227186Y-96191617D01*
X121227185Y-96191616D01*
X121087175Y-96154100D01*
X120942225Y-96154100D01*
X120813693Y-96188540D01*
X120802211Y-96191617D01*
X120676688Y-96264088D01*
X120676682Y-96264093D01*
X120574193Y-96366582D01*
X120574188Y-96366588D01*
X120501717Y-96492111D01*
X120501716Y-96492115D01*
X120464200Y-96632125D01*
X120464200Y-96777075D01*
X120490784Y-96876285D01*
X120501717Y-96917088D01*
X120574188Y-97042611D01*
X120574190Y-97042613D01*
X120574191Y-97042615D01*
X120676685Y-97145109D01*
X120676686Y-97145110D01*
X120676688Y-97145111D01*
X120802211Y-97217582D01*
X120802212Y-97217582D01*
X120802215Y-97217584D01*
X120942225Y-97255100D01*
X120942228Y-97255100D01*
X121087172Y-97255100D01*
X121087175Y-97255100D01*
X121227185Y-97217584D01*
X121352715Y-97145109D01*
X121455209Y-97042615D01*
X121455212Y-97042608D01*
X121460159Y-97036164D01*
X121462354Y-97037848D01*
X121497368Y-97002819D01*
X121528112Y-96985070D01*
X121731157Y-96782025D01*
X126201900Y-96782025D01*
X126201900Y-96926975D01*
X126232887Y-97042617D01*
X126239417Y-97066988D01*
X126311888Y-97192511D01*
X126311890Y-97192513D01*
X126311891Y-97192515D01*
X126414385Y-97295009D01*
X126414386Y-97295010D01*
X126414388Y-97295011D01*
X126539911Y-97367482D01*
X126539912Y-97367482D01*
X126539915Y-97367484D01*
X126679925Y-97405000D01*
X126679928Y-97405000D01*
X126824872Y-97405000D01*
X126824875Y-97405000D01*
X126964885Y-97367484D01*
X127090415Y-97295009D01*
X127192909Y-97192515D01*
X127265384Y-97066985D01*
X127302900Y-96926975D01*
X127302900Y-96851043D01*
X127311544Y-96821602D01*
X127318068Y-96791616D01*
X127321822Y-96786600D01*
X127322585Y-96784004D01*
X127339219Y-96763362D01*
X127343362Y-96759219D01*
X127404685Y-96725734D01*
X127431043Y-96722900D01*
X128368674Y-96722900D01*
X128435713Y-96742585D01*
X128481468Y-96795389D01*
X128491412Y-96864547D01*
X128476062Y-96908897D01*
X128422416Y-97001815D01*
X128384900Y-97141825D01*
X128384900Y-97286775D01*
X128414645Y-97397782D01*
X128422417Y-97426788D01*
X128494888Y-97552311D01*
X128494890Y-97552313D01*
X128494891Y-97552315D01*
X128597385Y-97654809D01*
X128597386Y-97654810D01*
X128597388Y-97654811D01*
X128722911Y-97727282D01*
X128722912Y-97727282D01*
X128722915Y-97727284D01*
X128862925Y-97764800D01*
X128938856Y-97764800D01*
X129005895Y-97784485D01*
X129026537Y-97801119D01*
X139382381Y-108156963D01*
X139415866Y-108218286D01*
X139418700Y-108244644D01*
X139418700Y-116127014D01*
X139399015Y-116194053D01*
X139382381Y-116214695D01*
X139328693Y-116268382D01*
X139328688Y-116268388D01*
X139256217Y-116393911D01*
X139256216Y-116393915D01*
X139218700Y-116533925D01*
X139218700Y-116678875D01*
X139229662Y-116719784D01*
X139256217Y-116818888D01*
X139328688Y-116944411D01*
X139328690Y-116944413D01*
X139328691Y-116944415D01*
X139431185Y-117046909D01*
X139431186Y-117046910D01*
X139431188Y-117046911D01*
X139556711Y-117119382D01*
X139556712Y-117119382D01*
X139556715Y-117119384D01*
X139696725Y-117156900D01*
X139696728Y-117156900D01*
X139841672Y-117156900D01*
X139841675Y-117156900D01*
X139981685Y-117119384D01*
X140107215Y-117046909D01*
X140209709Y-116944415D01*
X140282184Y-116818885D01*
X140319700Y-116678875D01*
X140319700Y-116533925D01*
X140282184Y-116393915D01*
X140209709Y-116268385D01*
X140156019Y-116214695D01*
X140122534Y-116153372D01*
X140119700Y-116127014D01*
X140119700Y-108001958D01*
X140119700Y-108001956D01*
X140095814Y-107912812D01*
X140053132Y-107838886D01*
X140053131Y-107838878D01*
X140053129Y-107838880D01*
X140049670Y-107832888D01*
X140049666Y-107832883D01*
X136479708Y-104262925D01*
X147364200Y-104262925D01*
X147364200Y-104407875D01*
X147388649Y-104499117D01*
X147401717Y-104547888D01*
X147474188Y-104673411D01*
X147474190Y-104673413D01*
X147474191Y-104673415D01*
X147576685Y-104775909D01*
X147576686Y-104775910D01*
X147576688Y-104775911D01*
X147702211Y-104848382D01*
X147702212Y-104848382D01*
X147702215Y-104848384D01*
X147842225Y-104885900D01*
X147918156Y-104885900D01*
X147985195Y-104905585D01*
X148005837Y-104922219D01*
X163664588Y-120580970D01*
X163734061Y-120621080D01*
X163744512Y-120627114D01*
X163833656Y-120651000D01*
X169250414Y-120651000D01*
X169317453Y-120670685D01*
X169338095Y-120687319D01*
X169391885Y-120741109D01*
X169391886Y-120741110D01*
X169391888Y-120741111D01*
X169517411Y-120813582D01*
X169517412Y-120813582D01*
X169517415Y-120813584D01*
X169657425Y-120851100D01*
X169657428Y-120851100D01*
X169802372Y-120851100D01*
X169802375Y-120851100D01*
X169942385Y-120813584D01*
X170067915Y-120741109D01*
X170170409Y-120638615D01*
X170242884Y-120513085D01*
X170272423Y-120402842D01*
X170308785Y-120343187D01*
X170371632Y-120312657D01*
X170441008Y-120320951D01*
X170479877Y-120347259D01*
X172764410Y-122631792D01*
X172796503Y-122687378D01*
X172805614Y-122721381D01*
X172805617Y-122721388D01*
X172878088Y-122846911D01*
X172878090Y-122846913D01*
X172878091Y-122846915D01*
X172980585Y-122949409D01*
X172980586Y-122949410D01*
X172980588Y-122949411D01*
X173106111Y-123021882D01*
X173106112Y-123021882D01*
X173106115Y-123021884D01*
X173246125Y-123059400D01*
X173246128Y-123059400D01*
X173391072Y-123059400D01*
X173391075Y-123059400D01*
X173531085Y-123021884D01*
X173643201Y-122957153D01*
X173711099Y-122940681D01*
X173777126Y-122963533D01*
X173820317Y-123018454D01*
X173829200Y-123064541D01*
X173829200Y-123139575D01*
X173853530Y-123230375D01*
X173866717Y-123279588D01*
X173939188Y-123405111D01*
X173939190Y-123405113D01*
X173939191Y-123405115D01*
X174041685Y-123507609D01*
X174041686Y-123507610D01*
X174041688Y-123507611D01*
X174167211Y-123580082D01*
X174167212Y-123580082D01*
X174167215Y-123580084D01*
X174307225Y-123617600D01*
X174307228Y-123617600D01*
X174452172Y-123617600D01*
X174452175Y-123617600D01*
X174592185Y-123580084D01*
X174717715Y-123507609D01*
X174820209Y-123405115D01*
X174892684Y-123279585D01*
X174930200Y-123139575D01*
X174930200Y-122994625D01*
X174897429Y-122872325D01*
X175773700Y-122872325D01*
X175773700Y-123017275D01*
X175803392Y-123128086D01*
X175811217Y-123157288D01*
X175883688Y-123282811D01*
X175883690Y-123282813D01*
X175883691Y-123282815D01*
X175986185Y-123385309D01*
X175986186Y-123385310D01*
X175986188Y-123385311D01*
X176111711Y-123457782D01*
X176111712Y-123457782D01*
X176111715Y-123457784D01*
X176251725Y-123495300D01*
X176251728Y-123495300D01*
X176396672Y-123495300D01*
X176396675Y-123495300D01*
X176536685Y-123457784D01*
X176662215Y-123385309D01*
X176764709Y-123282815D01*
X176837184Y-123157285D01*
X176874700Y-123017275D01*
X176874700Y-122872325D01*
X176837184Y-122732315D01*
X176835317Y-122729082D01*
X176764711Y-122606788D01*
X176764706Y-122606782D01*
X176711019Y-122553095D01*
X176677534Y-122491772D01*
X176674700Y-122465414D01*
X176674700Y-120079343D01*
X176694385Y-120012304D01*
X176711014Y-119991667D01*
X177844194Y-118858486D01*
X177905515Y-118825003D01*
X177975207Y-118829987D01*
X178031140Y-118871859D01*
X178049668Y-118917347D01*
X178051997Y-118916724D01*
X178054100Y-118924572D01*
X178054100Y-118924575D01*
X178091616Y-119064585D01*
X178091617Y-119064588D01*
X178164088Y-119190111D01*
X178164090Y-119190113D01*
X178164091Y-119190115D01*
X178266585Y-119292609D01*
X178266586Y-119292610D01*
X178266588Y-119292611D01*
X178392111Y-119365082D01*
X178392112Y-119365082D01*
X178392115Y-119365084D01*
X178532125Y-119402600D01*
X178532128Y-119402600D01*
X178677072Y-119402600D01*
X178677075Y-119402600D01*
X178817085Y-119365084D01*
X178942615Y-119292609D01*
X179045109Y-119190115D01*
X179117584Y-119064585D01*
X179155100Y-118924575D01*
X179155100Y-118779625D01*
X179117584Y-118639615D01*
X179078367Y-118571690D01*
X179045111Y-118514088D01*
X179045106Y-118514082D01*
X178942617Y-118411593D01*
X178942615Y-118411591D01*
X178839985Y-118352337D01*
X178791771Y-118301771D01*
X178778549Y-118233163D01*
X178794599Y-118182952D01*
X178856184Y-118076285D01*
X178893700Y-117936275D01*
X178893700Y-117791325D01*
X178856184Y-117651315D01*
X178812433Y-117575537D01*
X178783711Y-117525788D01*
X178783706Y-117525782D01*
X178681217Y-117423293D01*
X178681211Y-117423288D01*
X178555688Y-117350817D01*
X178555689Y-117350817D01*
X178544206Y-117347740D01*
X178415675Y-117313300D01*
X178270725Y-117313300D01*
X178142193Y-117347740D01*
X178130711Y-117350817D01*
X178005188Y-117423288D01*
X178005182Y-117423293D01*
X177902693Y-117525782D01*
X177902687Y-117525791D01*
X177873966Y-117575536D01*
X177823399Y-117623751D01*
X177754792Y-117636973D01*
X177689927Y-117611005D01*
X177659194Y-117575537D01*
X177652962Y-117564745D01*
X177642709Y-117546985D01*
X177540215Y-117444491D01*
X177540213Y-117444490D01*
X177540211Y-117444488D01*
X177414688Y-117372017D01*
X177414689Y-117372017D01*
X177392483Y-117366067D01*
X177274675Y-117334500D01*
X177129725Y-117334500D01*
X177011917Y-117366067D01*
X176989711Y-117372017D01*
X176864188Y-117444488D01*
X176864182Y-117444493D01*
X176761693Y-117546982D01*
X176761688Y-117546988D01*
X176689217Y-117672511D01*
X176689216Y-117672515D01*
X176651700Y-117812525D01*
X176651700Y-117957475D01*
X176683536Y-118076286D01*
X176689217Y-118097488D01*
X176761688Y-118223011D01*
X176761690Y-118223013D01*
X176761691Y-118223015D01*
X176864185Y-118325509D01*
X176864186Y-118325510D01*
X176864188Y-118325511D01*
X176989711Y-118397982D01*
X176989712Y-118397982D01*
X176989715Y-118397984D01*
X177037490Y-118410785D01*
X177097148Y-118447148D01*
X177127678Y-118509995D01*
X177119384Y-118579371D01*
X177093076Y-118618240D01*
X176043731Y-119667586D01*
X176043727Y-119667591D01*
X175997587Y-119747509D01*
X175997586Y-119747512D01*
X175973700Y-119836656D01*
X175973700Y-122465414D01*
X175954015Y-122532453D01*
X175937381Y-122553095D01*
X175883693Y-122606782D01*
X175883688Y-122606788D01*
X175811217Y-122732311D01*
X175811216Y-122732315D01*
X175773700Y-122872325D01*
X174897429Y-122872325D01*
X174892684Y-122854615D01*
X174888238Y-122846915D01*
X174820211Y-122729088D01*
X174820206Y-122729082D01*
X174813389Y-122722265D01*
X174779904Y-122660942D01*
X174784888Y-122591250D01*
X174826760Y-122535317D01*
X174868972Y-122514811D01*
X174919085Y-122501384D01*
X175044615Y-122428909D01*
X175147109Y-122326415D01*
X175219584Y-122200885D01*
X175257100Y-122060875D01*
X175257100Y-121915925D01*
X175219584Y-121775915D01*
X175147109Y-121650385D01*
X175044615Y-121547891D01*
X175044613Y-121547890D01*
X175044611Y-121547888D01*
X174919088Y-121475417D01*
X174919089Y-121475417D01*
X174907606Y-121472340D01*
X174779075Y-121437900D01*
X174634125Y-121437900D01*
X174634120Y-121437900D01*
X174611491Y-121443964D01*
X174541641Y-121442300D01*
X174483780Y-121403137D01*
X174456277Y-121338908D01*
X174455400Y-121324189D01*
X174455400Y-112386143D01*
X174475085Y-112319104D01*
X174527889Y-112273349D01*
X174597047Y-112263405D01*
X174660603Y-112292430D01*
X174667081Y-112298462D01*
X175638083Y-113269464D01*
X175671568Y-113330787D01*
X175666584Y-113400479D01*
X175624712Y-113456412D01*
X175612405Y-113464531D01*
X175572985Y-113487291D01*
X175572982Y-113487293D01*
X175470493Y-113589782D01*
X175470488Y-113589788D01*
X175398017Y-113715311D01*
X175398016Y-113715315D01*
X175360500Y-113855325D01*
X175360500Y-114000275D01*
X175369882Y-114035288D01*
X175398017Y-114140288D01*
X175470488Y-114265811D01*
X175470490Y-114265813D01*
X175470491Y-114265815D01*
X175572985Y-114368309D01*
X175572986Y-114368310D01*
X175572988Y-114368311D01*
X175698511Y-114440782D01*
X175698512Y-114440782D01*
X175698515Y-114440784D01*
X175838525Y-114478300D01*
X175838528Y-114478300D01*
X175983472Y-114478300D01*
X175983475Y-114478300D01*
X176123485Y-114440784D01*
X176249015Y-114368309D01*
X176351509Y-114265815D01*
X176374267Y-114226396D01*
X176424834Y-114178181D01*
X176493441Y-114164958D01*
X176558306Y-114190926D01*
X176569335Y-114200716D01*
X176841152Y-114472533D01*
X176874637Y-114533856D01*
X176869653Y-114603548D01*
X176851858Y-114635685D01*
X176848799Y-114639672D01*
X176848792Y-114639683D01*
X176848791Y-114639685D01*
X176776316Y-114765215D01*
X176738800Y-114905225D01*
X176738800Y-115050175D01*
X176761658Y-115135481D01*
X176776317Y-115190188D01*
X176848788Y-115315711D01*
X176848790Y-115315713D01*
X176848791Y-115315715D01*
X176951285Y-115418209D01*
X176951286Y-115418210D01*
X176951288Y-115418211D01*
X177076811Y-115490682D01*
X177076812Y-115490682D01*
X177076815Y-115490684D01*
X177216825Y-115528200D01*
X177216828Y-115528200D01*
X177361772Y-115528200D01*
X177361775Y-115528200D01*
X177501785Y-115490684D01*
X177627315Y-115418209D01*
X177729809Y-115315715D01*
X177802284Y-115190185D01*
X177839800Y-115050175D01*
X177839800Y-114905225D01*
X177802284Y-114765215D01*
X177771165Y-114711315D01*
X177741809Y-114660469D01*
X177725336Y-114592569D01*
X177748188Y-114526542D01*
X177803109Y-114483352D01*
X177817089Y-114478698D01*
X177907085Y-114454584D01*
X178032615Y-114382109D01*
X178135109Y-114279615D01*
X178207584Y-114154085D01*
X178245100Y-114014075D01*
X178245100Y-113869125D01*
X178207584Y-113729115D01*
X178199614Y-113715311D01*
X178135111Y-113603588D01*
X178135106Y-113603582D01*
X178032617Y-113501093D01*
X178032611Y-113501088D01*
X177907088Y-113428617D01*
X177907089Y-113428617D01*
X177895606Y-113425540D01*
X177767075Y-113391100D01*
X177622125Y-113391100D01*
X177493593Y-113425540D01*
X177482111Y-113428617D01*
X177356588Y-113501088D01*
X177356582Y-113501093D01*
X177254093Y-113603582D01*
X177254091Y-113603585D01*
X177228551Y-113647822D01*
X177177984Y-113696037D01*
X177109376Y-113709259D01*
X177044512Y-113683291D01*
X177033483Y-113673502D01*
X170885460Y-107525479D01*
X170805906Y-107445925D01*
X171720000Y-107445925D01*
X171720000Y-107590875D01*
X171757516Y-107730885D01*
X171757517Y-107730888D01*
X171829988Y-107856411D01*
X171829990Y-107856413D01*
X171829991Y-107856415D01*
X171932485Y-107958909D01*
X171932486Y-107958910D01*
X171932488Y-107958911D01*
X172058011Y-108031382D01*
X172058012Y-108031382D01*
X172058015Y-108031384D01*
X172198025Y-108068900D01*
X172198028Y-108068900D01*
X172342972Y-108068900D01*
X172342975Y-108068900D01*
X172482985Y-108031384D01*
X172608515Y-107958909D01*
X172711009Y-107856415D01*
X172783484Y-107730885D01*
X172821000Y-107590875D01*
X172821000Y-107445925D01*
X172783484Y-107305915D01*
X172711009Y-107180385D01*
X172608515Y-107077891D01*
X172608513Y-107077890D01*
X172608511Y-107077888D01*
X172482988Y-107005417D01*
X172482989Y-107005417D01*
X172471506Y-107002340D01*
X172342975Y-106967900D01*
X172198025Y-106967900D01*
X172069493Y-107002340D01*
X172058011Y-107005417D01*
X171932488Y-107077888D01*
X171932482Y-107077893D01*
X171829993Y-107180382D01*
X171829988Y-107180388D01*
X171757517Y-107305911D01*
X171757516Y-107305915D01*
X171720000Y-107445925D01*
X170805906Y-107445925D01*
X168922581Y-105562600D01*
X166788806Y-103428825D01*
X181944100Y-103428825D01*
X181944100Y-103573775D01*
X181981616Y-103713785D01*
X181981617Y-103713788D01*
X182054088Y-103839311D01*
X182054093Y-103839317D01*
X182107781Y-103893005D01*
X182141266Y-103954328D01*
X182144100Y-103980686D01*
X182144100Y-118968144D01*
X182154419Y-119006652D01*
X182154420Y-119006658D01*
X182167984Y-119057284D01*
X182167985Y-119057286D01*
X182214127Y-119137208D01*
X182214131Y-119137213D01*
X186143681Y-123066763D01*
X186177166Y-123128086D01*
X186180000Y-123154444D01*
X186180000Y-123230375D01*
X186217516Y-123370385D01*
X186217517Y-123370388D01*
X186289988Y-123495911D01*
X186289990Y-123495913D01*
X186289991Y-123495915D01*
X186392485Y-123598409D01*
X186392486Y-123598410D01*
X186392488Y-123598411D01*
X186518011Y-123670882D01*
X186518012Y-123670882D01*
X186518015Y-123670884D01*
X186658025Y-123708400D01*
X186658028Y-123708400D01*
X186802972Y-123708400D01*
X186802975Y-123708400D01*
X186942985Y-123670884D01*
X187068515Y-123598409D01*
X187171009Y-123495915D01*
X187243484Y-123370385D01*
X187281000Y-123230375D01*
X187281000Y-123085425D01*
X187243484Y-122945415D01*
X187201286Y-122872327D01*
X187171011Y-122819888D01*
X187171006Y-122819882D01*
X187068517Y-122717393D01*
X187068511Y-122717388D01*
X186942988Y-122644917D01*
X186942989Y-122644917D01*
X186931506Y-122641840D01*
X186802975Y-122607400D01*
X186802972Y-122607400D01*
X186727044Y-122607400D01*
X186660005Y-122587715D01*
X186639363Y-122571081D01*
X182881419Y-118813137D01*
X182847934Y-118751814D01*
X182845100Y-118725456D01*
X182845100Y-112875992D01*
X182864785Y-112808953D01*
X182917589Y-112763198D01*
X182986747Y-112753254D01*
X183050303Y-112782279D01*
X183076487Y-112813992D01*
X183125688Y-112899211D01*
X183125690Y-112899213D01*
X183125691Y-112899215D01*
X183228185Y-113001709D01*
X183228186Y-113001710D01*
X183228188Y-113001711D01*
X183353711Y-113074182D01*
X183353712Y-113074182D01*
X183353715Y-113074184D01*
X183493725Y-113111700D01*
X183493728Y-113111700D01*
X183638672Y-113111700D01*
X183638675Y-113111700D01*
X183778685Y-113074184D01*
X183904215Y-113001709D01*
X184006709Y-112899215D01*
X184079184Y-112773685D01*
X184116700Y-112633675D01*
X184116700Y-112488725D01*
X184079184Y-112348715D01*
X184050170Y-112298462D01*
X184006711Y-112223188D01*
X184006706Y-112223182D01*
X183904217Y-112120693D01*
X183904211Y-112120688D01*
X183778688Y-112048217D01*
X183778689Y-112048217D01*
X183767206Y-112045140D01*
X183638675Y-112010700D01*
X183493725Y-112010700D01*
X183365193Y-112045140D01*
X183353711Y-112048217D01*
X183228188Y-112120688D01*
X183228182Y-112120693D01*
X183125693Y-112223182D01*
X183125691Y-112223185D01*
X183076487Y-112308408D01*
X183025919Y-112356623D01*
X182957312Y-112369845D01*
X182892447Y-112343877D01*
X182851920Y-112286962D01*
X182845100Y-112246407D01*
X182845100Y-104939625D01*
X186209600Y-104939625D01*
X186209600Y-105084575D01*
X186247116Y-105224585D01*
X186247117Y-105224588D01*
X186319588Y-105350111D01*
X186319590Y-105350113D01*
X186319591Y-105350115D01*
X186422085Y-105452609D01*
X186422086Y-105452610D01*
X186422088Y-105452611D01*
X186547611Y-105525082D01*
X186547612Y-105525082D01*
X186547615Y-105525084D01*
X186687625Y-105562600D01*
X186687628Y-105562600D01*
X186832572Y-105562600D01*
X186832575Y-105562600D01*
X186972585Y-105525084D01*
X187098115Y-105452609D01*
X187200609Y-105350115D01*
X187273084Y-105224585D01*
X187310600Y-105084575D01*
X187310600Y-104939625D01*
X187273084Y-104799615D01*
X187259398Y-104775911D01*
X187200611Y-104674088D01*
X187200606Y-104674082D01*
X187098117Y-104571593D01*
X187098111Y-104571588D01*
X186972588Y-104499117D01*
X186972589Y-104499117D01*
X186961106Y-104496040D01*
X186832575Y-104461600D01*
X186687625Y-104461600D01*
X186559093Y-104496040D01*
X186547611Y-104499117D01*
X186422088Y-104571588D01*
X186422082Y-104571593D01*
X186319593Y-104674082D01*
X186319588Y-104674088D01*
X186247117Y-104799611D01*
X186247116Y-104799615D01*
X186209600Y-104939625D01*
X182845100Y-104939625D01*
X182845100Y-103980686D01*
X182864785Y-103913647D01*
X182881419Y-103893005D01*
X182935109Y-103839315D01*
X183007584Y-103713785D01*
X183045100Y-103573775D01*
X183045100Y-103428825D01*
X183007584Y-103288815D01*
X182935109Y-103163285D01*
X182832615Y-103060791D01*
X182832613Y-103060790D01*
X182832611Y-103060788D01*
X182707088Y-102988317D01*
X182707089Y-102988317D01*
X182695606Y-102985240D01*
X182567075Y-102950800D01*
X182422125Y-102950800D01*
X182293593Y-102985240D01*
X182282111Y-102988317D01*
X182156588Y-103060788D01*
X182156582Y-103060793D01*
X182054093Y-103163282D01*
X182054088Y-103163288D01*
X181981617Y-103288811D01*
X181981616Y-103288815D01*
X181944100Y-103428825D01*
X166788806Y-103428825D01*
X163086607Y-99726625D01*
X172994700Y-99726625D01*
X172994700Y-99871575D01*
X173032216Y-100011585D01*
X173032217Y-100011588D01*
X173104688Y-100137111D01*
X173104690Y-100137113D01*
X173104691Y-100137115D01*
X173207185Y-100239609D01*
X173207186Y-100239610D01*
X173207188Y-100239611D01*
X173332711Y-100312082D01*
X173332712Y-100312082D01*
X173332715Y-100312084D01*
X173472725Y-100349600D01*
X173472728Y-100349600D01*
X173617672Y-100349600D01*
X173617675Y-100349600D01*
X173757685Y-100312084D01*
X173883215Y-100239609D01*
X173985709Y-100137115D01*
X174058184Y-100011585D01*
X174095700Y-99871575D01*
X174095700Y-99726625D01*
X174058184Y-99586615D01*
X173999852Y-99485582D01*
X173985711Y-99461088D01*
X173985706Y-99461082D01*
X173883217Y-99358593D01*
X173883211Y-99358588D01*
X173757688Y-99286117D01*
X173757689Y-99286117D01*
X173746206Y-99283040D01*
X173617675Y-99248600D01*
X173472725Y-99248600D01*
X173344193Y-99283040D01*
X173332711Y-99286117D01*
X173207188Y-99358588D01*
X173207182Y-99358593D01*
X173104693Y-99461082D01*
X173104688Y-99461088D01*
X173032217Y-99586611D01*
X173032216Y-99586615D01*
X172994700Y-99726625D01*
X163086607Y-99726625D01*
X161711612Y-98351630D01*
X161711611Y-98351629D01*
X161711608Y-98351627D01*
X161631690Y-98305487D01*
X161631689Y-98305486D01*
X161631688Y-98305486D01*
X161542544Y-98281600D01*
X161542543Y-98281600D01*
X157039086Y-98281600D01*
X156972047Y-98261915D01*
X156951405Y-98245281D01*
X156897717Y-98191593D01*
X156897711Y-98191588D01*
X156772188Y-98119117D01*
X156772189Y-98119117D01*
X156760706Y-98116040D01*
X156632175Y-98081600D01*
X156487225Y-98081600D01*
X156358693Y-98116040D01*
X156347211Y-98119117D01*
X156221688Y-98191588D01*
X156221682Y-98191593D01*
X156119193Y-98294082D01*
X156119188Y-98294088D01*
X156046717Y-98419611D01*
X156046608Y-98420017D01*
X156009200Y-98559625D01*
X156009200Y-98704575D01*
X156033501Y-98795265D01*
X156046717Y-98844588D01*
X156119188Y-98970111D01*
X156119190Y-98970113D01*
X156119191Y-98970115D01*
X156221685Y-99072609D01*
X156221686Y-99072610D01*
X156221688Y-99072611D01*
X156347211Y-99145082D01*
X156347212Y-99145082D01*
X156347215Y-99145084D01*
X156487225Y-99182600D01*
X156487228Y-99182600D01*
X156632172Y-99182600D01*
X156632175Y-99182600D01*
X156772185Y-99145084D01*
X156897715Y-99072609D01*
X156951405Y-99018919D01*
X157012728Y-98985434D01*
X157039086Y-98982600D01*
X161299856Y-98982600D01*
X161366895Y-99002285D01*
X161387537Y-99018919D01*
X167274203Y-104905585D01*
X173086137Y-110717518D01*
X173119622Y-110778841D01*
X173114638Y-110848533D01*
X173072766Y-110904466D01*
X173060461Y-110912583D01*
X173040190Y-110924287D01*
X173040182Y-110924293D01*
X172937693Y-111026782D01*
X172937688Y-111026788D01*
X172865217Y-111152311D01*
X172865216Y-111152315D01*
X172827700Y-111292325D01*
X172827700Y-111437275D01*
X172865216Y-111577285D01*
X172865217Y-111577288D01*
X172937688Y-111702811D01*
X172937690Y-111702813D01*
X172937691Y-111702815D01*
X173040185Y-111805309D01*
X173040186Y-111805310D01*
X173040188Y-111805311D01*
X173165711Y-111877782D01*
X173165712Y-111877782D01*
X173165715Y-111877784D01*
X173305725Y-111915300D01*
X173381656Y-111915300D01*
X173448695Y-111934985D01*
X173469337Y-111951619D01*
X173718081Y-112200363D01*
X173751566Y-112261686D01*
X173754400Y-112288044D01*
X173754400Y-118171673D01*
X173734715Y-118238712D01*
X173681911Y-118284467D01*
X173612753Y-118294411D01*
X173549197Y-118265386D01*
X173529240Y-118243385D01*
X173516380Y-118225244D01*
X173509914Y-118201112D01*
X173463769Y-118121188D01*
X173398512Y-118055931D01*
X172021453Y-116678872D01*
X170478063Y-115135481D01*
X170444578Y-115074158D01*
X170449562Y-115004466D01*
X170491434Y-114948533D01*
X170552817Y-114925638D01*
X170552715Y-114924861D01*
X170556093Y-114924416D01*
X170556898Y-114924116D01*
X170558922Y-114924043D01*
X170560771Y-114923800D01*
X170560775Y-114923800D01*
X170700785Y-114886284D01*
X170826315Y-114813809D01*
X170928809Y-114711315D01*
X171001284Y-114585785D01*
X171038800Y-114445775D01*
X171038800Y-114300825D01*
X171001284Y-114160815D01*
X170998044Y-114155204D01*
X170928811Y-114035288D01*
X170928806Y-114035282D01*
X170826317Y-113932793D01*
X170826311Y-113932788D01*
X170700788Y-113860317D01*
X170700789Y-113860317D01*
X170682166Y-113855327D01*
X170560775Y-113822800D01*
X170415825Y-113822800D01*
X170294434Y-113855327D01*
X170275811Y-113860317D01*
X170150288Y-113932788D01*
X170150282Y-113932793D01*
X170047793Y-114035282D01*
X170047788Y-114035288D01*
X169975317Y-114160811D01*
X169937799Y-114300828D01*
X169936739Y-114308885D01*
X169934077Y-114308534D01*
X169918115Y-114362895D01*
X169865311Y-114408650D01*
X169796153Y-114418594D01*
X169732597Y-114389569D01*
X169726119Y-114383537D01*
X168532857Y-113190275D01*
X168499372Y-113128952D01*
X168504356Y-113059260D01*
X168513146Y-113040602D01*
X168560384Y-112958785D01*
X168597900Y-112818775D01*
X168597900Y-112673825D01*
X168560384Y-112533815D01*
X168554997Y-112524485D01*
X168487911Y-112408288D01*
X168487906Y-112408282D01*
X168385417Y-112305793D01*
X168385411Y-112305788D01*
X168270641Y-112239525D01*
X170624500Y-112239525D01*
X170624500Y-112384475D01*
X170630881Y-112408288D01*
X170662017Y-112524488D01*
X170734488Y-112650011D01*
X170734490Y-112650013D01*
X170734491Y-112650015D01*
X170836985Y-112752509D01*
X170836986Y-112752510D01*
X170836988Y-112752511D01*
X170962511Y-112824982D01*
X170962512Y-112824982D01*
X170962515Y-112824984D01*
X171102525Y-112862500D01*
X171102528Y-112862500D01*
X171247472Y-112862500D01*
X171247475Y-112862500D01*
X171387485Y-112824984D01*
X171513015Y-112752509D01*
X171615509Y-112650015D01*
X171687984Y-112524485D01*
X171725500Y-112384475D01*
X171725500Y-112239525D01*
X171687984Y-112099515D01*
X171665374Y-112060354D01*
X171615511Y-111973988D01*
X171615506Y-111973982D01*
X171513017Y-111871493D01*
X171513011Y-111871488D01*
X171387488Y-111799017D01*
X171387489Y-111799017D01*
X171376006Y-111795940D01*
X171247475Y-111761500D01*
X171102525Y-111761500D01*
X170973993Y-111795940D01*
X170962511Y-111799017D01*
X170836988Y-111871488D01*
X170836982Y-111871493D01*
X170734493Y-111973982D01*
X170734488Y-111973988D01*
X170662017Y-112099511D01*
X170662016Y-112099515D01*
X170624500Y-112239525D01*
X168270641Y-112239525D01*
X168259888Y-112233317D01*
X168259889Y-112233317D01*
X168248406Y-112230240D01*
X168119875Y-112195800D01*
X167974925Y-112195800D01*
X167846393Y-112230240D01*
X167834911Y-112233317D01*
X167709388Y-112305788D01*
X167709382Y-112305793D01*
X167606893Y-112408282D01*
X167606888Y-112408288D01*
X167534417Y-112533811D01*
X167534416Y-112533815D01*
X167496900Y-112673825D01*
X167496900Y-112818775D01*
X167518455Y-112899217D01*
X167534417Y-112958788D01*
X167606888Y-113084311D01*
X167606893Y-113084317D01*
X167660581Y-113138005D01*
X167694066Y-113199328D01*
X167696900Y-113225686D01*
X167696900Y-113246643D01*
X167720786Y-113335787D01*
X167720787Y-113335790D01*
X167766927Y-113415708D01*
X167766931Y-113415713D01*
X172796481Y-118445262D01*
X172829966Y-118506585D01*
X172832800Y-118532943D01*
X172832800Y-121224814D01*
X172825473Y-121249766D01*
X172821954Y-121275530D01*
X172814903Y-121285760D01*
X172813115Y-121291853D01*
X172803083Y-121305355D01*
X172799929Y-121309046D01*
X172742791Y-121366185D01*
X172725425Y-121396262D01*
X172718019Y-121404933D01*
X172697918Y-121418051D01*
X172680551Y-121434610D01*
X172669194Y-121436798D01*
X172659508Y-121443120D01*
X172635510Y-121443288D01*
X172611944Y-121447830D01*
X172601205Y-121443530D01*
X172589640Y-121443612D01*
X172569358Y-121430779D01*
X172547080Y-121421859D01*
X172536055Y-121412073D01*
X169896313Y-118772331D01*
X169896308Y-118772327D01*
X169816390Y-118726187D01*
X169816385Y-118726185D01*
X169806585Y-118723559D01*
X169746925Y-118687193D01*
X169716397Y-118624345D01*
X169718907Y-118571690D01*
X169731800Y-118523575D01*
X169731800Y-118378625D01*
X169694284Y-118238615D01*
X169691136Y-118233163D01*
X169621811Y-118113088D01*
X169621806Y-118113082D01*
X169519317Y-118010593D01*
X169519311Y-118010588D01*
X169393788Y-117938117D01*
X169393789Y-117938117D01*
X169382306Y-117935040D01*
X169253775Y-117900600D01*
X169108825Y-117900600D01*
X168980293Y-117935040D01*
X168968811Y-117938117D01*
X168843288Y-118010588D01*
X168843282Y-118010593D01*
X168740793Y-118113082D01*
X168740788Y-118113088D01*
X168729121Y-118133296D01*
X168678551Y-118181510D01*
X168609944Y-118194730D01*
X168545080Y-118168759D01*
X168534055Y-118158973D01*
X152472578Y-102097496D01*
X152439093Y-102036173D01*
X152440484Y-101977721D01*
X152477701Y-101838827D01*
X152480100Y-101829875D01*
X152480100Y-101684925D01*
X152442584Y-101544915D01*
X152399788Y-101470791D01*
X152370111Y-101419388D01*
X152370106Y-101419382D01*
X152267617Y-101316893D01*
X152267611Y-101316888D01*
X152142088Y-101244417D01*
X152142089Y-101244417D01*
X152130606Y-101241340D01*
X152002075Y-101206900D01*
X151857125Y-101206900D01*
X151728593Y-101241340D01*
X151717111Y-101244417D01*
X151591588Y-101316888D01*
X151591582Y-101316893D01*
X151489093Y-101419382D01*
X151489088Y-101419388D01*
X151416617Y-101544911D01*
X151416616Y-101544915D01*
X151379100Y-101684925D01*
X151379100Y-101829875D01*
X151381499Y-101838827D01*
X151416617Y-101969888D01*
X151489088Y-102095411D01*
X151489090Y-102095413D01*
X151489091Y-102095415D01*
X151591585Y-102197909D01*
X151591588Y-102197911D01*
X151598034Y-102202857D01*
X151597215Y-102203924D01*
X151636054Y-102242764D01*
X151649130Y-102265412D01*
X168716988Y-119333270D01*
X168716989Y-119333271D01*
X168716991Y-119333272D01*
X168729672Y-119340593D01*
X168766423Y-119361811D01*
X168766427Y-119361813D01*
X168766429Y-119361815D01*
X168766430Y-119361815D01*
X168772088Y-119365082D01*
X168796912Y-119379414D01*
X168886056Y-119403300D01*
X168886057Y-119403300D01*
X168978344Y-119403300D01*
X169484556Y-119403300D01*
X169513996Y-119411944D01*
X169543983Y-119418468D01*
X169548998Y-119422222D01*
X169551595Y-119422985D01*
X169572237Y-119439619D01*
X169683240Y-119550622D01*
X169716725Y-119611945D01*
X169711741Y-119681637D01*
X169669869Y-119737570D01*
X169627655Y-119758076D01*
X169547674Y-119779508D01*
X169517411Y-119787617D01*
X169391888Y-119860088D01*
X169391882Y-119860093D01*
X169338295Y-119913681D01*
X169276972Y-119947166D01*
X169250614Y-119950000D01*
X164076344Y-119950000D01*
X164009305Y-119930315D01*
X163988663Y-119913681D01*
X148501519Y-104426537D01*
X148468034Y-104365214D01*
X148465200Y-104338856D01*
X148465200Y-104262927D01*
X148465200Y-104262925D01*
X148427684Y-104122915D01*
X148355209Y-103997385D01*
X148252715Y-103894891D01*
X148252713Y-103894890D01*
X148252711Y-103894888D01*
X148127188Y-103822417D01*
X148127189Y-103822417D01*
X148115706Y-103819340D01*
X147987175Y-103784900D01*
X147842225Y-103784900D01*
X147713693Y-103819340D01*
X147702211Y-103822417D01*
X147576688Y-103894888D01*
X147576682Y-103894893D01*
X147474193Y-103997382D01*
X147474188Y-103997388D01*
X147401717Y-104122911D01*
X147401716Y-104122915D01*
X147364200Y-104262925D01*
X136479708Y-104262925D01*
X134055608Y-101838825D01*
X139371600Y-101838825D01*
X139371600Y-101983775D01*
X139401515Y-102095417D01*
X139409117Y-102123788D01*
X139481588Y-102249311D01*
X139481590Y-102249313D01*
X139481591Y-102249315D01*
X139584085Y-102351809D01*
X139584086Y-102351810D01*
X139584088Y-102351811D01*
X139709611Y-102424282D01*
X139709612Y-102424282D01*
X139709615Y-102424284D01*
X139849625Y-102461800D01*
X139849628Y-102461800D01*
X139994572Y-102461800D01*
X139994575Y-102461800D01*
X140134585Y-102424284D01*
X140260115Y-102351809D01*
X140362609Y-102249315D01*
X140435084Y-102123785D01*
X140472600Y-101983775D01*
X140472600Y-101838825D01*
X140435084Y-101698815D01*
X140362609Y-101573285D01*
X140260115Y-101470791D01*
X140260113Y-101470790D01*
X140260111Y-101470788D01*
X140134588Y-101398317D01*
X140134589Y-101398317D01*
X140123106Y-101395240D01*
X139994575Y-101360800D01*
X139849625Y-101360800D01*
X139721093Y-101395240D01*
X139709611Y-101398317D01*
X139584088Y-101470788D01*
X139584082Y-101470793D01*
X139481593Y-101573282D01*
X139481588Y-101573288D01*
X139409117Y-101698811D01*
X139409116Y-101698815D01*
X139371600Y-101838825D01*
X134055608Y-101838825D01*
X131077308Y-98860525D01*
X134672800Y-98860525D01*
X134672800Y-99005475D01*
X134710208Y-99145082D01*
X134710317Y-99145488D01*
X134782788Y-99271011D01*
X134782790Y-99271013D01*
X134782791Y-99271015D01*
X134885285Y-99373509D01*
X134885286Y-99373510D01*
X134885288Y-99373511D01*
X135010811Y-99445982D01*
X135010812Y-99445982D01*
X135010815Y-99445984D01*
X135150825Y-99483500D01*
X135150828Y-99483500D01*
X135295772Y-99483500D01*
X135295775Y-99483500D01*
X135435785Y-99445984D01*
X135561315Y-99373509D01*
X135663809Y-99271015D01*
X135736284Y-99145485D01*
X135773800Y-99005475D01*
X135773800Y-98860525D01*
X135736284Y-98720515D01*
X135727079Y-98704572D01*
X135663811Y-98594988D01*
X135663806Y-98594982D01*
X135561317Y-98492493D01*
X135561311Y-98492488D01*
X135435788Y-98420017D01*
X135435789Y-98420017D01*
X135424306Y-98416940D01*
X135295775Y-98382500D01*
X135150825Y-98382500D01*
X135022293Y-98416940D01*
X135010811Y-98420017D01*
X134885288Y-98492488D01*
X134885282Y-98492493D01*
X134782793Y-98594982D01*
X134782788Y-98594988D01*
X134710317Y-98720511D01*
X134710316Y-98720515D01*
X134672800Y-98860525D01*
X131077308Y-98860525D01*
X129522219Y-97305436D01*
X129488734Y-97244113D01*
X129485900Y-97217755D01*
X129485900Y-97141827D01*
X129485900Y-97141825D01*
X129448384Y-97001815D01*
X129394738Y-96908898D01*
X129378266Y-96841001D01*
X129388191Y-96812325D01*
X178954300Y-96812325D01*
X178954300Y-96957275D01*
X178987162Y-97079916D01*
X178991817Y-97097288D01*
X179064288Y-97222811D01*
X179064290Y-97222813D01*
X179064291Y-97222815D01*
X179166785Y-97325309D01*
X179166786Y-97325310D01*
X179166788Y-97325311D01*
X179292311Y-97397782D01*
X179292312Y-97397782D01*
X179292315Y-97397784D01*
X179432325Y-97435300D01*
X179432328Y-97435300D01*
X179577272Y-97435300D01*
X179577275Y-97435300D01*
X179717285Y-97397784D01*
X179842815Y-97325309D01*
X179945309Y-97222815D01*
X180017784Y-97097285D01*
X180055300Y-96957275D01*
X180055300Y-96812325D01*
X180017784Y-96672315D01*
X180006557Y-96652870D01*
X179945311Y-96546788D01*
X179945306Y-96546782D01*
X179842817Y-96444293D01*
X179842811Y-96444288D01*
X179717288Y-96371817D01*
X179717289Y-96371817D01*
X179697763Y-96366585D01*
X179577275Y-96334300D01*
X179432325Y-96334300D01*
X179311837Y-96366585D01*
X179292311Y-96371817D01*
X179166788Y-96444288D01*
X179166782Y-96444293D01*
X179064293Y-96546782D01*
X179064288Y-96546788D01*
X178991817Y-96672311D01*
X178991816Y-96672315D01*
X178954300Y-96812325D01*
X129388191Y-96812325D01*
X129401118Y-96774974D01*
X129456039Y-96731783D01*
X129502126Y-96722900D01*
X176778042Y-96722900D01*
X176778044Y-96722900D01*
X176867188Y-96699014D01*
X176947112Y-96652870D01*
X177058463Y-96541519D01*
X177119786Y-96508034D01*
X177146144Y-96505200D01*
X177222072Y-96505200D01*
X177222075Y-96505200D01*
X177362085Y-96467684D01*
X177487615Y-96395209D01*
X177590109Y-96292715D01*
X177662584Y-96167185D01*
X177700100Y-96027175D01*
X177700100Y-95882225D01*
X177662584Y-95742215D01*
X177660445Y-95738511D01*
X177590111Y-95616688D01*
X177590106Y-95616682D01*
X177487617Y-95514193D01*
X177487611Y-95514188D01*
X177362088Y-95441717D01*
X177362089Y-95441717D01*
X177348277Y-95438016D01*
X177222075Y-95404200D01*
X177077125Y-95404200D01*
X176950923Y-95438016D01*
X176937111Y-95441717D01*
X176811588Y-95514188D01*
X176811582Y-95514193D01*
X176709093Y-95616682D01*
X176709088Y-95616688D01*
X176636617Y-95742211D01*
X176636616Y-95742215D01*
X176599100Y-95882225D01*
X176599100Y-95882227D01*
X176599100Y-95897900D01*
X176579415Y-95964939D01*
X176526611Y-96010694D01*
X176475100Y-96021900D01*
X145206186Y-96021900D01*
X145139147Y-96002215D01*
X145093392Y-95949411D01*
X145083448Y-95880253D01*
X145112473Y-95816697D01*
X145118505Y-95810219D01*
X145173709Y-95755015D01*
X145246184Y-95629485D01*
X145283700Y-95489475D01*
X145283700Y-95344525D01*
X145246184Y-95204515D01*
X145245029Y-95202515D01*
X145173711Y-95078988D01*
X145173706Y-95078982D01*
X145071217Y-94976493D01*
X145071211Y-94976488D01*
X144945688Y-94904017D01*
X144945689Y-94904017D01*
X144934206Y-94900940D01*
X144805675Y-94866500D01*
X144660725Y-94866500D01*
X144532193Y-94900940D01*
X144520711Y-94904017D01*
X144395188Y-94976488D01*
X144395182Y-94976493D01*
X144292693Y-95078982D01*
X144292688Y-95078988D01*
X144220217Y-95204511D01*
X144220216Y-95204515D01*
X144182700Y-95344525D01*
X144182700Y-95489475D01*
X144216786Y-95616685D01*
X144220217Y-95629488D01*
X144292688Y-95755011D01*
X144292693Y-95755017D01*
X144347895Y-95810219D01*
X144381380Y-95871542D01*
X144376396Y-95941234D01*
X144334524Y-95997167D01*
X144269060Y-96021584D01*
X144260214Y-96021900D01*
X133367686Y-96021900D01*
X133300647Y-96002215D01*
X133254892Y-95949411D01*
X133244948Y-95880253D01*
X133273973Y-95816697D01*
X133280005Y-95810219D01*
X133356909Y-95733315D01*
X133429384Y-95607785D01*
X133466900Y-95467775D01*
X133466900Y-95322825D01*
X133429384Y-95182815D01*
X133369439Y-95078988D01*
X133356911Y-95057288D01*
X133356906Y-95057282D01*
X133254417Y-94954793D01*
X133254411Y-94954788D01*
X133128888Y-94882317D01*
X133128889Y-94882317D01*
X133117406Y-94879240D01*
X132988875Y-94844800D01*
X132843925Y-94844800D01*
X132715393Y-94879240D01*
X132703911Y-94882317D01*
X132578388Y-94954788D01*
X132578382Y-94954793D01*
X132475893Y-95057282D01*
X132475888Y-95057288D01*
X132403417Y-95182811D01*
X132403416Y-95182815D01*
X132365900Y-95322825D01*
X132365900Y-95467775D01*
X132378338Y-95514193D01*
X132403417Y-95607788D01*
X132475888Y-95733311D01*
X132475893Y-95733317D01*
X132552795Y-95810219D01*
X132586280Y-95871542D01*
X132581296Y-95941234D01*
X132539424Y-95997167D01*
X132473960Y-96021584D01*
X132465114Y-96021900D01*
X127188356Y-96021900D01*
X127099212Y-96045786D01*
X127099211Y-96045786D01*
X127099209Y-96045787D01*
X127099206Y-96045788D01*
X127019294Y-96091926D01*
X127019285Y-96091933D01*
X126843538Y-96267681D01*
X126782215Y-96301166D01*
X126755857Y-96304000D01*
X126679925Y-96304000D01*
X126551393Y-96338440D01*
X126539911Y-96341517D01*
X126414388Y-96413988D01*
X126414382Y-96413993D01*
X126311893Y-96516482D01*
X126311888Y-96516488D01*
X126239417Y-96642011D01*
X126239416Y-96642015D01*
X126201900Y-96782025D01*
X121731157Y-96782025D01*
X125040757Y-93472425D01*
X136002600Y-93472425D01*
X136002600Y-93617375D01*
X136040116Y-93757385D01*
X136040117Y-93757388D01*
X136112588Y-93882911D01*
X136112590Y-93882913D01*
X136112591Y-93882915D01*
X136215085Y-93985409D01*
X136215086Y-93985410D01*
X136215088Y-93985411D01*
X136340611Y-94057882D01*
X136340612Y-94057882D01*
X136340615Y-94057884D01*
X136480625Y-94095400D01*
X136480628Y-94095400D01*
X136625572Y-94095400D01*
X136625575Y-94095400D01*
X136765585Y-94057884D01*
X136891115Y-93985409D01*
X136993609Y-93882915D01*
X137066084Y-93757385D01*
X137103600Y-93617375D01*
X137103600Y-93472425D01*
X137066084Y-93332415D01*
X136994149Y-93207821D01*
X136993611Y-93206888D01*
X136993606Y-93206882D01*
X136891117Y-93104393D01*
X136891111Y-93104388D01*
X136765588Y-93031917D01*
X136765589Y-93031917D01*
X136754106Y-93028840D01*
X136625575Y-92994400D01*
X136480625Y-92994400D01*
X136352093Y-93028840D01*
X136340611Y-93031917D01*
X136215088Y-93104388D01*
X136215082Y-93104393D01*
X136112593Y-93206882D01*
X136112588Y-93206888D01*
X136040117Y-93332411D01*
X136040116Y-93332415D01*
X136002600Y-93472425D01*
X125040757Y-93472425D01*
X126435657Y-92077525D01*
X140707200Y-92077525D01*
X140707200Y-92222475D01*
X140740960Y-92348468D01*
X140744717Y-92362488D01*
X140817188Y-92488011D01*
X140817190Y-92488013D01*
X140817191Y-92488015D01*
X140919685Y-92590509D01*
X140919686Y-92590510D01*
X140919688Y-92590511D01*
X141045211Y-92662982D01*
X141045212Y-92662982D01*
X141045215Y-92662984D01*
X141185225Y-92700500D01*
X141185228Y-92700500D01*
X141330172Y-92700500D01*
X141330175Y-92700500D01*
X141470185Y-92662984D01*
X141595715Y-92590509D01*
X141698209Y-92488015D01*
X141770684Y-92362485D01*
X141808200Y-92222475D01*
X141808200Y-92077525D01*
X141770684Y-91937515D01*
X141698209Y-91811985D01*
X141595715Y-91709491D01*
X141595713Y-91709490D01*
X141595711Y-91709488D01*
X141470188Y-91637017D01*
X141470189Y-91637017D01*
X141458706Y-91633940D01*
X141330175Y-91599500D01*
X141185225Y-91599500D01*
X141056693Y-91633940D01*
X141045211Y-91637017D01*
X140919688Y-91709488D01*
X140919682Y-91709493D01*
X140817193Y-91811982D01*
X140817188Y-91811988D01*
X140744717Y-91937511D01*
X140744716Y-91937515D01*
X140707200Y-92077525D01*
X126435657Y-92077525D01*
X131871870Y-86641312D01*
X131918014Y-86561388D01*
X131919942Y-86554189D01*
X131919947Y-86554181D01*
X131919945Y-86554181D01*
X131923775Y-86539886D01*
X131941900Y-86472244D01*
X131941900Y-85896386D01*
X131961585Y-85829347D01*
X131978219Y-85808705D01*
X131993733Y-85793191D01*
X132031909Y-85755015D01*
X132104384Y-85629485D01*
X132141900Y-85489475D01*
X132141900Y-85344525D01*
X132104384Y-85204515D01*
X132031909Y-85078985D01*
X131929415Y-84976491D01*
X131929413Y-84976490D01*
X131929411Y-84976488D01*
X131803888Y-84904017D01*
X131803889Y-84904017D01*
X131792406Y-84900940D01*
X131663875Y-84866500D01*
X131518925Y-84866500D01*
X131390393Y-84900940D01*
X131378911Y-84904017D01*
X131253388Y-84976488D01*
X131253382Y-84976493D01*
X131150893Y-85078982D01*
X131150888Y-85078988D01*
X131078417Y-85204511D01*
X131078416Y-85204515D01*
X131040900Y-85344525D01*
X131040900Y-85489475D01*
X131078416Y-85629485D01*
X131078417Y-85629488D01*
X131150888Y-85755011D01*
X131150893Y-85755017D01*
X131204581Y-85808705D01*
X131238066Y-85870028D01*
X131240900Y-85896386D01*
X131240900Y-86229556D01*
X131221215Y-86296595D01*
X131204581Y-86317237D01*
X125201850Y-92319967D01*
X125140527Y-92353452D01*
X125070835Y-92348468D01*
X125014902Y-92306596D01*
X125006782Y-92294286D01*
X124965320Y-92222472D01*
X124939809Y-92178285D01*
X124837315Y-92075791D01*
X124837313Y-92075790D01*
X124837311Y-92075788D01*
X124711788Y-92003317D01*
X124711789Y-92003317D01*
X124700306Y-92000240D01*
X124571775Y-91965800D01*
X124571772Y-91965800D01*
X124495844Y-91965800D01*
X124466403Y-91957155D01*
X124436417Y-91950632D01*
X124431401Y-91946877D01*
X124428805Y-91946115D01*
X124408163Y-91929481D01*
X124304719Y-91826037D01*
X124271234Y-91764714D01*
X124268400Y-91738356D01*
X124268400Y-90752225D01*
X124600200Y-90752225D01*
X124600200Y-90897175D01*
X124637716Y-91037185D01*
X124637717Y-91037188D01*
X124710188Y-91162711D01*
X124710190Y-91162713D01*
X124710191Y-91162715D01*
X124812685Y-91265209D01*
X124812686Y-91265210D01*
X124812688Y-91265211D01*
X124938211Y-91337682D01*
X124938212Y-91337682D01*
X124938215Y-91337684D01*
X125078225Y-91375200D01*
X125078228Y-91375200D01*
X125223172Y-91375200D01*
X125223175Y-91375200D01*
X125363185Y-91337684D01*
X125488715Y-91265209D01*
X125591209Y-91162715D01*
X125663684Y-91037185D01*
X125701200Y-90897175D01*
X125701200Y-90752225D01*
X125663684Y-90612215D01*
X125600355Y-90502527D01*
X125591211Y-90486688D01*
X125591206Y-90486682D01*
X125488717Y-90384193D01*
X125488711Y-90384188D01*
X125363188Y-90311717D01*
X125363189Y-90311717D01*
X125337703Y-90304888D01*
X125223175Y-90274200D01*
X125078225Y-90274200D01*
X124963697Y-90304888D01*
X124938211Y-90311717D01*
X124812688Y-90384188D01*
X124812682Y-90384193D01*
X124710193Y-90486682D01*
X124710188Y-90486688D01*
X124637717Y-90612211D01*
X124637716Y-90612215D01*
X124600200Y-90752225D01*
X124268400Y-90752225D01*
X124268400Y-90124610D01*
X124288085Y-90057571D01*
X124340889Y-90011816D01*
X124410047Y-90001872D01*
X124424491Y-90004835D01*
X124447125Y-90010900D01*
X124447127Y-90010900D01*
X124592072Y-90010900D01*
X124592075Y-90010900D01*
X124732085Y-89973384D01*
X124857615Y-89900909D01*
X124960109Y-89798415D01*
X125032584Y-89672885D01*
X125070100Y-89532875D01*
X125070100Y-89387925D01*
X125032584Y-89247915D01*
X124960109Y-89122385D01*
X124857615Y-89019891D01*
X124857613Y-89019890D01*
X124857611Y-89019888D01*
X124732088Y-88947417D01*
X124732089Y-88947417D01*
X124720606Y-88944340D01*
X124592075Y-88909900D01*
X124447125Y-88909900D01*
X124447120Y-88909900D01*
X124424491Y-88915964D01*
X124354641Y-88914300D01*
X124296780Y-88875137D01*
X124269277Y-88810908D01*
X124268400Y-88796189D01*
X124268400Y-87871025D01*
X124850400Y-87871025D01*
X124850400Y-88015975D01*
X124887916Y-88155985D01*
X124887917Y-88155988D01*
X124960388Y-88281511D01*
X124960390Y-88281513D01*
X124960391Y-88281515D01*
X125062885Y-88384009D01*
X125062886Y-88384010D01*
X125062888Y-88384011D01*
X125188411Y-88456482D01*
X125188412Y-88456482D01*
X125188415Y-88456484D01*
X125328425Y-88494000D01*
X125328428Y-88494000D01*
X125473372Y-88494000D01*
X125473375Y-88494000D01*
X125613385Y-88456484D01*
X125738915Y-88384009D01*
X125841409Y-88281515D01*
X125913884Y-88155985D01*
X125951400Y-88015975D01*
X125951400Y-87871025D01*
X125913884Y-87731015D01*
X125841409Y-87605485D01*
X125738915Y-87502991D01*
X125738913Y-87502990D01*
X125738911Y-87502988D01*
X125613388Y-87430517D01*
X125613389Y-87430517D01*
X125601906Y-87427440D01*
X125473375Y-87393000D01*
X125328425Y-87393000D01*
X125199893Y-87427440D01*
X125188411Y-87430517D01*
X125062888Y-87502988D01*
X125062882Y-87502993D01*
X124960393Y-87605482D01*
X124960388Y-87605488D01*
X124887917Y-87731011D01*
X124887916Y-87731015D01*
X124850400Y-87871025D01*
X124268400Y-87871025D01*
X124268400Y-86938944D01*
X124288085Y-86871905D01*
X124304719Y-86851263D01*
X124378785Y-86777197D01*
X124456270Y-86699712D01*
X124502414Y-86619788D01*
X124526300Y-86530644D01*
X124526300Y-85938356D01*
X124502414Y-85849212D01*
X124499996Y-85845024D01*
X124484106Y-85817501D01*
X124484104Y-85817499D01*
X124470070Y-85793191D01*
X124456270Y-85769288D01*
X124166619Y-85479637D01*
X124133134Y-85418314D01*
X124130300Y-85391956D01*
X124130300Y-81644996D01*
X124149985Y-81577957D01*
X124202789Y-81532202D01*
X124271947Y-81522258D01*
X124323188Y-81541892D01*
X124399191Y-81592676D01*
X124399193Y-81592677D01*
X124399197Y-81592679D01*
X124581993Y-81668395D01*
X124581998Y-81668397D01*
X124582002Y-81668397D01*
X124582003Y-81668398D01*
X124776062Y-81707000D01*
X124776065Y-81707000D01*
X124973937Y-81707000D01*
X125104495Y-81681029D01*
X125168002Y-81668397D01*
X125350809Y-81592676D01*
X125515331Y-81482746D01*
X125655246Y-81342831D01*
X125765176Y-81178309D01*
X125840897Y-80995502D01*
X125859236Y-80903306D01*
X125879500Y-80801437D01*
X125879500Y-80603562D01*
X125840898Y-80409503D01*
X125840897Y-80409502D01*
X125840897Y-80409498D01*
X125840269Y-80407982D01*
X125765179Y-80226697D01*
X125765172Y-80226684D01*
X125655246Y-80062169D01*
X125655243Y-80062165D01*
X125515334Y-79922256D01*
X125515330Y-79922253D01*
X125350815Y-79812327D01*
X125350802Y-79812320D01*
X125168006Y-79736604D01*
X125167996Y-79736601D01*
X124973937Y-79698000D01*
X124973935Y-79698000D01*
X124776065Y-79698000D01*
X124776063Y-79698000D01*
X124582003Y-79736601D01*
X124581993Y-79736604D01*
X124399197Y-79812320D01*
X124399184Y-79812327D01*
X124323191Y-79863105D01*
X124256513Y-79883983D01*
X124189133Y-79865498D01*
X124142443Y-79813520D01*
X124130300Y-79760003D01*
X124130300Y-79164530D01*
X124149985Y-79097491D01*
X124202789Y-79051736D01*
X124271947Y-79041792D01*
X124323192Y-79061428D01*
X124375743Y-79096542D01*
X124375747Y-79096544D01*
X124567558Y-79175995D01*
X124567566Y-79175997D01*
X124771185Y-79216499D01*
X124771189Y-79216500D01*
X124978811Y-79216500D01*
X124978814Y-79216499D01*
X125182433Y-79175997D01*
X125182441Y-79175995D01*
X125374253Y-79096544D01*
X125507727Y-79007359D01*
X125106538Y-78606170D01*
X125182007Y-78562599D01*
X125275099Y-78469507D01*
X125318670Y-78394038D01*
X125719859Y-78795227D01*
X125809044Y-78661753D01*
X125888495Y-78469941D01*
X125888497Y-78469933D01*
X125928999Y-78266314D01*
X125929000Y-78266311D01*
X125929000Y-78058689D01*
X125928999Y-78058685D01*
X125888497Y-77855066D01*
X125888495Y-77855058D01*
X125848540Y-77758598D01*
X125841071Y-77689129D01*
X125872346Y-77626649D01*
X125932435Y-77590997D01*
X126002260Y-77593490D01*
X126050782Y-77623464D01*
X132392181Y-83964863D01*
X132425666Y-84026186D01*
X132428500Y-84052544D01*
X132428500Y-90095614D01*
X132408815Y-90162653D01*
X132392181Y-90183295D01*
X132338493Y-90236982D01*
X132338488Y-90236988D01*
X132266017Y-90362511D01*
X132266016Y-90362515D01*
X132228500Y-90502525D01*
X132228500Y-90647475D01*
X132255643Y-90748772D01*
X132266017Y-90787488D01*
X132338488Y-90913011D01*
X132338490Y-90913013D01*
X132338491Y-90913015D01*
X132440985Y-91015509D01*
X132440986Y-91015510D01*
X132440988Y-91015511D01*
X132566511Y-91087982D01*
X132566512Y-91087982D01*
X132566515Y-91087984D01*
X132706525Y-91125500D01*
X132706528Y-91125500D01*
X132851472Y-91125500D01*
X132851475Y-91125500D01*
X132991485Y-91087984D01*
X133117015Y-91015509D01*
X133219509Y-90913015D01*
X133291984Y-90787485D01*
X133329500Y-90647475D01*
X133329500Y-90502525D01*
X133291984Y-90362515D01*
X133277996Y-90338288D01*
X133219511Y-90236988D01*
X133219506Y-90236982D01*
X133165819Y-90183295D01*
X133132334Y-90121972D01*
X133129500Y-90095614D01*
X133129500Y-84190744D01*
X133149185Y-84123705D01*
X133201989Y-84077950D01*
X133271147Y-84068006D01*
X133334703Y-84097031D01*
X133341181Y-84103063D01*
X135333981Y-86095863D01*
X135367466Y-86157186D01*
X135370300Y-86183544D01*
X135370300Y-90206014D01*
X135350615Y-90273053D01*
X135333981Y-90293695D01*
X135289393Y-90338282D01*
X135289388Y-90338288D01*
X135216917Y-90463811D01*
X135216916Y-90463815D01*
X135179400Y-90603825D01*
X135179400Y-90748775D01*
X135216916Y-90888785D01*
X135216917Y-90888788D01*
X135289388Y-91014311D01*
X135289390Y-91014313D01*
X135289391Y-91014315D01*
X135391885Y-91116809D01*
X135391886Y-91116810D01*
X135391888Y-91116811D01*
X135517411Y-91189282D01*
X135517412Y-91189282D01*
X135517415Y-91189284D01*
X135657425Y-91226800D01*
X135657428Y-91226800D01*
X135802372Y-91226800D01*
X135802375Y-91226800D01*
X135942385Y-91189284D01*
X136067915Y-91116809D01*
X136170409Y-91014315D01*
X136242884Y-90888785D01*
X136280400Y-90748775D01*
X136280400Y-90748772D01*
X136282503Y-90740924D01*
X136284264Y-90741396D01*
X136308418Y-90686810D01*
X136366746Y-90648344D01*
X136387090Y-90645296D01*
X136386915Y-90643961D01*
X136394971Y-90642900D01*
X136394975Y-90642900D01*
X136534985Y-90605384D01*
X136660515Y-90532909D01*
X136763009Y-90430415D01*
X136835484Y-90304885D01*
X136873000Y-90164875D01*
X136873000Y-90164872D01*
X136875103Y-90157024D01*
X136876864Y-90157496D01*
X136901018Y-90102910D01*
X136959346Y-90064444D01*
X136979690Y-90061396D01*
X136979515Y-90060061D01*
X136987571Y-90059000D01*
X136987575Y-90059000D01*
X137127585Y-90021484D01*
X137253115Y-89949009D01*
X137276499Y-89925625D01*
X173762700Y-89925625D01*
X173762700Y-90070575D01*
X173785991Y-90157496D01*
X173800217Y-90210588D01*
X173872688Y-90336111D01*
X173872690Y-90336113D01*
X173872691Y-90336115D01*
X173975185Y-90438609D01*
X173975186Y-90438610D01*
X173975188Y-90438611D01*
X174100711Y-90511082D01*
X174100712Y-90511082D01*
X174100715Y-90511084D01*
X174240725Y-90548600D01*
X174240728Y-90548600D01*
X174385672Y-90548600D01*
X174385675Y-90548600D01*
X174525685Y-90511084D01*
X174651215Y-90438609D01*
X174753709Y-90336115D01*
X174826184Y-90210585D01*
X174863700Y-90070575D01*
X174863700Y-89925625D01*
X174826184Y-89785615D01*
X174788871Y-89720988D01*
X174753711Y-89660088D01*
X174753706Y-89660082D01*
X174651217Y-89557593D01*
X174651211Y-89557588D01*
X174525688Y-89485117D01*
X174525689Y-89485117D01*
X174514206Y-89482040D01*
X174385675Y-89447600D01*
X174240725Y-89447600D01*
X174112193Y-89482040D01*
X174100711Y-89485117D01*
X173975188Y-89557588D01*
X173975182Y-89557593D01*
X173872693Y-89660082D01*
X173872688Y-89660088D01*
X173800217Y-89785611D01*
X173800216Y-89785615D01*
X173762700Y-89925625D01*
X137276499Y-89925625D01*
X137355609Y-89846515D01*
X137428084Y-89720985D01*
X137465600Y-89580975D01*
X137465600Y-89505043D01*
X137485285Y-89438004D01*
X137501919Y-89417362D01*
X138123092Y-88796189D01*
X139275369Y-87643912D01*
X139321514Y-87563988D01*
X139345400Y-87474844D01*
X139345400Y-80801437D01*
X147456499Y-80801437D01*
X147495101Y-80995496D01*
X147495104Y-80995506D01*
X147570820Y-81178302D01*
X147570827Y-81178315D01*
X147680753Y-81342830D01*
X147680756Y-81342834D01*
X147820665Y-81482743D01*
X147820669Y-81482746D01*
X147985184Y-81592672D01*
X147985197Y-81592679D01*
X148167993Y-81668395D01*
X148167998Y-81668397D01*
X148168002Y-81668397D01*
X148168003Y-81668398D01*
X148362062Y-81707000D01*
X148362065Y-81707000D01*
X148559937Y-81707000D01*
X148690495Y-81681029D01*
X148754002Y-81668397D01*
X148936809Y-81592676D01*
X149101331Y-81482746D01*
X149241246Y-81342831D01*
X149351176Y-81178309D01*
X149426897Y-80995502D01*
X149445236Y-80903306D01*
X149465500Y-80801437D01*
X149465500Y-80603562D01*
X149426898Y-80409502D01*
X149426895Y-80409493D01*
X149418955Y-80390325D01*
X152830700Y-80390325D01*
X152830700Y-80535275D01*
X152868216Y-80675285D01*
X152868217Y-80675288D01*
X152940688Y-80800811D01*
X152940690Y-80800813D01*
X152940691Y-80800815D01*
X153043185Y-80903309D01*
X153043186Y-80903310D01*
X153043188Y-80903311D01*
X153168711Y-80975782D01*
X153168712Y-80975782D01*
X153168715Y-80975784D01*
X153308725Y-81013300D01*
X153308728Y-81013300D01*
X153453672Y-81013300D01*
X153453675Y-81013300D01*
X153593685Y-80975784D01*
X153719215Y-80903309D01*
X153821087Y-80801437D01*
X159006499Y-80801437D01*
X159045101Y-80995496D01*
X159045104Y-80995506D01*
X159120820Y-81178302D01*
X159120827Y-81178315D01*
X159230753Y-81342830D01*
X159230756Y-81342834D01*
X159370665Y-81482743D01*
X159370669Y-81482746D01*
X159535184Y-81592672D01*
X159535197Y-81592679D01*
X159717993Y-81668395D01*
X159717998Y-81668397D01*
X159718002Y-81668397D01*
X159718003Y-81668398D01*
X159912062Y-81707000D01*
X159912065Y-81707000D01*
X160109937Y-81707000D01*
X160240495Y-81681029D01*
X160304002Y-81668397D01*
X160486809Y-81592676D01*
X160651331Y-81482746D01*
X160791246Y-81342831D01*
X160901176Y-81178309D01*
X160976897Y-80995502D01*
X160995236Y-80903306D01*
X161015500Y-80801437D01*
X170006499Y-80801437D01*
X170045101Y-80995496D01*
X170045104Y-80995506D01*
X170120820Y-81178302D01*
X170120827Y-81178315D01*
X170230753Y-81342830D01*
X170230756Y-81342834D01*
X170370665Y-81482743D01*
X170370669Y-81482746D01*
X170535184Y-81592672D01*
X170535197Y-81592679D01*
X170717993Y-81668395D01*
X170717998Y-81668397D01*
X170718002Y-81668397D01*
X170718003Y-81668398D01*
X170912062Y-81707000D01*
X170912065Y-81707000D01*
X171109937Y-81707000D01*
X171240495Y-81681029D01*
X171304002Y-81668397D01*
X171486809Y-81592676D01*
X171651331Y-81482746D01*
X171791246Y-81342831D01*
X171901176Y-81178309D01*
X171976897Y-80995502D01*
X171995236Y-80903306D01*
X172015500Y-80801437D01*
X181356499Y-80801437D01*
X181395101Y-80995496D01*
X181395104Y-80995506D01*
X181470820Y-81178302D01*
X181470827Y-81178315D01*
X181580753Y-81342830D01*
X181580756Y-81342834D01*
X181720665Y-81482743D01*
X181720669Y-81482746D01*
X181885184Y-81592672D01*
X181885197Y-81592679D01*
X182067993Y-81668395D01*
X182067998Y-81668397D01*
X182068002Y-81668397D01*
X182068003Y-81668398D01*
X182262062Y-81707000D01*
X182262065Y-81707000D01*
X182459937Y-81707000D01*
X182590495Y-81681029D01*
X182654002Y-81668397D01*
X182836809Y-81592676D01*
X183001331Y-81482746D01*
X183141246Y-81342831D01*
X183251176Y-81178309D01*
X183326897Y-80995502D01*
X183345236Y-80903306D01*
X183365500Y-80801437D01*
X192406499Y-80801437D01*
X192445101Y-80995496D01*
X192445104Y-80995506D01*
X192520820Y-81178302D01*
X192520827Y-81178315D01*
X192630753Y-81342830D01*
X192630756Y-81342834D01*
X192770665Y-81482743D01*
X192770669Y-81482746D01*
X192935184Y-81592672D01*
X192935197Y-81592679D01*
X193117993Y-81668395D01*
X193117998Y-81668397D01*
X193118002Y-81668397D01*
X193118003Y-81668398D01*
X193312062Y-81707000D01*
X193312065Y-81707000D01*
X193509937Y-81707000D01*
X193640495Y-81681029D01*
X193704002Y-81668397D01*
X193886809Y-81592676D01*
X194051331Y-81482746D01*
X194191246Y-81342831D01*
X194301176Y-81178309D01*
X194376897Y-80995502D01*
X194395236Y-80903306D01*
X194415500Y-80801437D01*
X194415500Y-80603562D01*
X194376898Y-80409503D01*
X194376897Y-80409502D01*
X194376897Y-80409498D01*
X194376269Y-80407982D01*
X194301179Y-80226697D01*
X194301172Y-80226684D01*
X194191246Y-80062169D01*
X194191243Y-80062165D01*
X194051334Y-79922256D01*
X194051330Y-79922253D01*
X193886815Y-79812327D01*
X193886802Y-79812320D01*
X193704006Y-79736604D01*
X193703996Y-79736601D01*
X193509937Y-79698000D01*
X193509935Y-79698000D01*
X193312065Y-79698000D01*
X193312063Y-79698000D01*
X193118003Y-79736601D01*
X193117993Y-79736604D01*
X192935197Y-79812320D01*
X192935184Y-79812327D01*
X192770669Y-79922253D01*
X192770665Y-79922256D01*
X192630756Y-80062165D01*
X192630753Y-80062169D01*
X192520827Y-80226684D01*
X192520820Y-80226697D01*
X192445104Y-80409493D01*
X192445101Y-80409503D01*
X192406500Y-80603562D01*
X192406500Y-80603565D01*
X192406500Y-80801435D01*
X192406500Y-80801437D01*
X192406499Y-80801437D01*
X183365500Y-80801437D01*
X183365500Y-80603562D01*
X183326898Y-80409503D01*
X183326897Y-80409502D01*
X183326897Y-80409498D01*
X183326269Y-80407982D01*
X183251179Y-80226697D01*
X183251172Y-80226684D01*
X183141246Y-80062169D01*
X183141243Y-80062165D01*
X183001334Y-79922256D01*
X183001330Y-79922253D01*
X182836815Y-79812327D01*
X182836802Y-79812320D01*
X182654006Y-79736604D01*
X182653996Y-79736601D01*
X182459937Y-79698000D01*
X182459935Y-79698000D01*
X182262065Y-79698000D01*
X182262063Y-79698000D01*
X182068003Y-79736601D01*
X182067993Y-79736604D01*
X181885197Y-79812320D01*
X181885184Y-79812327D01*
X181720669Y-79922253D01*
X181720665Y-79922256D01*
X181580756Y-80062165D01*
X181580753Y-80062169D01*
X181470827Y-80226684D01*
X181470820Y-80226697D01*
X181395104Y-80409493D01*
X181395101Y-80409503D01*
X181356500Y-80603562D01*
X181356500Y-80603565D01*
X181356500Y-80801435D01*
X181356500Y-80801437D01*
X181356499Y-80801437D01*
X172015500Y-80801437D01*
X172015500Y-80603562D01*
X171976898Y-80409503D01*
X171976897Y-80409502D01*
X171976897Y-80409498D01*
X171976269Y-80407982D01*
X171901179Y-80226697D01*
X171901172Y-80226684D01*
X171791246Y-80062169D01*
X171791243Y-80062165D01*
X171651334Y-79922256D01*
X171651330Y-79922253D01*
X171486815Y-79812327D01*
X171486802Y-79812320D01*
X171304006Y-79736604D01*
X171303996Y-79736601D01*
X171109937Y-79698000D01*
X171109935Y-79698000D01*
X170912065Y-79698000D01*
X170912063Y-79698000D01*
X170718003Y-79736601D01*
X170717993Y-79736604D01*
X170535197Y-79812320D01*
X170535184Y-79812327D01*
X170370669Y-79922253D01*
X170370665Y-79922256D01*
X170230756Y-80062165D01*
X170230753Y-80062169D01*
X170120827Y-80226684D01*
X170120820Y-80226697D01*
X170045104Y-80409493D01*
X170045101Y-80409503D01*
X170006500Y-80603562D01*
X170006500Y-80603565D01*
X170006500Y-80801435D01*
X170006500Y-80801437D01*
X170006499Y-80801437D01*
X161015500Y-80801437D01*
X161015500Y-80603562D01*
X160976898Y-80409503D01*
X160976897Y-80409502D01*
X160976897Y-80409498D01*
X160976269Y-80407982D01*
X160901179Y-80226697D01*
X160901172Y-80226684D01*
X160791246Y-80062169D01*
X160791243Y-80062165D01*
X160651334Y-79922256D01*
X160651330Y-79922253D01*
X160486815Y-79812327D01*
X160486802Y-79812320D01*
X160304006Y-79736604D01*
X160303996Y-79736601D01*
X160109937Y-79698000D01*
X160109935Y-79698000D01*
X159912065Y-79698000D01*
X159912063Y-79698000D01*
X159718003Y-79736601D01*
X159717993Y-79736604D01*
X159535197Y-79812320D01*
X159535184Y-79812327D01*
X159370669Y-79922253D01*
X159370665Y-79922256D01*
X159230756Y-80062165D01*
X159230753Y-80062169D01*
X159120827Y-80226684D01*
X159120820Y-80226697D01*
X159045104Y-80409493D01*
X159045101Y-80409503D01*
X159006500Y-80603562D01*
X159006500Y-80603565D01*
X159006500Y-80801435D01*
X159006500Y-80801437D01*
X159006499Y-80801437D01*
X153821087Y-80801437D01*
X153821709Y-80800815D01*
X153894184Y-80675285D01*
X153931700Y-80535275D01*
X153931700Y-80453836D01*
X153932188Y-80448353D01*
X153943032Y-80420749D01*
X153951385Y-80392305D01*
X153956893Y-80385469D01*
X153957737Y-80383322D01*
X153959856Y-80381791D01*
X153968019Y-80371663D01*
X157274663Y-77065019D01*
X157335986Y-77031534D01*
X157362344Y-77028700D01*
X159401928Y-77028700D01*
X159468967Y-77048385D01*
X159514722Y-77101189D01*
X159524666Y-77170347D01*
X159495641Y-77233903D01*
X159470819Y-77255802D01*
X159378272Y-77317640D01*
X159779461Y-77718829D01*
X159703993Y-77762401D01*
X159610901Y-77855493D01*
X159567329Y-77930960D01*
X159166140Y-77529772D01*
X159166139Y-77529772D01*
X159076960Y-77663237D01*
X159076955Y-77663247D01*
X158997504Y-77855058D01*
X158997502Y-77855066D01*
X158957000Y-78058685D01*
X158957000Y-78266314D01*
X158997502Y-78469933D01*
X158997504Y-78469941D01*
X159076955Y-78661753D01*
X159166139Y-78795227D01*
X159166140Y-78795227D01*
X159567329Y-78394038D01*
X159610901Y-78469507D01*
X159703993Y-78562599D01*
X159779460Y-78606170D01*
X159378271Y-79007359D01*
X159511746Y-79096544D01*
X159703558Y-79175995D01*
X159703566Y-79175997D01*
X159907185Y-79216499D01*
X159907189Y-79216500D01*
X160114811Y-79216500D01*
X160114814Y-79216499D01*
X160318433Y-79175997D01*
X160318441Y-79175995D01*
X160510253Y-79096544D01*
X160643727Y-79007359D01*
X160242539Y-78606170D01*
X160318007Y-78562599D01*
X160411099Y-78469507D01*
X160454670Y-78394038D01*
X160855859Y-78795227D01*
X160945044Y-78661753D01*
X161024495Y-78469941D01*
X161024497Y-78469933D01*
X161064999Y-78266314D01*
X161065000Y-78266311D01*
X161065000Y-78058689D01*
X161064999Y-78058685D01*
X161024497Y-77855066D01*
X161024495Y-77855058D01*
X160945044Y-77663246D01*
X160855859Y-77529771D01*
X160454670Y-77930960D01*
X160411099Y-77855493D01*
X160318007Y-77762401D01*
X160242538Y-77718829D01*
X160643727Y-77317640D01*
X160643727Y-77317639D01*
X160551180Y-77255802D01*
X160506375Y-77202190D01*
X160497668Y-77132865D01*
X160527822Y-77069838D01*
X160587265Y-77033118D01*
X160620071Y-77028700D01*
X170401928Y-77028700D01*
X170468967Y-77048385D01*
X170514722Y-77101189D01*
X170524666Y-77170347D01*
X170495641Y-77233903D01*
X170470819Y-77255802D01*
X170378272Y-77317640D01*
X170779461Y-77718829D01*
X170703993Y-77762401D01*
X170610901Y-77855493D01*
X170567329Y-77930961D01*
X170166140Y-77529772D01*
X170166139Y-77529772D01*
X170076960Y-77663237D01*
X170076955Y-77663247D01*
X169997504Y-77855058D01*
X169997502Y-77855066D01*
X169957000Y-78058685D01*
X169957000Y-78266314D01*
X169997502Y-78469933D01*
X169997504Y-78469941D01*
X170076955Y-78661753D01*
X170166139Y-78795227D01*
X170166140Y-78795227D01*
X170567329Y-78394038D01*
X170610901Y-78469507D01*
X170703993Y-78562599D01*
X170779460Y-78606170D01*
X170378271Y-79007359D01*
X170511746Y-79096544D01*
X170703558Y-79175995D01*
X170703566Y-79175997D01*
X170907185Y-79216499D01*
X170907189Y-79216500D01*
X171114811Y-79216500D01*
X171114814Y-79216499D01*
X171318433Y-79175997D01*
X171318441Y-79175995D01*
X171510253Y-79096544D01*
X171643727Y-79007359D01*
X171242539Y-78606170D01*
X171318007Y-78562599D01*
X171411099Y-78469507D01*
X171454670Y-78394038D01*
X171855859Y-78795227D01*
X171945044Y-78661753D01*
X172024495Y-78469941D01*
X172024497Y-78469933D01*
X172064999Y-78266314D01*
X172065000Y-78266311D01*
X172065000Y-78058689D01*
X172064999Y-78058685D01*
X181307000Y-78058685D01*
X181307000Y-78266314D01*
X181347502Y-78469933D01*
X181347504Y-78469941D01*
X181426955Y-78661753D01*
X181516139Y-78795227D01*
X181516140Y-78795227D01*
X181917329Y-78394038D01*
X181960901Y-78469507D01*
X182053993Y-78562599D01*
X182129460Y-78606170D01*
X181728271Y-79007359D01*
X181861746Y-79096544D01*
X182053558Y-79175995D01*
X182053566Y-79175997D01*
X182257185Y-79216499D01*
X182257189Y-79216500D01*
X182464811Y-79216500D01*
X182464814Y-79216499D01*
X182668433Y-79175997D01*
X182668441Y-79175995D01*
X182860253Y-79096544D01*
X182993727Y-79007359D01*
X182592539Y-78606170D01*
X182668007Y-78562599D01*
X182761099Y-78469507D01*
X182804670Y-78394038D01*
X183205859Y-78795227D01*
X183295044Y-78661753D01*
X183374495Y-78469941D01*
X183374497Y-78469933D01*
X183414999Y-78266314D01*
X183415000Y-78266311D01*
X183415000Y-78058689D01*
X183414999Y-78058685D01*
X192357000Y-78058685D01*
X192357000Y-78266314D01*
X192397502Y-78469933D01*
X192397504Y-78469941D01*
X192476955Y-78661753D01*
X192566139Y-78795227D01*
X192566140Y-78795227D01*
X192967329Y-78394038D01*
X193010901Y-78469507D01*
X193103993Y-78562599D01*
X193179460Y-78606170D01*
X192778271Y-79007359D01*
X192911746Y-79096544D01*
X193103558Y-79175995D01*
X193103566Y-79175997D01*
X193307185Y-79216499D01*
X193307189Y-79216500D01*
X193514811Y-79216500D01*
X193514814Y-79216499D01*
X193718433Y-79175997D01*
X193718441Y-79175995D01*
X193910253Y-79096544D01*
X194043727Y-79007359D01*
X193642539Y-78606170D01*
X193718007Y-78562599D01*
X193811099Y-78469507D01*
X193854670Y-78394038D01*
X194255859Y-78795227D01*
X194345044Y-78661753D01*
X194424495Y-78469941D01*
X194424497Y-78469933D01*
X194464999Y-78266314D01*
X194465000Y-78266311D01*
X194465000Y-78058689D01*
X194464999Y-78058685D01*
X194424497Y-77855066D01*
X194424495Y-77855058D01*
X194345044Y-77663246D01*
X194255859Y-77529771D01*
X193854670Y-77930960D01*
X193811099Y-77855493D01*
X193718007Y-77762401D01*
X193642538Y-77718829D01*
X194043727Y-77317640D01*
X194043727Y-77317639D01*
X193910253Y-77228455D01*
X193718441Y-77149004D01*
X193718433Y-77149002D01*
X193514814Y-77108500D01*
X193307185Y-77108500D01*
X193103566Y-77149002D01*
X193103558Y-77149004D01*
X192911747Y-77228455D01*
X192911737Y-77228460D01*
X192778272Y-77317639D01*
X192778272Y-77317640D01*
X193179461Y-77718829D01*
X193103993Y-77762401D01*
X193010901Y-77855493D01*
X192967329Y-77930961D01*
X192566140Y-77529772D01*
X192566139Y-77529772D01*
X192476960Y-77663237D01*
X192476955Y-77663247D01*
X192397504Y-77855058D01*
X192397502Y-77855066D01*
X192357000Y-78058685D01*
X183414999Y-78058685D01*
X183374497Y-77855066D01*
X183374495Y-77855058D01*
X183295044Y-77663246D01*
X183205859Y-77529771D01*
X182804670Y-77930960D01*
X182761099Y-77855493D01*
X182668007Y-77762401D01*
X182592538Y-77718829D01*
X182993727Y-77317640D01*
X182993727Y-77317639D01*
X182860253Y-77228455D01*
X182668441Y-77149004D01*
X182668433Y-77149002D01*
X182464814Y-77108500D01*
X182257185Y-77108500D01*
X182053566Y-77149002D01*
X182053558Y-77149004D01*
X181861747Y-77228455D01*
X181861737Y-77228460D01*
X181728272Y-77317639D01*
X181728272Y-77317640D01*
X182129461Y-77718829D01*
X182053993Y-77762401D01*
X181960901Y-77855493D01*
X181917329Y-77930961D01*
X181516140Y-77529772D01*
X181516139Y-77529772D01*
X181426960Y-77663237D01*
X181426955Y-77663247D01*
X181347504Y-77855058D01*
X181347502Y-77855066D01*
X181307000Y-78058685D01*
X172064999Y-78058685D01*
X172024497Y-77855066D01*
X172024495Y-77855058D01*
X171945044Y-77663246D01*
X171855859Y-77529771D01*
X171454670Y-77930960D01*
X171411099Y-77855493D01*
X171318007Y-77762401D01*
X171242538Y-77718829D01*
X171643727Y-77317640D01*
X171643727Y-77317639D01*
X171551180Y-77255802D01*
X171506375Y-77202190D01*
X171497668Y-77132865D01*
X171527822Y-77069838D01*
X171587265Y-77033118D01*
X171620071Y-77028700D01*
X180295742Y-77028700D01*
X180295744Y-77028700D01*
X180384888Y-77004814D01*
X180464812Y-76958670D01*
X181144819Y-76278661D01*
X181206142Y-76245177D01*
X181275833Y-76250161D01*
X181331767Y-76292032D01*
X181356184Y-76357497D01*
X181356500Y-76366343D01*
X181356500Y-76401178D01*
X181371032Y-76474235D01*
X181371033Y-76474239D01*
X181371034Y-76474240D01*
X181426399Y-76557101D01*
X181509260Y-76612466D01*
X181509264Y-76612467D01*
X181582321Y-76626999D01*
X181582324Y-76627000D01*
X181582326Y-76627000D01*
X183139676Y-76627000D01*
X183139677Y-76626999D01*
X183212740Y-76612466D01*
X183295601Y-76557101D01*
X183350966Y-76474240D01*
X183365500Y-76401174D01*
X183365500Y-74843826D01*
X183365500Y-74843823D01*
X183365499Y-74843821D01*
X192406500Y-74843821D01*
X192406500Y-76401178D01*
X192421032Y-76474235D01*
X192421033Y-76474239D01*
X192421034Y-76474240D01*
X192476399Y-76557101D01*
X192559260Y-76612466D01*
X192559264Y-76612467D01*
X192632321Y-76626999D01*
X192632324Y-76627000D01*
X192632326Y-76627000D01*
X194189676Y-76627000D01*
X194189677Y-76626999D01*
X194262740Y-76612466D01*
X194345601Y-76557101D01*
X194400966Y-76474240D01*
X194415500Y-76401174D01*
X194415500Y-74843826D01*
X194415500Y-74843823D01*
X194415499Y-74843821D01*
X194400967Y-74770764D01*
X194400966Y-74770760D01*
X194345601Y-74687899D01*
X194262740Y-74632534D01*
X194262739Y-74632533D01*
X194262735Y-74632532D01*
X194189677Y-74618000D01*
X194189674Y-74618000D01*
X192632326Y-74618000D01*
X192632323Y-74618000D01*
X192559264Y-74632532D01*
X192559260Y-74632533D01*
X192476399Y-74687899D01*
X192421033Y-74770760D01*
X192421032Y-74770764D01*
X192406500Y-74843821D01*
X183365499Y-74843821D01*
X183350967Y-74770764D01*
X183350966Y-74770760D01*
X183295601Y-74687899D01*
X183212740Y-74632534D01*
X183212739Y-74632533D01*
X183212735Y-74632532D01*
X183139677Y-74618000D01*
X183139674Y-74618000D01*
X181582326Y-74618000D01*
X181582323Y-74618000D01*
X181509264Y-74632532D01*
X181509260Y-74632533D01*
X181426399Y-74687899D01*
X181371033Y-74770760D01*
X181371032Y-74770764D01*
X181356500Y-74843821D01*
X181356500Y-75150768D01*
X181336815Y-75217807D01*
X181284011Y-75263562D01*
X181264594Y-75270543D01*
X181170007Y-75295887D01*
X181170006Y-75295888D01*
X181090094Y-75342026D01*
X181090085Y-75342033D01*
X180140737Y-76291381D01*
X180079414Y-76324866D01*
X180053056Y-76327700D01*
X172139500Y-76327700D01*
X172072461Y-76308015D01*
X172026706Y-76255211D01*
X172015500Y-76203700D01*
X172015500Y-74843823D01*
X172015499Y-74843821D01*
X172000967Y-74770764D01*
X172000966Y-74770760D01*
X171945601Y-74687899D01*
X171862740Y-74632534D01*
X171862739Y-74632533D01*
X171862735Y-74632532D01*
X171789677Y-74618000D01*
X171789674Y-74618000D01*
X170232326Y-74618000D01*
X170232323Y-74618000D01*
X170159264Y-74632532D01*
X170159260Y-74632533D01*
X170076399Y-74687899D01*
X170021033Y-74770760D01*
X170021032Y-74770764D01*
X170006500Y-74843821D01*
X170006500Y-76203700D01*
X169986815Y-76270739D01*
X169934011Y-76316494D01*
X169882500Y-76327700D01*
X161139500Y-76327700D01*
X161072461Y-76308015D01*
X161026706Y-76255211D01*
X161015500Y-76203700D01*
X161015500Y-74843823D01*
X161015499Y-74843821D01*
X161000967Y-74770764D01*
X161000966Y-74770760D01*
X160945601Y-74687899D01*
X160862740Y-74632534D01*
X160862739Y-74632533D01*
X160862735Y-74632532D01*
X160789677Y-74618000D01*
X160789674Y-74618000D01*
X159232326Y-74618000D01*
X159232323Y-74618000D01*
X159159264Y-74632532D01*
X159159260Y-74632533D01*
X159076399Y-74687899D01*
X159021033Y-74770760D01*
X159021032Y-74770764D01*
X159006500Y-74843821D01*
X159006500Y-76203700D01*
X158986815Y-76270739D01*
X158934011Y-76316494D01*
X158882500Y-76327700D01*
X157119656Y-76327700D01*
X157058233Y-76344158D01*
X157058232Y-76344157D01*
X157030516Y-76351584D01*
X157030509Y-76351587D01*
X156950591Y-76397727D01*
X156950586Y-76397731D01*
X153472337Y-79875981D01*
X153411014Y-79909466D01*
X153384656Y-79912300D01*
X153308725Y-79912300D01*
X153180193Y-79946740D01*
X153168711Y-79949817D01*
X153043188Y-80022288D01*
X153043182Y-80022293D01*
X152940693Y-80124782D01*
X152940688Y-80124788D01*
X152868217Y-80250311D01*
X152868216Y-80250315D01*
X152830700Y-80390325D01*
X149418955Y-80390325D01*
X149351179Y-80226697D01*
X149351172Y-80226684D01*
X149241246Y-80062169D01*
X149241243Y-80062165D01*
X149101334Y-79922256D01*
X149101330Y-79922253D01*
X148936815Y-79812327D01*
X148936802Y-79812320D01*
X148754006Y-79736604D01*
X148753996Y-79736601D01*
X148559937Y-79698000D01*
X148559935Y-79698000D01*
X148362065Y-79698000D01*
X148362063Y-79698000D01*
X148168003Y-79736601D01*
X148167993Y-79736604D01*
X147985197Y-79812320D01*
X147985184Y-79812327D01*
X147820669Y-79922253D01*
X147820665Y-79922256D01*
X147680756Y-80062165D01*
X147680753Y-80062169D01*
X147570827Y-80226684D01*
X147570820Y-80226697D01*
X147495104Y-80409493D01*
X147495101Y-80409503D01*
X147456500Y-80603562D01*
X147456500Y-80603565D01*
X147456500Y-80801435D01*
X147456500Y-80801437D01*
X147456499Y-80801437D01*
X139345400Y-80801437D01*
X139345400Y-78058685D01*
X147407000Y-78058685D01*
X147407000Y-78266314D01*
X147447502Y-78469933D01*
X147447504Y-78469941D01*
X147526955Y-78661753D01*
X147616139Y-78795227D01*
X147616140Y-78795227D01*
X148017329Y-78394038D01*
X148060901Y-78469507D01*
X148153993Y-78562599D01*
X148229460Y-78606170D01*
X147828271Y-79007359D01*
X147961746Y-79096544D01*
X148153558Y-79175995D01*
X148153566Y-79175997D01*
X148357185Y-79216499D01*
X148357189Y-79216500D01*
X148564811Y-79216500D01*
X148564814Y-79216499D01*
X148768433Y-79175997D01*
X148768441Y-79175995D01*
X148960253Y-79096544D01*
X149093727Y-79007359D01*
X148692539Y-78606170D01*
X148768007Y-78562599D01*
X148861099Y-78469507D01*
X148904670Y-78394038D01*
X149305859Y-78795227D01*
X149395044Y-78661753D01*
X149474495Y-78469941D01*
X149474497Y-78469933D01*
X149514999Y-78266314D01*
X149515000Y-78266311D01*
X149515000Y-78058689D01*
X149514999Y-78058685D01*
X149474497Y-77855066D01*
X149474495Y-77855058D01*
X149395044Y-77663246D01*
X149305859Y-77529771D01*
X148904670Y-77930960D01*
X148861099Y-77855493D01*
X148768007Y-77762401D01*
X148692538Y-77718829D01*
X149093727Y-77317640D01*
X149093727Y-77317639D01*
X148960253Y-77228455D01*
X148768441Y-77149004D01*
X148768433Y-77149002D01*
X148564814Y-77108500D01*
X148357185Y-77108500D01*
X148153566Y-77149002D01*
X148153558Y-77149004D01*
X147961747Y-77228455D01*
X147961737Y-77228460D01*
X147828272Y-77317639D01*
X147828272Y-77317640D01*
X148229461Y-77718829D01*
X148153993Y-77762401D01*
X148060901Y-77855493D01*
X148017329Y-77930961D01*
X147616140Y-77529772D01*
X147616139Y-77529772D01*
X147526960Y-77663237D01*
X147526955Y-77663247D01*
X147447504Y-77855058D01*
X147447502Y-77855066D01*
X147407000Y-78058685D01*
X139345400Y-78058685D01*
X139345400Y-76831186D01*
X139365085Y-76764147D01*
X139381719Y-76743505D01*
X139406317Y-76718907D01*
X139435409Y-76689815D01*
X139507884Y-76564285D01*
X139545400Y-76424275D01*
X139545400Y-76279325D01*
X139507884Y-76139315D01*
X139435409Y-76013785D01*
X139332915Y-75911291D01*
X139332913Y-75911290D01*
X139332911Y-75911288D01*
X139207388Y-75838817D01*
X139207389Y-75838817D01*
X139195906Y-75835740D01*
X139067375Y-75801300D01*
X138922425Y-75801300D01*
X138793893Y-75835740D01*
X138782411Y-75838817D01*
X138660900Y-75908972D01*
X138593000Y-75925445D01*
X138526973Y-75902592D01*
X138483782Y-75847671D01*
X138474900Y-75801585D01*
X138474900Y-74843821D01*
X147456500Y-74843821D01*
X147456500Y-76401178D01*
X147471032Y-76474235D01*
X147471033Y-76474239D01*
X147471034Y-76474240D01*
X147526399Y-76557101D01*
X147609260Y-76612466D01*
X147609264Y-76612467D01*
X147682321Y-76626999D01*
X147682324Y-76627000D01*
X147682326Y-76627000D01*
X149239676Y-76627000D01*
X149239677Y-76626999D01*
X149312740Y-76612466D01*
X149395601Y-76557101D01*
X149450966Y-76474240D01*
X149465500Y-76401174D01*
X149465500Y-74843826D01*
X149465500Y-74843823D01*
X149465499Y-74843821D01*
X149450967Y-74770764D01*
X149450966Y-74770760D01*
X149395601Y-74687899D01*
X149312740Y-74632534D01*
X149312739Y-74632533D01*
X149312735Y-74632532D01*
X149239677Y-74618000D01*
X149239674Y-74618000D01*
X147682326Y-74618000D01*
X147682323Y-74618000D01*
X147609264Y-74632532D01*
X147609260Y-74632533D01*
X147526399Y-74687899D01*
X147471033Y-74770760D01*
X147471032Y-74770764D01*
X147456500Y-74843821D01*
X138474900Y-74843821D01*
X138474900Y-59197343D01*
X138494585Y-59130304D01*
X138511219Y-59109662D01*
X145383382Y-52237499D01*
X148337714Y-52237499D01*
X148337714Y-52237500D01*
X149455027Y-52237500D01*
X149436000Y-52308509D01*
X149436000Y-52466491D01*
X149455027Y-52537500D01*
X148337714Y-52537500D01*
X148366178Y-52790133D01*
X148366181Y-52790151D01*
X148426163Y-53052951D01*
X148426167Y-53052963D01*
X148515192Y-53307381D01*
X148515198Y-53307395D01*
X148632152Y-53550252D01*
X148775568Y-53778498D01*
X148943638Y-53989251D01*
X149134248Y-54179861D01*
X149345001Y-54347931D01*
X149573247Y-54491347D01*
X149816104Y-54608301D01*
X149816118Y-54608307D01*
X150070536Y-54697332D01*
X150070548Y-54697336D01*
X150333348Y-54757318D01*
X150333366Y-54757321D01*
X150601212Y-54787499D01*
X150601216Y-54787500D01*
X152686000Y-54787500D01*
X152686000Y-52987500D01*
X152986000Y-52987500D01*
X152986000Y-54787500D01*
X155070784Y-54787500D01*
X155070787Y-54787499D01*
X155338633Y-54757321D01*
X155338651Y-54757318D01*
X155601451Y-54697336D01*
X155601463Y-54697332D01*
X155855881Y-54608307D01*
X155855895Y-54608301D01*
X156098752Y-54491347D01*
X156326998Y-54347931D01*
X156537751Y-54179861D01*
X156728361Y-53989251D01*
X156896431Y-53778498D01*
X157039847Y-53550252D01*
X157156801Y-53307395D01*
X157156807Y-53307381D01*
X157245832Y-53052963D01*
X157245836Y-53052951D01*
X157305818Y-52790151D01*
X157305821Y-52790133D01*
X157334285Y-52537500D01*
X156216973Y-52537500D01*
X156236000Y-52466491D01*
X156236000Y-52308509D01*
X156216973Y-52237500D01*
X157334286Y-52237500D01*
X157334285Y-52237499D01*
X166137714Y-52237499D01*
X166137714Y-52237500D01*
X167255027Y-52237500D01*
X167236000Y-52308509D01*
X167236000Y-52466491D01*
X167255027Y-52537500D01*
X166137714Y-52537500D01*
X166166178Y-52790133D01*
X166166181Y-52790151D01*
X166226163Y-53052951D01*
X166226167Y-53052963D01*
X166315192Y-53307381D01*
X166315198Y-53307395D01*
X166432152Y-53550252D01*
X166575568Y-53778498D01*
X166743638Y-53989251D01*
X166934248Y-54179861D01*
X167145001Y-54347931D01*
X167373247Y-54491347D01*
X167616104Y-54608301D01*
X167616118Y-54608307D01*
X167870536Y-54697332D01*
X167870548Y-54697336D01*
X168133348Y-54757318D01*
X168133366Y-54757321D01*
X168401212Y-54787499D01*
X168401216Y-54787500D01*
X170486000Y-54787500D01*
X170486000Y-52987500D01*
X170786000Y-52987500D01*
X170786000Y-54787500D01*
X172870784Y-54787500D01*
X172870787Y-54787499D01*
X173138633Y-54757321D01*
X173138651Y-54757318D01*
X173401451Y-54697336D01*
X173401463Y-54697332D01*
X173655881Y-54608307D01*
X173655895Y-54608301D01*
X173898752Y-54491347D01*
X174126998Y-54347931D01*
X174337751Y-54179861D01*
X174528361Y-53989251D01*
X174696431Y-53778498D01*
X174839847Y-53550252D01*
X174956801Y-53307395D01*
X174956807Y-53307381D01*
X175045832Y-53052963D01*
X175045836Y-53052951D01*
X175105818Y-52790151D01*
X175105821Y-52790133D01*
X175134285Y-52537500D01*
X174016973Y-52537500D01*
X174036000Y-52466491D01*
X174036000Y-52308509D01*
X174016973Y-52237500D01*
X175134286Y-52237500D01*
X175134285Y-52237499D01*
X184037714Y-52237499D01*
X184037714Y-52237500D01*
X185155027Y-52237500D01*
X185136000Y-52308509D01*
X185136000Y-52466491D01*
X185155027Y-52537500D01*
X184037714Y-52537500D01*
X184066178Y-52790133D01*
X184066181Y-52790151D01*
X184126163Y-53052951D01*
X184126167Y-53052963D01*
X184215192Y-53307381D01*
X184215198Y-53307395D01*
X184332152Y-53550252D01*
X184475568Y-53778498D01*
X184643638Y-53989251D01*
X184834248Y-54179861D01*
X185045001Y-54347931D01*
X185273247Y-54491347D01*
X185516104Y-54608301D01*
X185516118Y-54608307D01*
X185770536Y-54697332D01*
X185770548Y-54697336D01*
X186033348Y-54757318D01*
X186033366Y-54757321D01*
X186301212Y-54787499D01*
X186301216Y-54787500D01*
X188386000Y-54787500D01*
X188386000Y-52987500D01*
X188686000Y-52987500D01*
X188686000Y-54787500D01*
X190770784Y-54787500D01*
X190770787Y-54787499D01*
X191038633Y-54757321D01*
X191038651Y-54757318D01*
X191301451Y-54697336D01*
X191301463Y-54697332D01*
X191555881Y-54608307D01*
X191555895Y-54608301D01*
X191798752Y-54491347D01*
X192026998Y-54347931D01*
X192237751Y-54179861D01*
X192428361Y-53989251D01*
X192596431Y-53778498D01*
X192739847Y-53550252D01*
X192856801Y-53307395D01*
X192856807Y-53307381D01*
X192945832Y-53052963D01*
X192945836Y-53052951D01*
X193005818Y-52790151D01*
X193005821Y-52790133D01*
X193034285Y-52537500D01*
X191916973Y-52537500D01*
X191936000Y-52466491D01*
X191936000Y-52308509D01*
X191916973Y-52237500D01*
X193034286Y-52237500D01*
X193034285Y-52237499D01*
X193005821Y-51984866D01*
X193005818Y-51984848D01*
X192945836Y-51722048D01*
X192945832Y-51722036D01*
X192856807Y-51467618D01*
X192856801Y-51467604D01*
X192739847Y-51224747D01*
X192596431Y-50996501D01*
X192428361Y-50785748D01*
X192237751Y-50595138D01*
X192026998Y-50427068D01*
X191798752Y-50283652D01*
X191555895Y-50166698D01*
X191555881Y-50166692D01*
X191301463Y-50077667D01*
X191301451Y-50077663D01*
X191038651Y-50017681D01*
X191038633Y-50017678D01*
X190770787Y-49987500D01*
X188686000Y-49987500D01*
X188686000Y-51787500D01*
X188386000Y-51787500D01*
X188386000Y-49987500D01*
X186301212Y-49987500D01*
X186033366Y-50017678D01*
X186033348Y-50017681D01*
X185770548Y-50077663D01*
X185770536Y-50077667D01*
X185516118Y-50166692D01*
X185516104Y-50166698D01*
X185273247Y-50283652D01*
X185045001Y-50427068D01*
X184834248Y-50595138D01*
X184643638Y-50785748D01*
X184475568Y-50996501D01*
X184332152Y-51224747D01*
X184215198Y-51467604D01*
X184215192Y-51467618D01*
X184126167Y-51722036D01*
X184126163Y-51722048D01*
X184066181Y-51984848D01*
X184066178Y-51984866D01*
X184037714Y-52237499D01*
X175134285Y-52237499D01*
X175105821Y-51984866D01*
X175105818Y-51984848D01*
X175045836Y-51722048D01*
X175045832Y-51722036D01*
X174956807Y-51467618D01*
X174956801Y-51467604D01*
X174839847Y-51224747D01*
X174696431Y-50996501D01*
X174528361Y-50785748D01*
X174337751Y-50595138D01*
X174126998Y-50427068D01*
X173898752Y-50283652D01*
X173655895Y-50166698D01*
X173655881Y-50166692D01*
X173401463Y-50077667D01*
X173401451Y-50077663D01*
X173138651Y-50017681D01*
X173138633Y-50017678D01*
X172870787Y-49987500D01*
X170786000Y-49987500D01*
X170786000Y-51787500D01*
X170486000Y-51787500D01*
X170486000Y-49987500D01*
X168401212Y-49987500D01*
X168133366Y-50017678D01*
X168133348Y-50017681D01*
X167870548Y-50077663D01*
X167870536Y-50077667D01*
X167616118Y-50166692D01*
X167616104Y-50166698D01*
X167373247Y-50283652D01*
X167145001Y-50427068D01*
X166934248Y-50595138D01*
X166743638Y-50785748D01*
X166575568Y-50996501D01*
X166432152Y-51224747D01*
X166315198Y-51467604D01*
X166315192Y-51467618D01*
X166226167Y-51722036D01*
X166226163Y-51722048D01*
X166166181Y-51984848D01*
X166166178Y-51984866D01*
X166137714Y-52237499D01*
X157334285Y-52237499D01*
X157305821Y-51984866D01*
X157305818Y-51984848D01*
X157245836Y-51722048D01*
X157245832Y-51722036D01*
X157156807Y-51467618D01*
X157156801Y-51467604D01*
X157039847Y-51224747D01*
X156896431Y-50996501D01*
X156728361Y-50785748D01*
X156537751Y-50595138D01*
X156326998Y-50427068D01*
X156098752Y-50283652D01*
X155855895Y-50166698D01*
X155855881Y-50166692D01*
X155601463Y-50077667D01*
X155601451Y-50077663D01*
X155338651Y-50017681D01*
X155338633Y-50017678D01*
X155070787Y-49987500D01*
X152986000Y-49987500D01*
X152986000Y-51787500D01*
X152686000Y-51787500D01*
X152686000Y-49987500D01*
X150601212Y-49987500D01*
X150333366Y-50017678D01*
X150333348Y-50017681D01*
X150070548Y-50077663D01*
X150070536Y-50077667D01*
X149816118Y-50166692D01*
X149816104Y-50166698D01*
X149573247Y-50283652D01*
X149345001Y-50427068D01*
X149134248Y-50595138D01*
X148943638Y-50785748D01*
X148775568Y-50996501D01*
X148632152Y-51224747D01*
X148515198Y-51467604D01*
X148515192Y-51467618D01*
X148426167Y-51722036D01*
X148426163Y-51722048D01*
X148366181Y-51984848D01*
X148366178Y-51984866D01*
X148337714Y-52237499D01*
X145383382Y-52237499D01*
X145429808Y-52191073D01*
X149009395Y-48611486D01*
X153116469Y-44504412D01*
X153162614Y-44424488D01*
X153178487Y-44365248D01*
X153186500Y-44335344D01*
X153186500Y-44335343D01*
X153187957Y-44329906D01*
X153224322Y-44270246D01*
X153287170Y-44239717D01*
X153307732Y-44238000D01*
X155090053Y-44238000D01*
X155090060Y-44238000D01*
X155395544Y-44197782D01*
X155693164Y-44118035D01*
X155977830Y-44000122D01*
X156244670Y-43846062D01*
X156489117Y-43658491D01*
X156706991Y-43440617D01*
X156894562Y-43196170D01*
X157048622Y-42929330D01*
X157166535Y-42644664D01*
X157246282Y-42347044D01*
X157286500Y-42041560D01*
X157286500Y-41733446D01*
X166185500Y-41733446D01*
X166185500Y-42041553D01*
X166185501Y-42041569D01*
X166225717Y-42347042D01*
X166305464Y-42644662D01*
X166423376Y-42929326D01*
X166423381Y-42929337D01*
X166516014Y-43089780D01*
X166577438Y-43196170D01*
X166577440Y-43196173D01*
X166577441Y-43196174D01*
X166765007Y-43440615D01*
X166765013Y-43440622D01*
X166982877Y-43658486D01*
X166982883Y-43658491D01*
X167227330Y-43846062D01*
X167398830Y-43945078D01*
X167494162Y-44000118D01*
X167494167Y-44000120D01*
X167494170Y-44000122D01*
X167778836Y-44118035D01*
X168076456Y-44197782D01*
X168381940Y-44238000D01*
X168381947Y-44238000D01*
X172890053Y-44238000D01*
X172890060Y-44238000D01*
X173195544Y-44197782D01*
X173493164Y-44118035D01*
X173777830Y-44000122D01*
X174044670Y-43846062D01*
X174289117Y-43658491D01*
X174506991Y-43440617D01*
X174694562Y-43196170D01*
X174848622Y-42929330D01*
X174966535Y-42644664D01*
X175046282Y-42347044D01*
X175086500Y-42041560D01*
X175086500Y-41733446D01*
X184085500Y-41733446D01*
X184085500Y-42041553D01*
X184085501Y-42041569D01*
X184125717Y-42347042D01*
X184205464Y-42644662D01*
X184323376Y-42929326D01*
X184323381Y-42929337D01*
X184416014Y-43089780D01*
X184477438Y-43196170D01*
X184477440Y-43196173D01*
X184477441Y-43196174D01*
X184665007Y-43440615D01*
X184665013Y-43440622D01*
X184882877Y-43658486D01*
X184882883Y-43658491D01*
X185127330Y-43846062D01*
X185298830Y-43945078D01*
X185394162Y-44000118D01*
X185394167Y-44000120D01*
X185394170Y-44000122D01*
X185678836Y-44118035D01*
X185976456Y-44197782D01*
X186281940Y-44238000D01*
X186281947Y-44238000D01*
X190790053Y-44238000D01*
X190790060Y-44238000D01*
X191095544Y-44197782D01*
X191393164Y-44118035D01*
X191677830Y-44000122D01*
X191944670Y-43846062D01*
X192189117Y-43658491D01*
X192406991Y-43440617D01*
X192594562Y-43196170D01*
X192748622Y-42929330D01*
X192866535Y-42644664D01*
X192946282Y-42347044D01*
X192986500Y-42041560D01*
X192986500Y-41733440D01*
X192946282Y-41427956D01*
X192866535Y-41130336D01*
X192748622Y-40845670D01*
X192748620Y-40845667D01*
X192748618Y-40845662D01*
X192693578Y-40750330D01*
X192594562Y-40578830D01*
X192422714Y-40354873D01*
X192406992Y-40334384D01*
X192406986Y-40334377D01*
X192189122Y-40116513D01*
X192189115Y-40116507D01*
X191944674Y-39928941D01*
X191944673Y-39928940D01*
X191944670Y-39928938D01*
X191797238Y-39843818D01*
X191677837Y-39774881D01*
X191677826Y-39774876D01*
X191393162Y-39656964D01*
X191095542Y-39577217D01*
X190790069Y-39537001D01*
X190790066Y-39537000D01*
X190790060Y-39537000D01*
X186281940Y-39537000D01*
X186281934Y-39537000D01*
X186281930Y-39537001D01*
X185976457Y-39577217D01*
X185678837Y-39656964D01*
X185394173Y-39774876D01*
X185394162Y-39774881D01*
X185127325Y-39928941D01*
X184882884Y-40116507D01*
X184882877Y-40116513D01*
X184665013Y-40334377D01*
X184665007Y-40334384D01*
X184477441Y-40578825D01*
X184477438Y-40578829D01*
X184477438Y-40578830D01*
X184473877Y-40584998D01*
X184323381Y-40845662D01*
X184323376Y-40845673D01*
X184205464Y-41130337D01*
X184125717Y-41427957D01*
X184085501Y-41733430D01*
X184085500Y-41733446D01*
X175086500Y-41733446D01*
X175086500Y-41733440D01*
X175046282Y-41427956D01*
X174966535Y-41130336D01*
X174848622Y-40845670D01*
X174848620Y-40845667D01*
X174848618Y-40845662D01*
X174793578Y-40750330D01*
X174694562Y-40578830D01*
X174522714Y-40354873D01*
X174506992Y-40334384D01*
X174506986Y-40334377D01*
X174289122Y-40116513D01*
X174289115Y-40116507D01*
X174044674Y-39928941D01*
X174044673Y-39928940D01*
X174044670Y-39928938D01*
X173897238Y-39843818D01*
X173777837Y-39774881D01*
X173777826Y-39774876D01*
X173493162Y-39656964D01*
X173195542Y-39577217D01*
X172890069Y-39537001D01*
X172890066Y-39537000D01*
X172890060Y-39537000D01*
X168381940Y-39537000D01*
X168381934Y-39537000D01*
X168381930Y-39537001D01*
X168076457Y-39577217D01*
X167778837Y-39656964D01*
X167494173Y-39774876D01*
X167494162Y-39774881D01*
X167227325Y-39928941D01*
X166982884Y-40116507D01*
X166982877Y-40116513D01*
X166765013Y-40334377D01*
X166765007Y-40334384D01*
X166577441Y-40578825D01*
X166577438Y-40578829D01*
X166577438Y-40578830D01*
X166573877Y-40584998D01*
X166423381Y-40845662D01*
X166423376Y-40845673D01*
X166305464Y-41130337D01*
X166225717Y-41427957D01*
X166185501Y-41733430D01*
X166185500Y-41733446D01*
X157286500Y-41733446D01*
X157286500Y-41733440D01*
X157246282Y-41427956D01*
X157166535Y-41130336D01*
X157048622Y-40845670D01*
X157048620Y-40845667D01*
X157048618Y-40845662D01*
X156993578Y-40750330D01*
X156894562Y-40578830D01*
X156722714Y-40354873D01*
X156706992Y-40334384D01*
X156706986Y-40334377D01*
X156489122Y-40116513D01*
X156489115Y-40116507D01*
X156244674Y-39928941D01*
X156244673Y-39928940D01*
X156244670Y-39928938D01*
X156097238Y-39843818D01*
X155977837Y-39774881D01*
X155977826Y-39774876D01*
X155693162Y-39656964D01*
X155395542Y-39577217D01*
X155090069Y-39537001D01*
X155090066Y-39537000D01*
X155090060Y-39537000D01*
X150581940Y-39537000D01*
X150581934Y-39537000D01*
X150581930Y-39537001D01*
X150276457Y-39577217D01*
X149978837Y-39656964D01*
X149694173Y-39774876D01*
X149694162Y-39774881D01*
X149427325Y-39928941D01*
X149182884Y-40116507D01*
X149182877Y-40116513D01*
X148965013Y-40334377D01*
X148965007Y-40334384D01*
X148777441Y-40578825D01*
X148777438Y-40578829D01*
X148777438Y-40578830D01*
X148773877Y-40584998D01*
X148623381Y-40845662D01*
X148623376Y-40845673D01*
X148505464Y-41130337D01*
X148425717Y-41427957D01*
X148385501Y-41733430D01*
X148385500Y-41733446D01*
X148385500Y-42041553D01*
X148385501Y-42041569D01*
X148425717Y-42347042D01*
X148505464Y-42644662D01*
X148623376Y-42929326D01*
X148623381Y-42929337D01*
X148716014Y-43089780D01*
X148777438Y-43196170D01*
X148777440Y-43196173D01*
X148777441Y-43196174D01*
X148965007Y-43440615D01*
X148965013Y-43440622D01*
X149182877Y-43658486D01*
X149182883Y-43658491D01*
X149427330Y-43846062D01*
X149598830Y-43945078D01*
X149694162Y-44000118D01*
X149694167Y-44000120D01*
X149694170Y-44000122D01*
X149978836Y-44118035D01*
X150276456Y-44197782D01*
X150581940Y-44238000D01*
X152092157Y-44238000D01*
X152159196Y-44257685D01*
X152204951Y-44310489D01*
X152214895Y-44379647D01*
X152185870Y-44443203D01*
X152179838Y-44449681D01*
X137843931Y-58785586D01*
X137843927Y-58785591D01*
X137797787Y-58865509D01*
X137797786Y-58865512D01*
X137773900Y-58954656D01*
X137773900Y-74494407D01*
X137754215Y-74561446D01*
X137701411Y-74607201D01*
X137645766Y-74616474D01*
X137645766Y-74618000D01*
X136082323Y-74618000D01*
X136009264Y-74632532D01*
X136009260Y-74632533D01*
X135926399Y-74687899D01*
X135871033Y-74770760D01*
X135871032Y-74770764D01*
X135856500Y-74843821D01*
X135856500Y-76401178D01*
X135871032Y-76474235D01*
X135871033Y-76474239D01*
X135871034Y-76474240D01*
X135926399Y-76557101D01*
X136009260Y-76612466D01*
X136009264Y-76612467D01*
X136082321Y-76626999D01*
X136082324Y-76627000D01*
X137645766Y-76627000D01*
X137645766Y-76628716D01*
X137706370Y-76640197D01*
X137757090Y-76688251D01*
X137773900Y-76750592D01*
X137773900Y-77410369D01*
X137754215Y-77477408D01*
X137737581Y-77498050D01*
X137304670Y-77930960D01*
X137261099Y-77855493D01*
X137168007Y-77762401D01*
X137092538Y-77718829D01*
X137493727Y-77317640D01*
X137493727Y-77317639D01*
X137360253Y-77228455D01*
X137168441Y-77149004D01*
X137168433Y-77149002D01*
X136964814Y-77108500D01*
X136757185Y-77108500D01*
X136553566Y-77149002D01*
X136553558Y-77149004D01*
X136361747Y-77228455D01*
X136361737Y-77228460D01*
X136228272Y-77317639D01*
X136228272Y-77317640D01*
X136629461Y-77718829D01*
X136553993Y-77762401D01*
X136460901Y-77855493D01*
X136417329Y-77930961D01*
X136016140Y-77529772D01*
X136016139Y-77529772D01*
X135926960Y-77663237D01*
X135926955Y-77663247D01*
X135847504Y-77855058D01*
X135847502Y-77855066D01*
X135807000Y-78058685D01*
X135807000Y-78266314D01*
X135847502Y-78469933D01*
X135847504Y-78469941D01*
X135926955Y-78661753D01*
X136016139Y-78795227D01*
X136016140Y-78795227D01*
X136417329Y-78394038D01*
X136460901Y-78469507D01*
X136553993Y-78562599D01*
X136629460Y-78606170D01*
X136228271Y-79007359D01*
X136361746Y-79096544D01*
X136553558Y-79175995D01*
X136553566Y-79175997D01*
X136757185Y-79216499D01*
X136757189Y-79216500D01*
X136964811Y-79216500D01*
X136964814Y-79216499D01*
X137168433Y-79175997D01*
X137168441Y-79175995D01*
X137360253Y-79096544D01*
X137493727Y-79007359D01*
X137092539Y-78606170D01*
X137168007Y-78562599D01*
X137261099Y-78469507D01*
X137304670Y-78394038D01*
X137737581Y-78826949D01*
X137771066Y-78888272D01*
X137773900Y-78914630D01*
X137773900Y-79895460D01*
X137754215Y-79962499D01*
X137701411Y-80008254D01*
X137632253Y-80018198D01*
X137568697Y-79989173D01*
X137562219Y-79983141D01*
X137501334Y-79922256D01*
X137501330Y-79922253D01*
X137336815Y-79812327D01*
X137336802Y-79812320D01*
X137154006Y-79736604D01*
X137153996Y-79736601D01*
X136959937Y-79698000D01*
X136959935Y-79698000D01*
X136762065Y-79698000D01*
X136762063Y-79698000D01*
X136568003Y-79736601D01*
X136567993Y-79736604D01*
X136385197Y-79812320D01*
X136385184Y-79812327D01*
X136220669Y-79922253D01*
X136220665Y-79922256D01*
X136080756Y-80062165D01*
X136080753Y-80062169D01*
X135970827Y-80226684D01*
X135970820Y-80226697D01*
X135895104Y-80409493D01*
X135895101Y-80409503D01*
X135856500Y-80603562D01*
X135856500Y-80603565D01*
X135856500Y-80801435D01*
X135856500Y-80801437D01*
X135856499Y-80801437D01*
X135895101Y-80995496D01*
X135895104Y-80995506D01*
X135970820Y-81178302D01*
X135970827Y-81178315D01*
X136080753Y-81342830D01*
X136080756Y-81342834D01*
X136220665Y-81482743D01*
X136220669Y-81482746D01*
X136385184Y-81592672D01*
X136385197Y-81592679D01*
X136567993Y-81668395D01*
X136567998Y-81668397D01*
X136568002Y-81668397D01*
X136568003Y-81668398D01*
X136762062Y-81707000D01*
X136762065Y-81707000D01*
X136959937Y-81707000D01*
X136966000Y-81706403D01*
X136966217Y-81708609D01*
X137025885Y-81713930D01*
X137081076Y-81756776D01*
X137104341Y-81822658D01*
X137088294Y-81890660D01*
X137068202Y-81917015D01*
X136000831Y-82984386D01*
X136000827Y-82984391D01*
X135954687Y-83064309D01*
X135954686Y-83064312D01*
X135930800Y-83153456D01*
X135930800Y-85401956D01*
X135911115Y-85468995D01*
X135858311Y-85514750D01*
X135789153Y-85524694D01*
X135725597Y-85495669D01*
X135719119Y-85489637D01*
X131060319Y-80830837D01*
X131026834Y-80769514D01*
X131024000Y-80743156D01*
X131024000Y-53974158D01*
X131043685Y-53907119D01*
X131096489Y-53861364D01*
X131165647Y-53851420D01*
X131229203Y-53880445D01*
X131244947Y-53896845D01*
X131318638Y-53989251D01*
X131509248Y-54179861D01*
X131720001Y-54347931D01*
X131948247Y-54491347D01*
X132191104Y-54608301D01*
X132191118Y-54608307D01*
X132445536Y-54697332D01*
X132445548Y-54697336D01*
X132708348Y-54757318D01*
X132708366Y-54757321D01*
X132976212Y-54787499D01*
X132976216Y-54787500D01*
X135061000Y-54787500D01*
X135061000Y-52987500D01*
X135361000Y-52987500D01*
X135361000Y-54787500D01*
X137445784Y-54787500D01*
X137445787Y-54787499D01*
X137713633Y-54757321D01*
X137713651Y-54757318D01*
X137976451Y-54697336D01*
X137976463Y-54697332D01*
X138230881Y-54608307D01*
X138230895Y-54608301D01*
X138473752Y-54491347D01*
X138701998Y-54347931D01*
X138912751Y-54179861D01*
X139103361Y-53989251D01*
X139271431Y-53778498D01*
X139414847Y-53550252D01*
X139531801Y-53307395D01*
X139531807Y-53307381D01*
X139620832Y-53052963D01*
X139620836Y-53052951D01*
X139680818Y-52790151D01*
X139680821Y-52790133D01*
X139709285Y-52537500D01*
X138591973Y-52537500D01*
X138611000Y-52466491D01*
X138611000Y-52308509D01*
X138591973Y-52237500D01*
X139709286Y-52237500D01*
X139709285Y-52237499D01*
X139680821Y-51984866D01*
X139680818Y-51984848D01*
X139620836Y-51722048D01*
X139620832Y-51722036D01*
X139531807Y-51467618D01*
X139531801Y-51467604D01*
X139414847Y-51224747D01*
X139271431Y-50996501D01*
X139103361Y-50785748D01*
X138912751Y-50595138D01*
X138701998Y-50427068D01*
X138473752Y-50283652D01*
X138230895Y-50166698D01*
X138230881Y-50166692D01*
X137976463Y-50077667D01*
X137976451Y-50077663D01*
X137713651Y-50017681D01*
X137713633Y-50017678D01*
X137445787Y-49987500D01*
X135361000Y-49987500D01*
X135361000Y-51787500D01*
X135061000Y-51787500D01*
X135061000Y-49987500D01*
X132976212Y-49987500D01*
X132708366Y-50017678D01*
X132708348Y-50017681D01*
X132445548Y-50077663D01*
X132445536Y-50077667D01*
X132191118Y-50166692D01*
X132191104Y-50166698D01*
X131948247Y-50283652D01*
X131720001Y-50427068D01*
X131509248Y-50595138D01*
X131318638Y-50785748D01*
X131244947Y-50878154D01*
X131187758Y-50918294D01*
X131117947Y-50921144D01*
X131057677Y-50885798D01*
X131026084Y-50823479D01*
X131024000Y-50800841D01*
X131024000Y-49023244D01*
X131043685Y-48956205D01*
X131060319Y-48935563D01*
X133224800Y-46771082D01*
X135491470Y-44504412D01*
X135537614Y-44424488D01*
X135553487Y-44365248D01*
X135561500Y-44335344D01*
X135561500Y-44335343D01*
X135562957Y-44329906D01*
X135599322Y-44270246D01*
X135662170Y-44239717D01*
X135682732Y-44238000D01*
X137465053Y-44238000D01*
X137465060Y-44238000D01*
X137770544Y-44197782D01*
X138068164Y-44118035D01*
X138352830Y-44000122D01*
X138619670Y-43846062D01*
X138864117Y-43658491D01*
X139081991Y-43440617D01*
X139269562Y-43196170D01*
X139423622Y-42929330D01*
X139541535Y-42644664D01*
X139621282Y-42347044D01*
X139661500Y-42041560D01*
X139661500Y-41733440D01*
X139621282Y-41427956D01*
X139541535Y-41130336D01*
X139423622Y-40845670D01*
X139423620Y-40845667D01*
X139423618Y-40845662D01*
X139368578Y-40750330D01*
X139269562Y-40578830D01*
X139097714Y-40354873D01*
X139081992Y-40334384D01*
X139081986Y-40334377D01*
X138864122Y-40116513D01*
X138864115Y-40116507D01*
X138619674Y-39928941D01*
X138619673Y-39928940D01*
X138619670Y-39928938D01*
X138472238Y-39843818D01*
X138352837Y-39774881D01*
X138352826Y-39774876D01*
X138068162Y-39656964D01*
X137770542Y-39577217D01*
X137465069Y-39537001D01*
X137465066Y-39537000D01*
X137465060Y-39537000D01*
X132956940Y-39537000D01*
X132956934Y-39537000D01*
X132956930Y-39537001D01*
X132651457Y-39577217D01*
X132353837Y-39656964D01*
X132069173Y-39774876D01*
X132069162Y-39774881D01*
X131802325Y-39928941D01*
X131557884Y-40116507D01*
X131557877Y-40116513D01*
X131340013Y-40334377D01*
X131340007Y-40334384D01*
X131152441Y-40578825D01*
X131152438Y-40578829D01*
X131152438Y-40578830D01*
X131148877Y-40584998D01*
X130998381Y-40845662D01*
X130998376Y-40845673D01*
X130880464Y-41130337D01*
X130800717Y-41427957D01*
X130760501Y-41733430D01*
X130760500Y-41733446D01*
X130760500Y-42041553D01*
X130760501Y-42041569D01*
X130800717Y-42347042D01*
X130880464Y-42644662D01*
X130998376Y-42929326D01*
X130998381Y-42929337D01*
X131091014Y-43089780D01*
X131152438Y-43196170D01*
X131152440Y-43196173D01*
X131152441Y-43196174D01*
X131340007Y-43440615D01*
X131340013Y-43440622D01*
X131557877Y-43658486D01*
X131557883Y-43658491D01*
X131802330Y-43846062D01*
X131973830Y-43945078D01*
X132069162Y-44000118D01*
X132069167Y-44000120D01*
X132069170Y-44000122D01*
X132353836Y-44118035D01*
X132651456Y-44197782D01*
X132956940Y-44238000D01*
X134467156Y-44238000D01*
X134534195Y-44257685D01*
X134579950Y-44310489D01*
X134589894Y-44379647D01*
X134560869Y-44443203D01*
X134554837Y-44449681D01*
X130393031Y-48611486D01*
X130393027Y-48611491D01*
X130346887Y-48691409D01*
X130346886Y-48691412D01*
X130323000Y-48780556D01*
X130323000Y-80604956D01*
X130303315Y-80671995D01*
X130250511Y-80717750D01*
X130181353Y-80727694D01*
X130117797Y-80698669D01*
X130111319Y-80692637D01*
X126317519Y-76898837D01*
X126284034Y-76837514D01*
X126281200Y-76811156D01*
X126281200Y-50848558D01*
X126281200Y-50848556D01*
X126257314Y-50759412D01*
X126211170Y-50679488D01*
X120583561Y-45051879D01*
X120550076Y-44990556D01*
X120555060Y-44920864D01*
X120560751Y-44907915D01*
X120566111Y-44897397D01*
X120622802Y-44722922D01*
X120635556Y-44642390D01*
X120651500Y-44541732D01*
X120651500Y-44358267D01*
X120622802Y-44177081D01*
X120622802Y-44177078D01*
X120566111Y-44002603D01*
X120482825Y-43839145D01*
X120469048Y-43820183D01*
X120374999Y-43690734D01*
X120374995Y-43690729D01*
X120245270Y-43561004D01*
X120245265Y-43561000D01*
X120096858Y-43453177D01*
X120096857Y-43453176D01*
X120096855Y-43453175D01*
X119933397Y-43369889D01*
X119758922Y-43313198D01*
X119758920Y-43313197D01*
X119758918Y-43313197D01*
X119577732Y-43284500D01*
X119577727Y-43284500D01*
X119394273Y-43284500D01*
X119394268Y-43284500D01*
X119213081Y-43313197D01*
X119038600Y-43369890D01*
X118875141Y-43453177D01*
X118726734Y-43561000D01*
X118726729Y-43561004D01*
X118597004Y-43690729D01*
X118597000Y-43690734D01*
X118489177Y-43839141D01*
X118405890Y-44002600D01*
X118349197Y-44177081D01*
X118320500Y-44358267D01*
X109411500Y-44358267D01*
X109411500Y-41983920D01*
X121275499Y-41983920D01*
X121304340Y-42128907D01*
X121304343Y-42128917D01*
X121360912Y-42265488D01*
X121360919Y-42265501D01*
X121443048Y-42388415D01*
X121443051Y-42388419D01*
X121547580Y-42492948D01*
X121547584Y-42492951D01*
X121670498Y-42575080D01*
X121670511Y-42575087D01*
X121807082Y-42631656D01*
X121807087Y-42631658D01*
X121807091Y-42631658D01*
X121807092Y-42631659D01*
X121952079Y-42660500D01*
X121952082Y-42660500D01*
X122099920Y-42660500D01*
X122197462Y-42641096D01*
X122244913Y-42631658D01*
X122381495Y-42575084D01*
X122504416Y-42492951D01*
X122608951Y-42388416D01*
X122691084Y-42265495D01*
X122747658Y-42128913D01*
X122765034Y-42041560D01*
X122776500Y-41983920D01*
X122776500Y-41836079D01*
X122747659Y-41691092D01*
X122747658Y-41691091D01*
X122747658Y-41691087D01*
X122747656Y-41691082D01*
X122691087Y-41554511D01*
X122691080Y-41554498D01*
X122608951Y-41431584D01*
X122608948Y-41431580D01*
X122504419Y-41327051D01*
X122504415Y-41327048D01*
X122381501Y-41244919D01*
X122381488Y-41244912D01*
X122244917Y-41188343D01*
X122244907Y-41188340D01*
X122099920Y-41159500D01*
X122099918Y-41159500D01*
X121952082Y-41159500D01*
X121952080Y-41159500D01*
X121807092Y-41188340D01*
X121807082Y-41188343D01*
X121670511Y-41244912D01*
X121670498Y-41244919D01*
X121547584Y-41327048D01*
X121547580Y-41327051D01*
X121443051Y-41431580D01*
X121443048Y-41431584D01*
X121360919Y-41554498D01*
X121360912Y-41554511D01*
X121304343Y-41691082D01*
X121304340Y-41691092D01*
X121275500Y-41836079D01*
X121275500Y-41836082D01*
X121275500Y-41983918D01*
X121275500Y-41983920D01*
X121275499Y-41983920D01*
X109411500Y-41983920D01*
X109411500Y-38410205D01*
X113191000Y-38410205D01*
X113191000Y-39220000D01*
X113813886Y-39220000D01*
X113796000Y-39309920D01*
X113796000Y-39430080D01*
X113813886Y-39520000D01*
X113191001Y-39520000D01*
X113191001Y-40329785D01*
X113191002Y-40329808D01*
X113193908Y-40354869D01*
X113193909Y-40354873D01*
X113239211Y-40457474D01*
X113239214Y-40457479D01*
X113318520Y-40536785D01*
X113318525Y-40536788D01*
X113421123Y-40582089D01*
X113446206Y-40584999D01*
X114255999Y-40584999D01*
X114256000Y-40584998D01*
X114256000Y-39962113D01*
X114345920Y-39980000D01*
X114466080Y-39980000D01*
X114556000Y-39962113D01*
X114556000Y-40584999D01*
X115365786Y-40584999D01*
X115365808Y-40584997D01*
X115390869Y-40582091D01*
X115390873Y-40582090D01*
X115493474Y-40536788D01*
X115493479Y-40536785D01*
X115572785Y-40457479D01*
X115572788Y-40457474D01*
X115618089Y-40354877D01*
X115618089Y-40354875D01*
X115620999Y-40329794D01*
X115621000Y-40329791D01*
X115621000Y-39520000D01*
X114998114Y-39520000D01*
X115016000Y-39430080D01*
X115016000Y-39309920D01*
X114998114Y-39220000D01*
X115620999Y-39220000D01*
X115620999Y-38410214D01*
X115620997Y-38410191D01*
X115618091Y-38385130D01*
X115618090Y-38385126D01*
X115572788Y-38282525D01*
X115572785Y-38282520D01*
X115493479Y-38203214D01*
X115493474Y-38203211D01*
X115390876Y-38157910D01*
X115365794Y-38155000D01*
X114556000Y-38155000D01*
X114556000Y-38777886D01*
X114466080Y-38760000D01*
X114345920Y-38760000D01*
X114256000Y-38777886D01*
X114256000Y-38155000D01*
X113446214Y-38155000D01*
X113446191Y-38155002D01*
X113421130Y-38157908D01*
X113421126Y-38157909D01*
X113318525Y-38203211D01*
X113318520Y-38203214D01*
X113239214Y-38282520D01*
X113239211Y-38282525D01*
X113193910Y-38385122D01*
X113193910Y-38385124D01*
X113191000Y-38410205D01*
X109411500Y-38410205D01*
X109411500Y-35624500D01*
X109431185Y-35557461D01*
X109483989Y-35511706D01*
X109535500Y-35500500D01*
X198361500Y-35500500D01*
X198428539Y-35520185D01*
G37*
%TD.AperFunction*%
%TD*%
M02*
