%TF.GenerationSoftware,KiCad,Pcbnew,9.0.3*%
%TF.CreationDate,2026-02-11T16:22:36-03:00*%
%TF.ProjectId,control-pad,636f6e74-726f-46c2-9d70-61642e6b6963,1.0*%
%TF.SameCoordinates,Original*%
%TF.FileFunction,Soldermask,Top*%
%TF.FilePolarity,Negative*%
%FSLAX46Y46*%
G04 Gerber Fmt 4.6, Leading zero omitted, Abs format (unit mm)*
G04 Created by KiCad (PCBNEW 9.0.3) date 2026-02-11 16:22:36*
%MOMM*%
%LPD*%
G01*
G04 APERTURE LIST*
G04 Aperture macros list*
%AMRoundRect*
0 Rectangle with rounded corners*
0 $1 Rounding radius*
0 $2 $3 $4 $5 $6 $7 $8 $9 X,Y pos of 4 corners*
0 Add a 4 corners polygon primitive as box body*
4,1,4,$2,$3,$4,$5,$6,$7,$8,$9,$2,$3,0*
0 Add four circle primitives for the rounded corners*
1,1,$1+$1,$2,$3*
1,1,$1+$1,$4,$5*
1,1,$1+$1,$6,$7*
1,1,$1+$1,$8,$9*
0 Add four rect primitives between the rounded corners*
20,1,$1+$1,$2,$3,$4,$5,0*
20,1,$1+$1,$4,$5,$6,$7,0*
20,1,$1+$1,$6,$7,$8,$9,0*
20,1,$1+$1,$8,$9,$2,$3,0*%
G04 Aperture macros list end*
%ADD10RoundRect,0.225000X0.225000X0.250000X-0.225000X0.250000X-0.225000X-0.250000X0.225000X-0.250000X0*%
%ADD11RoundRect,0.109050X1.492950X-0.617950X1.492950X0.617950X-1.492950X0.617950X-1.492950X-0.617950X0*%
%ADD12C,3.520000*%
%ADD13RoundRect,0.102000X-0.750000X-1.600000X0.750000X-1.600000X0.750000X1.600000X-0.750000X1.600000X0*%
%ADD14RoundRect,0.225000X-0.225000X-0.250000X0.225000X-0.250000X0.225000X0.250000X-0.225000X0.250000X0*%
%ADD15RoundRect,0.200000X-0.200000X-0.275000X0.200000X-0.275000X0.200000X0.275000X-0.200000X0.275000X0*%
%ADD16O,8.604000X4.404000*%
%ADD17RoundRect,0.102000X0.754000X-0.754000X0.754000X0.754000X-0.754000X0.754000X-0.754000X-0.754000X0*%
%ADD18C,1.712000*%
%ADD19RoundRect,0.225000X-0.250000X0.225000X-0.250000X-0.225000X0.250000X-0.225000X0.250000X0.225000X0*%
%ADD20RoundRect,0.102000X0.250000X-0.750000X0.250000X0.750000X-0.250000X0.750000X-0.250000X-0.750000X0*%
%ADD21RoundRect,0.102000X0.750000X-0.250000X0.750000X0.250000X-0.750000X0.250000X-0.750000X-0.250000X0*%
%ADD22C,1.000000*%
%ADD23RoundRect,0.102000X-0.915000X-0.915000X0.915000X-0.915000X0.915000X0.915000X-0.915000X0.915000X0*%
%ADD24C,2.034000*%
%ADD25RoundRect,0.250000X-0.250000X-0.475000X0.250000X-0.475000X0.250000X0.475000X-0.250000X0.475000X0*%
%ADD26RoundRect,0.016240X0.635760X0.215760X-0.635760X0.215760X-0.635760X-0.215760X0.635760X-0.215760X0*%
%ADD27RoundRect,0.016240X0.215760X0.635760X-0.215760X0.635760X-0.215760X-0.635760X0.215760X-0.635760X0*%
%ADD28RoundRect,0.102000X1.850000X1.850000X-1.850000X1.850000X-1.850000X-1.850000X1.850000X-1.850000X0*%
%ADD29RoundRect,0.109050X-0.617950X-1.492950X0.617950X-1.492950X0.617950X1.492950X-0.617950X1.492950X0*%
%ADD30RoundRect,0.250000X0.450000X0.350000X-0.450000X0.350000X-0.450000X-0.350000X0.450000X-0.350000X0*%
%ADD31RoundRect,0.099250X-0.607750X-0.297750X0.607750X-0.297750X0.607750X0.297750X-0.607750X0.297750X0*%
%ADD32RoundRect,0.225000X0.250000X-0.225000X0.250000X0.225000X-0.250000X0.225000X-0.250000X-0.225000X0*%
%ADD33RoundRect,0.200000X0.275000X-0.200000X0.275000X0.200000X-0.275000X0.200000X-0.275000X-0.200000X0*%
%ADD34RoundRect,0.250000X-0.350000X0.450000X-0.350000X-0.450000X0.350000X-0.450000X0.350000X0.450000X0*%
%ADD35RoundRect,0.102000X-0.330000X-0.160000X0.330000X-0.160000X0.330000X0.160000X-0.330000X0.160000X0*%
%ADD36RoundRect,0.102000X-0.500000X-0.800000X0.500000X-0.800000X0.500000X0.800000X-0.500000X0.800000X0*%
%ADD37C,0.854000*%
%ADD38O,1.104000X1.904000*%
%ADD39O,1.104000X2.604000*%
%ADD40RoundRect,0.060300X-0.716700X-0.341700X0.716700X-0.341700X0.716700X0.341700X-0.716700X0.341700X0*%
%ADD41RoundRect,0.200000X-0.275000X0.200000X-0.275000X-0.200000X0.275000X-0.200000X0.275000X0.200000X0*%
%ADD42RoundRect,0.200000X0.200000X0.275000X-0.200000X0.275000X-0.200000X-0.275000X0.200000X-0.275000X0*%
G04 APERTURE END LIST*
D10*
%TO.C,C16*%
X114050000Y-95125000D03*
X112500000Y-95125000D03*
%TD*%
D11*
%TO.C,J4*%
X184715000Y-126175000D03*
X184715000Y-123675000D03*
X184715000Y-121675000D03*
X184715000Y-119175000D03*
D12*
X188395000Y-129245000D03*
X188395000Y-116105000D03*
%TD*%
D13*
%TO.C,F1*%
X159000000Y-143525000D03*
X163200000Y-143525000D03*
%TD*%
D11*
%TO.C,J3*%
X184740000Y-107275000D03*
X184740000Y-104775000D03*
X184740000Y-102775000D03*
X184740000Y-100275000D03*
D12*
X188420000Y-110345000D03*
X188420000Y-97205000D03*
%TD*%
D14*
%TO.C,C11*%
X178225000Y-101375000D03*
X179775000Y-101375000D03*
%TD*%
D15*
%TO.C,R4*%
X138411000Y-118375000D03*
X140061000Y-118375000D03*
%TD*%
D16*
%TO.C,S5*%
X188536000Y-41887500D03*
X188536000Y-52387500D03*
%TD*%
D17*
%TO.C,S7*%
X121661000Y-59260000D03*
D18*
X121661000Y-61800000D03*
X121661000Y-64340000D03*
%TD*%
D15*
%TO.C,R5*%
X151875000Y-100500000D03*
X153525000Y-100500000D03*
%TD*%
D14*
%TO.C,C5*%
X125786000Y-140150000D03*
X127336000Y-140150000D03*
%TD*%
D17*
%TO.C,S8*%
X114236000Y-75622500D03*
D18*
X114236000Y-78162500D03*
X114236000Y-80702500D03*
%TD*%
D19*
%TO.C,C13*%
X120211000Y-107525000D03*
X120211000Y-109075000D03*
%TD*%
D20*
%TO.C,U2*%
X124575000Y-98475000D03*
X125375000Y-98475000D03*
X126175000Y-98475000D03*
X126975000Y-98475000D03*
X127775000Y-98475000D03*
X128575000Y-98475000D03*
X129375000Y-98475000D03*
X130175000Y-98475000D03*
X130975000Y-98475000D03*
X131775000Y-98475000D03*
X132575000Y-98475000D03*
D21*
X134475000Y-96575000D03*
X134475000Y-95775000D03*
X134475000Y-94975000D03*
X134475000Y-94175000D03*
X134475000Y-93375000D03*
X134475000Y-92575000D03*
X134475000Y-91775000D03*
X134475000Y-90975000D03*
X134475000Y-90175000D03*
X134475000Y-89375000D03*
X134475000Y-88575000D03*
D20*
X132575000Y-86675000D03*
X131775000Y-86675000D03*
X130975000Y-86675000D03*
X130175000Y-86675000D03*
X129375000Y-86675000D03*
X128575000Y-86675000D03*
X127775000Y-86675000D03*
X126975000Y-86675000D03*
X126175000Y-86675000D03*
X125375000Y-86675000D03*
X124575000Y-86675000D03*
D21*
X122675000Y-88575000D03*
X122675000Y-89375000D03*
X122675000Y-90175000D03*
X122675000Y-90975000D03*
X122675000Y-91775000D03*
X122675000Y-92575000D03*
X122675000Y-93375000D03*
X122675000Y-94175000D03*
X122675000Y-94975000D03*
X122675000Y-95775000D03*
X122675000Y-96575000D03*
%TD*%
D22*
%TO.C,S1*%
X114406000Y-46990000D03*
X122026000Y-41910000D03*
D23*
X114406000Y-39370000D03*
D24*
X119486000Y-44450000D03*
%TD*%
D14*
%TO.C,C10*%
X154375000Y-115050000D03*
X155925000Y-115050000D03*
%TD*%
D25*
%TO.C,C22*%
X117061000Y-142290000D03*
X118961000Y-142290000D03*
%TD*%
D14*
%TO.C,C3*%
X125786000Y-137640000D03*
X127336000Y-137640000D03*
%TD*%
D26*
%TO.C,U4*%
X176090000Y-119385000D03*
X176090000Y-118885000D03*
X176090000Y-118385000D03*
X176090000Y-117885000D03*
X176090000Y-117385000D03*
X176090000Y-116885000D03*
X176090000Y-116385000D03*
X176090000Y-115885000D03*
X176090000Y-115385000D03*
D27*
X175275000Y-114570000D03*
X174775000Y-114570000D03*
X174275000Y-114570000D03*
X173775000Y-114570000D03*
X173275000Y-114570000D03*
X172775000Y-114570000D03*
X172275000Y-114570000D03*
X171775000Y-114570000D03*
X171275000Y-114570000D03*
D26*
X170460000Y-115385000D03*
X170460000Y-115885000D03*
X170460000Y-116385000D03*
X170460000Y-116885000D03*
X170460000Y-117385000D03*
X170460000Y-117885000D03*
X170460000Y-118385000D03*
X170460000Y-118885000D03*
X170460000Y-119385000D03*
D27*
X171275000Y-120200000D03*
X171775000Y-120200000D03*
X172275000Y-120200000D03*
X172775000Y-120200000D03*
X173275000Y-120200000D03*
X173775000Y-120200000D03*
X174275000Y-120200000D03*
X174775000Y-120200000D03*
X175275000Y-120200000D03*
D28*
X173275000Y-117385000D03*
%TD*%
D17*
%TO.C,S11*%
X148461000Y-75622500D03*
D18*
X148461000Y-78162500D03*
X148461000Y-80702500D03*
%TD*%
D29*
%TO.C,J1*%
X186625000Y-133779000D03*
X189125000Y-133779000D03*
X191125000Y-133779000D03*
X193625000Y-133779000D03*
D12*
X183555000Y-137459000D03*
X196695000Y-137459000D03*
%TD*%
D14*
%TO.C,C17*%
X158836000Y-95475000D03*
X160386000Y-95475000D03*
%TD*%
D19*
%TO.C,C15*%
X149950000Y-122825000D03*
X149950000Y-124375000D03*
%TD*%
D15*
%TO.C,R8*%
X146450000Y-105800000D03*
X148100000Y-105800000D03*
%TD*%
%TO.C,R12*%
X115636000Y-126875000D03*
X117286000Y-126875000D03*
%TD*%
D17*
%TO.C,S9*%
X124875000Y-75622500D03*
D18*
X124875000Y-78162500D03*
X124875000Y-80702500D03*
%TD*%
D30*
%TO.C,Y1*%
X172650000Y-96875000D03*
X170450000Y-96875000D03*
X170450000Y-98575000D03*
X172650000Y-98575000D03*
%TD*%
D19*
%TO.C,C21*%
X140125000Y-128575000D03*
X140125000Y-130125000D03*
%TD*%
D16*
%TO.C,S3*%
X152836000Y-41887500D03*
X152836000Y-52387500D03*
%TD*%
D25*
%TO.C,C2*%
X117061000Y-133260000D03*
X118961000Y-133260000D03*
%TD*%
D14*
%TO.C,C1*%
X125786000Y-135130000D03*
X127336000Y-135130000D03*
%TD*%
D16*
%TO.C,S4*%
X170636000Y-41887500D03*
X170636000Y-52387500D03*
%TD*%
D19*
%TO.C,C14*%
X117701000Y-107525000D03*
X117701000Y-109075000D03*
%TD*%
D15*
%TO.C,R11*%
X146111000Y-95210000D03*
X147761000Y-95210000D03*
%TD*%
D31*
%TO.C,U5*%
X164670000Y-130325000D03*
X164670000Y-131275000D03*
X164670000Y-132225000D03*
X167180000Y-132225000D03*
X167180000Y-131275000D03*
X167180000Y-130325000D03*
%TD*%
D32*
%TO.C,C12*%
X114000000Y-87025000D03*
X114000000Y-85475000D03*
%TD*%
D33*
%TO.C,R1*%
X175850000Y-134175000D03*
X175850000Y-132525000D03*
%TD*%
D34*
%TO.C,Y2*%
X140425000Y-91050000D03*
X140425000Y-93250000D03*
X142125000Y-93250000D03*
X142125000Y-91050000D03*
%TD*%
D17*
%TO.C,S15*%
X193411000Y-75622500D03*
D18*
X193411000Y-78162500D03*
X193411000Y-80702500D03*
%TD*%
D35*
%TO.C,U3*%
X117461000Y-121225000D03*
X117461000Y-121875000D03*
X117461000Y-122525000D03*
X119511000Y-122525000D03*
X119511000Y-121875000D03*
X119511000Y-121225000D03*
D36*
X118486000Y-121875000D03*
%TD*%
D37*
%TO.C,J2*%
X172400000Y-139165000D03*
X173250000Y-139165000D03*
X174100000Y-139165000D03*
X174950000Y-139165000D03*
X175800000Y-139165000D03*
X176650000Y-139165000D03*
X177500000Y-139165000D03*
X178350000Y-139165000D03*
X178350000Y-140515000D03*
X177500000Y-140515000D03*
X176650000Y-140515000D03*
X175800000Y-140515000D03*
X174950000Y-140515000D03*
X174100000Y-140515000D03*
X173250000Y-140515000D03*
X172400000Y-140515000D03*
D38*
X171050000Y-143525000D03*
X179700000Y-143525000D03*
D39*
X171050000Y-140145000D03*
X179700000Y-140145000D03*
%TD*%
D17*
%TO.C,S10*%
X136861000Y-75622500D03*
D18*
X136861000Y-78162500D03*
X136861000Y-80702500D03*
%TD*%
D40*
%TO.C,U1*%
X157740000Y-121000000D03*
X157740000Y-121950000D03*
X157740000Y-122900000D03*
X160110000Y-122900000D03*
X160110000Y-121000000D03*
%TD*%
D15*
%TO.C,R10*%
X178375000Y-95850000D03*
X180025000Y-95850000D03*
%TD*%
D25*
%TO.C,C4*%
X117061000Y-136270000D03*
X118961000Y-136270000D03*
%TD*%
D14*
%TO.C,C20*%
X139036000Y-124170000D03*
X140586000Y-124170000D03*
%TD*%
D17*
%TO.C,S12*%
X160011000Y-75622500D03*
D18*
X160011000Y-78162500D03*
X160011000Y-80702500D03*
%TD*%
D33*
%TO.C,R2*%
X178360000Y-134175000D03*
X178360000Y-132525000D03*
%TD*%
D16*
%TO.C,S2*%
X135211000Y-41887500D03*
X135211000Y-52387500D03*
%TD*%
D14*
%TO.C,C19*%
X131036000Y-115975000D03*
X132586000Y-115975000D03*
%TD*%
D41*
%TO.C,R6*%
X176225000Y-90625000D03*
X176225000Y-92275000D03*
%TD*%
D17*
%TO.C,S13*%
X171011000Y-75622500D03*
D18*
X171011000Y-78162500D03*
X171011000Y-80702500D03*
%TD*%
D14*
%TO.C,C18*%
X137536000Y-107425000D03*
X139086000Y-107425000D03*
%TD*%
D17*
%TO.C,S6*%
X114386000Y-59260000D03*
D18*
X114386000Y-61800000D03*
X114386000Y-64340000D03*
%TD*%
D25*
%TO.C,C8*%
X133611000Y-127425000D03*
X135511000Y-127425000D03*
%TD*%
D14*
%TO.C,C7*%
X124936000Y-127675000D03*
X126486000Y-127675000D03*
%TD*%
D17*
%TO.C,S14*%
X182361000Y-75622500D03*
D18*
X182361000Y-78162500D03*
X182361000Y-80702500D03*
%TD*%
D14*
%TO.C,C9*%
X164525000Y-95950000D03*
X166075000Y-95950000D03*
%TD*%
D15*
%TO.C,R7*%
X146450000Y-103290000D03*
X148100000Y-103290000D03*
%TD*%
%TO.C,R9*%
X146450000Y-108310000D03*
X148100000Y-108310000D03*
%TD*%
D42*
%TO.C,R3*%
X122361000Y-115750000D03*
X120711000Y-115750000D03*
%TD*%
D14*
%TO.C,C6*%
X159525000Y-106875000D03*
X161075000Y-106875000D03*
%TD*%
M02*
